<mxfile host="app.diagrams.net" modified="2024-01-12T14:48:12.689Z" agent="Mozilla/5.0 (Macintosh; Intel Mac OS X 10_15_7) AppleWebKit/537.36 (KHTML, like Gecko) Chrome/120.0.0.0 Safari/537.36" etag="iUH6FM1of5P7GGK-1q6L" version="22.1.18" type="github">
  <diagram name="Page-1" id="757euaS2oAXiSTY-SthU">
    <mxGraphModel dx="2232" dy="1227" grid="1" gridSize="10" guides="1" tooltips="1" connect="1" arrows="1" fold="1" page="1" pageScale="1" pageWidth="3300" pageHeight="2339" math="0" shadow="0">
      <root>
        <mxCell id="0" />
        <mxCell id="1" parent="0" />
        <mxCell id="BSYq-ft0iuZ4jn7_VfeT-107" value="" style="rounded=1;whiteSpace=wrap;html=1;fillColor=none;strokeColor=#FF8000;strokeWidth=2;" vertex="1" parent="1">
          <mxGeometry x="300" y="120" width="830" height="810" as="geometry" />
        </mxCell>
        <mxCell id="BSYq-ft0iuZ4jn7_VfeT-49" value="" style="endArrow=none;html=1;rounded=0;strokeWidth=2;" edge="1" parent="1">
          <mxGeometry width="50" height="50" relative="1" as="geometry">
            <mxPoint x="679.84" y="620" as="sourcePoint" />
            <mxPoint x="1040" y="620" as="targetPoint" />
          </mxGeometry>
        </mxCell>
        <mxCell id="BSYq-ft0iuZ4jn7_VfeT-46" value="" style="endArrow=none;html=1;rounded=0;strokeWidth=2;" edge="1" parent="1">
          <mxGeometry width="50" height="50" relative="1" as="geometry">
            <mxPoint x="679.84" y="340" as="sourcePoint" />
            <mxPoint x="1040" y="340" as="targetPoint" />
          </mxGeometry>
        </mxCell>
        <mxCell id="BSYq-ft0iuZ4jn7_VfeT-47" value="" style="endArrow=none;html=1;rounded=0;strokeWidth=2;" edge="1" parent="1">
          <mxGeometry width="50" height="50" relative="1" as="geometry">
            <mxPoint x="679.84" y="370" as="sourcePoint" />
            <mxPoint x="1040" y="370" as="targetPoint" />
          </mxGeometry>
        </mxCell>
        <mxCell id="BSYq-ft0iuZ4jn7_VfeT-83" value="" style="endArrow=none;html=1;rounded=0;strokeWidth=2;" edge="1" parent="1">
          <mxGeometry width="50" height="50" relative="1" as="geometry">
            <mxPoint x="679.47" y="400" as="sourcePoint" />
            <mxPoint x="1040" y="400" as="targetPoint" />
          </mxGeometry>
        </mxCell>
        <mxCell id="BSYq-ft0iuZ4jn7_VfeT-95" value="" style="rounded=0;whiteSpace=wrap;html=1;fillColor=none;strokeWidth=3;strokeColor=#4C0099;" vertex="1" parent="1">
          <mxGeometry x="710" y="310" width="300" height="360" as="geometry" />
        </mxCell>
        <mxCell id="BSYq-ft0iuZ4jn7_VfeT-54" value="" style="endArrow=none;dashed=1;html=1;dashPattern=1 3;strokeWidth=2;rounded=0;" edge="1" parent="1">
          <mxGeometry width="50" height="50" relative="1" as="geometry">
            <mxPoint x="700" y="620" as="sourcePoint" />
            <mxPoint x="700" y="420" as="targetPoint" />
            <Array as="points">
              <mxPoint x="700" y="400" />
            </Array>
          </mxGeometry>
        </mxCell>
        <mxCell id="BSYq-ft0iuZ4jn7_VfeT-1" value="Latent space&lt;br&gt;&lt;i&gt;P&lt;sub&gt;z&lt;br&gt;&lt;/sub&gt;&lt;/i&gt;Uniform or Gaussian distribution" style="ellipse;whiteSpace=wrap;html=1;aspect=fixed;" vertex="1" parent="1">
          <mxGeometry x="80" y="430" width="100" height="100" as="geometry" />
        </mxCell>
        <mxCell id="BSYq-ft0iuZ4jn7_VfeT-2" value="" style="rounded=0;whiteSpace=wrap;html=1;" vertex="1" parent="1">
          <mxGeometry x="280" y="340" width="10" height="280" as="geometry" />
        </mxCell>
        <mxCell id="BSYq-ft0iuZ4jn7_VfeT-3" value="" style="endArrow=classic;html=1;rounded=0;exitX=1;exitY=0.5;exitDx=0;exitDy=0;" edge="1" parent="1" source="BSYq-ft0iuZ4jn7_VfeT-1">
          <mxGeometry width="50" height="50" relative="1" as="geometry">
            <mxPoint x="820" y="500" as="sourcePoint" />
            <mxPoint x="280" y="480" as="targetPoint" />
          </mxGeometry>
        </mxCell>
        <mxCell id="BSYq-ft0iuZ4jn7_VfeT-4" value="Latent vector &lt;i&gt;z&amp;nbsp;&lt;/i&gt;~&amp;nbsp;&lt;i&gt;P&lt;sub&gt;z&lt;/sub&gt;&lt;/i&gt;" style="text;html=1;strokeColor=none;fillColor=none;align=center;verticalAlign=middle;whiteSpace=wrap;rounded=0;" vertex="1" parent="1">
          <mxGeometry x="242.5" y="630" width="85" height="30" as="geometry" />
        </mxCell>
        <mxCell id="BSYq-ft0iuZ4jn7_VfeT-5" value="" style="endArrow=classic;html=1;rounded=0;exitX=1;exitY=0.5;exitDx=0;exitDy=0;" edge="1" parent="1" source="BSYq-ft0iuZ4jn7_VfeT-2">
          <mxGeometry width="50" height="50" relative="1" as="geometry">
            <mxPoint x="820" y="500" as="sourcePoint" />
            <mxPoint x="600" y="480" as="targetPoint" />
          </mxGeometry>
        </mxCell>
        <mxCell id="BSYq-ft0iuZ4jn7_VfeT-6" value="Encoding using &lt;i&gt;R&lt;sub&gt;y&lt;/sub&gt;&lt;/i&gt; rotations parameterized on the elements of &lt;i&gt;z.&lt;/i&gt; Each element of &lt;i&gt;z&lt;/i&gt; is the rotation angle for the corresponding &lt;i&gt;R&lt;sub&gt;y&lt;/sub&gt;&lt;/i&gt; gate." style="text;html=1;strokeColor=#CC0066;fillColor=none;align=left;verticalAlign=middle;whiteSpace=wrap;rounded=0;shadow=0;" vertex="1" parent="1">
          <mxGeometry x="305" y="420" width="290" height="50" as="geometry" />
        </mxCell>
        <mxCell id="BSYq-ft0iuZ4jn7_VfeT-7" value="[z&lt;sub&gt;1&lt;/sub&gt;,z&lt;sub style=&quot;border-color: var(--border-color);&quot;&gt;2&lt;/sub&gt;, z&lt;sub style=&quot;border-color: var(--border-color);&quot;&gt;3&lt;/sub&gt;,..., z&lt;sub style=&quot;border-color: var(--border-color);&quot;&gt;N&lt;/sub&gt;]" style="text;html=1;strokeColor=none;fillColor=none;align=center;verticalAlign=middle;whiteSpace=wrap;rounded=0;" vertex="1" parent="1">
          <mxGeometry x="220" y="670" width="130" height="30" as="geometry" />
        </mxCell>
        <mxCell id="BSYq-ft0iuZ4jn7_VfeT-8" value="Draw from Distribution &lt;i&gt;P&lt;sub&gt;z&lt;/sub&gt;&lt;/i&gt;" style="text;html=1;strokeColor=#CC0066;fillColor=none;align=center;verticalAlign=middle;whiteSpace=wrap;rounded=0;" vertex="1" parent="1">
          <mxGeometry x="190" y="440" width="80" height="30" as="geometry" />
        </mxCell>
        <mxCell id="BSYq-ft0iuZ4jn7_VfeT-12" value="" style="shape=image;verticalLabelPosition=bottom;labelBackgroundColor=default;verticalAlign=top;aspect=fixed;imageAspect=0;image=data:image/png,iVBORw0KGgoAAAANSUhEUgAAAdMAAAA+CAYAAABwU/FFAAABWWlDQ1BJQ0MgUHJvZmlsZQAAKJFtkD1Lw1AUht9opKBVrDg4OGTzg9aPND/AtoMUHEKt+LGlSU3VNF6SiLo6ODk5dHZR6CpCFwdHNwdBxV/gXuii5Xpuo6ZVDxzOw8t7zz3nAH2ywZgjA6i6gVdYziobm1tK7A0S4hiGBsUwfZbR9RWy4Lv2RuuJ3BSPKdFr6VypP0i1CWf+9KR2nUv89ffEoFX2TaoflLMm8wJAmibWDwMm+Ih43KOhiM8E2yFfCC6FfNPxFAs54nviUbNiWMQvxMlSl253cdU5ML9mENPHy+7aKtURykkUoSINCyksYoFu879X63hz2AfDMTzswEYFARRkSGFwUCbOw4WJOSSJVeqmQhM3/n27SLNo5/QYfZWJtN094DYPJLKRNtWkNS6BuzozPOPnolJL9rfTashDDWCgxnlzHYjNAO1nzt8bnLevgP5Xetv6BCvHYEcZkVR2AAAAYmVYSWZNTQAqAAAACAACARIAAwAAAAEAAQAAh2kABAAAAAEAAAAmAAAAAAADkoYABwAAABIAAABQoAIABAAAAAEAAAHToAMABAAAAAEAAAA+AAAAAEFTQ0lJAAAAU2NyZWVuc2hvdEZW93UAAAI8aVRYdFhNTDpjb20uYWRvYmUueG1wAAAAAAA8eDp4bXBtZXRhIHhtbG5zOng9ImFkb2JlOm5zOm1ldGEvIiB4OnhtcHRrPSJYTVAgQ29yZSA2LjAuMCI+CiAgIDxyZGY6UkRGIHhtbG5zOnJkZj0iaHR0cDovL3d3dy53My5vcmcvMTk5OS8wMi8yMi1yZGYtc3ludGF4LW5zIyI+CiAgICAgIDxyZGY6RGVzY3JpcHRpb24gcmRmOmFib3V0PSIiCiAgICAgICAgICAgIHhtbG5zOmV4aWY9Imh0dHA6Ly9ucy5hZG9iZS5jb20vZXhpZi8xLjAvIgogICAgICAgICAgICB4bWxuczp0aWZmPSJodHRwOi8vbnMuYWRvYmUuY29tL3RpZmYvMS4wLyI+CiAgICAgICAgIDxleGlmOlBpeGVsWURpbWVuc2lvbj42MjwvZXhpZjpQaXhlbFlEaW1lbnNpb24+CiAgICAgICAgIDxleGlmOlVzZXJDb21tZW50PlNjcmVlbnNob3Q8L2V4aWY6VXNlckNvbW1lbnQ+CiAgICAgICAgIDxleGlmOlBpeGVsWERpbWVuc2lvbj40Njc8L2V4aWY6UGl4ZWxYRGltZW5zaW9uPgogICAgICAgICA8dGlmZjpPcmllbnRhdGlvbj4xPC90aWZmOk9yaWVudGF0aW9uPgogICAgICA8L3JkZjpEZXNjcmlwdGlvbj4KICAgPC9yZGY6UkRGPgo8L3g6eG1wbWV0YT4KKFp3BQAAG6lJREFUeAHtnQW0HMXSxzu4u1twJ0CCBnd3h+Cc4O7BJbi764e7Bnd7OASH4BYIfnCZr379Xu/pne2ZndmZu0bVOXvvTE/rv6W6q6q7e0VCRkkRUAQUAUVAEVAEGkZgpIZDakBFQBFQBBQBRUARsAgoM9WGoAgoAoqAIqAIFERAmWlBADW4IqAIKAKKgCKgzFTbgCKgCCgCioAiUBABZaYFAdTgioAioAgoAoqAMlNtA4qAIqAIKAKKQEEElJkWBFCDKwKKgCKgCCgCyky1DSgCioAioAgoAgURUGZaEEANrggoAoqAIqAIKDPVNqAIKAKKgCKgCBREQJlpQQA1uCKgCCgCioAioMxU24AioAgoAoqAIlAQAWWmBQHU4IqAIqAIKAKKwCgKgSKgCCgCioAi0K0IvPTSS+b111+3xRup10hmyaWWNNNMM01Vcb/88kvzyCOPmLHGGsuMPPLI5ueffzZzzTWX/VV5THlRZpoCjn5SBBQBRUARaA8Efv/9d/PHH3+YcccdN1eGnn32WXP//febu+++2/z6669mpZVWMvfcc09VHO+//7656KKLzKOPPmpGG200s9hii5lddtklFzPtpfeZVmGqL4qAIqAIKAJtgsCw94aZI4860rC6HDFihM1Vr169zAILLGAOOeQQ+z9LVll5zjzzzIawv/32m3nmmWdMv379aoLOMsssZo899jA777xzzbd6DspM6yGk3xUBRaAjEfjzzz/NTTfdZP766y+b/4knntisssoqNWW57777zE8//WTGHHNMw+qHcBtuuGGNP3VoLgJnnHGGOemkk8yuu+5q1lhjDTP77LPbDHz44Yfm3nvvNUcddZQZMGCAOe644+pm7MorrzT8pp12WnPJJZfY+G6//faqcD/88IPp3bu3GT58uBl99NGrvmV6YWWq1D0IyKAQSSOLJp988kgGhu4pWItK8s8//0Snn356tOCCC0aTTDJJ1Ldv32ivvfaKnnjiiRblSJPNisBXX30VbbbZZpHoviIZDO1PRH41wXffffdIBln7XVYv0eabbx5R70qtQ0CYqK2Pq6++OjET9EHq9bTTTkv04z5stdVWdlz84IMPItGLRiLKjV555RX32f6/8cYbIxHvVrnleTF5PKvf9kWABjXbbLNFoliPJphgAtvIYKxKxRBgYJ177rmjxx57LALPIUOGRDJ7jWTmGl122WXFItfQTUFg6623rvSJVVddNZimrFaiGWaYQSegQXSa6/j2229HU001VXTBBRfYRYEYBtVk4LXXXoumnnrq6NRTT42mn3766I7b76jx4zvMOuus0dNPP22d6NMw4fXWW8/3Eu20007RgQceWOWW50WZaR602tjvZ599Fr311lvR33//bWdXNBZlpsUq7IUXXrCdTkRKVRFdc8011n388cePxCCi6pu+tB8CTDKvv/76aOyxx45GGWWUSPRvNZlkID3ggANq3NWh+QiIiD1iZQqJ0VA0xRRTRD5DdYxUDIasH+p2kUUWsc+hP1988UU00UQT2bGR7++8804kIn07IX7zzTcrQeadd97ogQceqLznfehRZipy7ujyyy/Pm6e6/k888cRoo402quvv3+oBUUXZzBTxSP/+/aOhQ4c2FdbDDjssEqu6SkdoZuLnnXeexXGeeeapSlYMGKIJJ5zQfvM7eZWnjC//RlwzQlOKN38g3XLLLW2drb322jVxM5CKxWeNez0H0ddFiBDbiUT3F4lxTfTcc881nC2YykILLdRw+HjAPGO2GAFFiOgdIQ1yDDXOSPGDSJ7++M0337ggVf/hQSussEKVG/yDMdLxke+//95KL4qoxnqUmU455ZSRWEZVFaKMF5bizDARB3QDiYFEJCbbqb885SybmQ4bNsyKj0ODUJ58NeKXFTfinLhIJktcRXGl3EsttVR01lln1SRH56YzPvjggzXfsjp0Kq5Zy9eIv6J1Fk/TH0jB261IZN9hxSsDKVIGJkl5aJ999olkm0YU0sPmiacn/A4aNMgymCeffLKh6BGf0r7LkrxkHbOZCEw33XQ1eZatLJah0u/citT3BOP/zzP/8Z0qz05fWnGQhzfeeMOuTGkP7737XoS+dPHFF/e95H7uSGZKp0CBvPfee+cucLsFgInSIWm4aT86+5xzzBltsMEGdWecZTJTRMUYcGCYQUNvBbH6o9Hvv//+mZPvCVxd4g8//LCtqxlnnDH3AOzi6FRcXf574n9P1Fl8IN10001t3a2//vqVIjQykDKg018xTmtHYrXGagzd4yeffJI7i1mZKSoQGOXAgQOjo48+2jKmUGJZx2wmz4w1cWJFilElK1DsF+IEI0QtEyJfX+p/X3fddW0dokNFzM8EpAh1JDOlwICHsQ06wk4nRH3PP/98RddJJ7344ovt7IlGxMwXYxdWZ47hYlSRRGUyU9KB2Sc11KQ8lO2OhTLSCNlUnTnqsnEl4V9++SWac8457az2zjvvzJyXuMdOxjVeljLfy66z+ECKXcEYY4xhf06yldfwBMZAn2hEWlImVvXiQuzJGLn00kvX81rzvR4z/fzzz62FOzhss802EeJuxmQWOUgjQ+NyljGbScB4441XZe/hi3bvuusuu0KNjwNMGkKraF/MHy/kyy+/bPOLLp3wRaRMxN2xzBRmA2OpZ8UVB7Cd3/v06WPLhHVaEg0ePLjCUI899tigt7KY6YsvvmiZxo477hhMp5mO6DJo8GAU6qhpeSkLV9JlNjvOOONEGCE1St2Ca6PlzxKujDpLGkhZlTJ2sEqF0JfmGUixBaENyEEAWYrSUj/oKinrtddemysfacwUpsWEEmlRfPyFsZLevvvuW5Ne1jF7+eWXj6644gob3mekLsI4Q2WLzHzzzec+V/3HSjuuL/U9rL766ja/MPAi+lLi7FhmygoBC61W6PH8yijr+bvvvrOMi4a4ySabJEZLB8YPPzkFJOivLGa67LLL2pmbm8EHE2ui4+GHH27LHdKZJGWjLFxhpIjYsQMoanTUDbgm4V2Ge1l15utL/XwxQLOCYr8hExu2kmUdSB9//HHbBrE47QSSM2bt/uiZZpopV3bTmCniXMaf0DYj0kMlBaNFL+lT1jEbZsm+X/S92EuE+jtWvoh9MRrDQDC0H5XJFCoq+m0SIRFE4rXEEkskecns3rHMlBJinccMMcmKKzMKbeDxhhtusA2URnr++ecn5gjG5pgp+x1DVAYzdTqOFVdcMZRES9wYZBErpZnBxzNWBq4YxSDSYwXz8ccfV5KAuT/11FOV9ywP3YJrlrI26qeMOiPtuL7Uz89aa61l+xF9CPFjVmKiS/9zexazhmulP8Su5BkjnqyUxkxhXsTHSjNELHD4jiV+nLKO2UjdiOOcc86JR1F5R82CH6RFcWLFCW9Ax8qYAePF0CxETAroy0Wpo5kpMxfAdHuSioLRyvCIUikLP/RGSYRlqfPH6S4hKoOZsueOdC699NJQEi1zc2VD95WFiuIKI2VwWHnllSNm3Y7Q7bDJ39+n5r6l/e8WXNPKWPRb0Tpz6WPIksT0WJGyIqGNH3TQQS5I6n+36mLrRicRqzfKmUfHm8RM0ZU63JLsKPbcc0+bXmjSm2fMlvNxI3TeTALoh47oe0xikczBSJOYpPPfrP8tZ6ZYiJ5wwgnROuusY1eaLN99QknM6ihpM+0cc8xhVwx+mE58ZtVDg0/Tl2IBitgDf8y2QqsixFVYmeInqbFnwYfj84gDs/EsRLrU3bnnnlujS8JkvUhe/PTRxZCvU045xXdOfC6CK7oh9GOkR73APN2PmS51kFd/mxdXCsbk6uyzz67pA+QPnVAZlBfXMtJMiqNInREngy1WtvXar5zTa/1gnZ2F3EooTWwYj6cZdRdPM/6OlTRGNmwryUpJzNTpPcEWy9sQHX/88RZXRL0//vhjjZc8Y7acrWyP8ER0zPYXpAj0PdpISLRbk1gTHVrKTNnr5QZ+Ksf9MBBgBiQHGtvv6DZCp5aAk5PfM9PsVPJ1RBtvvHGwGDBSZzhBx6CR+YTCns4ih3lbXTL6ZEQcNLw8nZ840W2QBmGzELoJZzBCHRIOvRTECpK83HLLLVmiqusHfQppMPmqR0VxvfDCCytt0rVN/z9GGHkoL67EzTGRHF3o0t1hhx0qSW677bbR/PPPX3kv8pAH1yLp1AtbtM6YYDLw8kMXSjtOWnliJc95yyEr0FA+2VdKPWDUk4WaVXdZ8uImcXE9ZlLYJGbq7BbAgfYcIo4BdO01ZG/RyJjN+IeUgV9W/XYobz3p1rL7TGVGb4Q5GO6Ri5Ps+zKc6M91OQKckVWIEWutuDf7vt1225ljjjnGiJ7RyIk1QT9pjmKVaURMkOal7jcukxWGZYR51fUb8iCWhLacfBMz9oqXTz/91Mgkwcjq3MiM0Ii+zoilmznzzDMrNyg4z7JXyvArg9599117Oa50wEzRiVWkkU5qhLkYGQyNMFcjFnS2fm+77TabZxGVZoqrnidhHtbL22+9Xc+rKYorbYtfWZQXV+5W3G+//YxYGhquhhJ9q23jtAsxoLHlE2OoUrKXB9dSEkyIpGidLbroopn7M+3766+/TshJrbMwBuu48MIL136MuTSz7mJJB19lNWjkRCQ7lvDcKIkksRJUxL2VZ//Bd//+u9qxtZExW/SfRsTGfjLt99yTnDrtBCRM0QUNa7Ull7VGGASwgsJogB/f+CXNKv18I66ZbLLJcs9YMFxCVOfSKvK/yLGJ7HNzabMKZ7bMD4tD547pd/yWAx+DMp/ZiE26WVa05AlFv38UG7NfDAjYz4deAzFTWcQqgryx6qhHnYwrZUPEjHGEWwGgs7v55puj5ZZbzmJQZHtOHLs8uMbDlvnebnXml00YtcU9i+qjkbqjDqhTuSrM/uIqL5cX+icHTSBNoD1cd9117lPif6fHZL92FkpamSINcWNSkoqDsdD5kevtgsk1OmYHI2sTx5aJeRkYZNVStTkXTGSlam/pQMmN7D0L0bCovEZk6DRgRAhFfkWZhdMRIfL2yWHkroeiITeDXGeQGWTd5MAtfowXnYw9fNy28u233wbjIFyjV8W5W3Hq4d7JuAIaIi3HSB2IuDFxRDftk9MTIs5r9Kq4rLj66Zb93G515pcPYxjGmSy7B/LUnUujJ6+Mo6+Rd7kb1CWX+j+Jmbp9pMTlGwX5kXHADN/5Jdm6FBmz/bTa6bllzDQEAgp+Bgr0HXk2GVOp6OmwuOw08nVESda5ruHROJtxDigGYaSFjigvcb4ps3IGRf+wahdPGVfFuckF2CVRt+FKObFqhFFijBQnjkQrelVcFlzj6Zb53o515pdv0kkntZasSSsy32/8Oa3u4n574so4tpjQp7fffvt4csH3JGbqVrjElTSZdUct4idkJEmCnTxmBwETx7DQW1BoJkk+jIhzzcknn2zEWtXeop6kIw3lS2bl1hkda6dRko7IL4e7YR43dGRxXeatt95q0EGL9ZyRRmqEoRk5LDqoYxDRkZFOYP3KytcI0zMy4/aTs3FUOWR8GTFihL3BHh2ynJ9pdX3xoOiWZdJjdYBLLrmkEVP5uJe6766efd1MPFAZuKLPR88ErqQFriLJMGuuuaYRcXxVkuizZTVi/fKBehCz/So/uDVKYrVrZHJjzjrzLLPpZptWRYNeXUSDtt/I5nP7DYzliDcj+yKNXH5t0GuPOuqoVeHiL1lwjYcp870d68wvH30Mcjj539Ke0+ouFE4YkBEjHiNM1YiY1Oo54+OhHDZg5MYTqzsPxRF3c3mmbxYhWehUgmPPIqqcyrt7+PPPP92jEWlH5dl/6OQx2y+H/9xyZiriPiMWrIZBHqMVWZEasf7081j3WSxFzfDhw43oWuv6jXugQcBcihANVHSvDUXx0EMPVcLJFqDKs//AgO7IdQr3zv877rjDyIrViAWtdRY9pZEZaJCZigjGyKZ4ywzEzNwO0HFm6hiFb2zgpxd6xiiG+iMuuV/QiAVqyJuRIwGD7nkcmQSAN0YJSVQGrrKH1Fx11VV2AkM7ZSBZbbXVDPXkMHLpY5wiFy8Y2S5g5LQZI3rNGmbqwuTBlfhhirKX2vaNUBtx7QNm++qrr7osGbF4tkZxsuIzDNByA07lW+ghC66hcGW5tWOd+WWDcYjawho4ZTU2rFd3fvw8ywln1ihK9oQa0YkaUbmYI444wjDG+cQklDaRlZyRpUg2sgYJ+hMJYMWdvPrM1X1gLIYwkpMdBs656n+RMbsqonZ6SVqyluGeZoBE/OhH2XOEoc3BBx9s94fF00VP2Ldv37hz1bsMMFbMi/4zD6H7wHRe6qPwr1EDJKcjYv9iEiH2cXm86v+uCnpDB4kIEH9pt8VzGgqYc0FuEiFiJ56sR6Zh/s4+TERI6O58YksTuvEQuQMYyHseYqsIIsk0KgtX0jj00EMtHmw1Yl90iNjGxdakI488sgYD5z8vroQTa167tzi09YstGojVOVVJGGXhq+Ky4OrK0hP/27HO/HJyNB39AryzUJa6i8fDOOLOkiUd9mpSL0WvjHOHhYRUBPE88J4k5uUGGuxZwCFpfy7jAN+pzyRqdMxOiq8d3FumM6VxcKMB1rQcH4b8HR0bDJaDGtATcmIHlZJ2SS37UWlwWAE2QqTNvqgiPzbOJxnapOWJkzvoKJTRHbod8o8lL374cTaoI5kBVhlwuX1w6I8ZZOMkW4hsA0/TNRKG8ypJK8sxax999JEd7EP31qIXgXGHjhUjnUaYqTubOK2jlo0reDnjHDCME22QU3HYl5pGeXAlHq6c45CO0F49Bl2Ye9oEksGOesxyVVw9XOmfIYbuyst+Ytlm4l5r/tf73q515hcEmwzwTDKq8f02WnciXbOGeS4uxgXSZI+5I8bGLH3T+ec/8RIPYbNQEjMlLIsb4oobwbl4l1lmGfsd/WqIio7ZoTjbwa0lzJSOxYBPhfBzDMW9+/9ZtSaZVwOgiEBsHM3aNlJmpWF97MoKM08iZxiCX39ghaH42yM4PIFtKviLX2iN4Q/3oaYNeC59Bk5W7BwAkUYMgMRJeqxiZZ+vPRWF1SnWjFz9xIBP5wlRI8yUwx9IL+1otLJxJe8clkC6XFzMJMERE0AwAN96lBVX4mGgIj3OQWWiwh2OME7qj7Qw0tttt90Sk8QKOM9VcWm4shp3/TU0aWWyRF65eSNU1/W+U4h2rTMfYDdZTbqtyfktUndYDNN3HDFWFr0yjrg43IM6Ir4slMZM3cENrC7jxIlHjEGM26J+iH+27508ZgcL9D/HpjNTwOYGAyqWymAfqTs4GTf/R4VwWkYasSKoJwZOC9/sb5SfFcqQIUPsYOfKSwPFUjfE7ERPV8HFnQSF+TkDXPy4rgEDBli/dEpHMGpwCg10zk/8P1ssyFuSOBiGCbPs3bu3rSMnRSCM27uLOCjtoOpGmCkzftKgs/vU07giMWFQI22wh1ixMqGp10b9fNbDFb9MHpG2sM+XYxOxcCddJjj0CZ7FKK2m7l06WJvmvSouCVfidGe7km7o4mZXj3wPHW+Y9L1T6szh6k6J8leJ7pv7X6TumAxzWljcWtidfOakV7Q59ulnJU4Mou2gdstKacyULXuMJ7RFJmE+bbHFFrZ9+id1+d957rQxO57/pPemM1N3lJR/GAONB3dWMXRIKgn9BBuS04gLYvGfZVWQFk8zv1FumAyNG9Ehek7+8447+7jihGiXVSJlZcM+Ihs6nVjxxr3aY/ycTgP82ACOPvaDlMPzayIRBze4hq4/wj8iTe4X9eNlXyp55Ee5ksRALj03yObRmXJ9GeWLb5zvaVzJM0cYUjbE7uQZxoguKg/Vw5W4qC9WQY6YQLmVIX2D66JC247wT1+CCee9Ki4JV+J0Eyf6Z+hMZNoZ7ZHVT2gPZtL3TqkzMIBgIkgE4vvB//v1v3+L1J2vL/XjLHJlHPFw3yftVqx//WhTn9OYKQGZZLMIYhU6cOBAezk4k2vSwcYDBh6iThyzQ+UIuTWdmdLZfDGGnynEZ6zakgYK3y/P7MtEtIS4sduJQ6W5HQdGyiA0dOjQxCKz4qdRs2pERJz3ZhMiZiXmBu5QQhhHYHQTJwZ+2b5TM7uO++M9LzMFA7GIjfr37x+KriG3PLhyOAW48mOFxq0WeakersT3sOg644SolX3YadIF+g8SAlYuea6K6wlc4/kv873Zdebn3V3BFqoj/IXcs9QdYeP6UtwcNXplHOHdqUVp6jKXjvtfj5nij0kW+0gxeGRFOmjQoMQz1F283TxmN52ZOlCL/mdlwIouTeRSNI1ODe/0X4hbnVi4kbK41UpWPUveNPIyU7eqc2LWvOmV4d/pnrIctZiUXk/gCiNt9Kq4dsA1Casy3MuoM5cPt8pL09k7v3n/l31lHOnDyBknfbVPlnxlYaZZ4vH9dPuY3bHM1Cn5OadSqRoBDIFYPWW5WaU6ZPUb16ahJwwZnVT7zP+GGMjdGJTlejb8I7pkYGRG3CpitQ+2WW/fCOWzbFwxTGr0qrh2wTWEU1luZdSZnxewRryJNX0ZRHvuiSvjyJs7zayeyixejp5gpt0+ZncsM5WbG6xuKd4I9D2KuMaNAZ8OWpTQgyJa5VLfMqjRq+KwaEXsjFVrqwj9MLiiKy5KZeJa5Kq4dsC1KJZp4cusM5cOcaJe4rD2ooSYFD0sP2c7gRonRHmvjGPbGsZrSELyUk8w024fszuSmaIDxAgl7XCCvI2nm/xjBFF09eTwwOgCQwMOZWiVbhpDK+qbgz1aSVhFg2vRFT9lUFybU5Nl1pmfY6yWaQus/NqREPuzP5+9/Gl69qS8l81M/w1jdkcyUzm2za5SmCEqVSPgrOWw/iyLwBlDJsRbzSbS5oDxrKcx9VT+nEUrAyiGYGWQ4loGislx9ESd+alhyY24N8mg0vfb7Gf2IGNhHb/RKWs+ymam/4YxeyQZHHqMuMy1X79+pccv20jseb6yWio97k6NkHNNOQeT81hlG429bFxEPEb2rxYuEjiL4YU9k3TYe8MKx5cnAg4Jl72z9lzaPOHK9Muh8TI5MXIwiD03evDgwfYiATmEoVAy/3ZcC4FXJ3BP1ZmfrBzeYORACnvJgO/e6mfZv2svXZCTmsxCCy/UUHb69OljxGq+7uUIWSP/N4zZvZipZAVE/SkCioAioAgoAopALQI9ujKtTU5dFAFFQBFQBBSB7kNAmWn31amWSBFQBBQBRaDJCCgzbTLgmpwioAgoAopA9yGgzLT76lRLpAgoAoqAItBkBJSZNhlwTU4RUAQUAUWg+xBQZtp9daolUgQUAUVAEWgyAspMmwy4JqcIKAKKgCLQfQgoM+2+OtUSKQKKgCKgCDQZAWWmTQZck1MEFAFFQBHoPgSUmXZfnWqJFAFFQBFQBJqMgDLTJgOuySkCioAioAh0HwLKTLuvTrVEioAioAgoAk1G4P8BXK8w8RtlqXIAAAAASUVORK5CYII=;" vertex="1" parent="1">
          <mxGeometry x="293" y="490" width="301.29" height="40" as="geometry" />
        </mxCell>
        <mxCell id="BSYq-ft0iuZ4jn7_VfeT-13" value="" style="shape=image;verticalLabelPosition=bottom;labelBackgroundColor=default;verticalAlign=top;aspect=fixed;imageAspect=0;image=data:image/png,iVBORw0KGgoAAAANSUhEUgAAAGAAAABfCAYAAAAXtMJAAAABWWlDQ1BJQ0MgUHJvZmlsZQAAKJFtkD1Lw1AUht9opKBVrDg4OGTzg9aPND/AtoMUHEKt+LGlSU3VNF6SiLo6ODk5dHZR6CpCFwdHNwdBxV/gXuii5Xpuo6ZVDxzOw8t7zz3nAH2ywZgjA6i6gVdYziobm1tK7A0S4hiGBsUwfZbR9RWy4Lv2RuuJ3BSPKdFr6VypP0i1CWf+9KR2nUv89ffEoFX2TaoflLMm8wJAmibWDwMm+Ih43KOhiM8E2yFfCC6FfNPxFAs54nviUbNiWMQvxMlSl253cdU5ML9mENPHy+7aKtURykkUoSINCyksYoFu879X63hz2AfDMTzswEYFARRkSGFwUCbOw4WJOSSJVeqmQhM3/n27SLNo5/QYfZWJtN094DYPJLKRNtWkNS6BuzozPOPnolJL9rfTashDDWCgxnlzHYjNAO1nzt8bnLevgP5Xetv6BCvHYEcZkVR2AAAAYmVYSWZNTQAqAAAACAACARIAAwAAAAEAAQAAh2kABAAAAAEAAAAmAAAAAAADkoYABwAAABIAAABQoAIABAAAAAEAAABgoAMABAAAAAEAAABfAAAAAEFTQ0lJAAAAU2NyZWVuc2hvdAbmBsMAAAI7aVRYdFhNTDpjb20uYWRvYmUueG1wAAAAAAA8eDp4bXBtZXRhIHhtbG5zOng9ImFkb2JlOm5zOm1ldGEvIiB4OnhtcHRrPSJYTVAgQ29yZSA2LjAuMCI+CiAgIDxyZGY6UkRGIHhtbG5zOnJkZj0iaHR0cDovL3d3dy53My5vcmcvMTk5OS8wMi8yMi1yZGYtc3ludGF4LW5zIyI+CiAgICAgIDxyZGY6RGVzY3JpcHRpb24gcmRmOmFib3V0PSIiCiAgICAgICAgICAgIHhtbG5zOmV4aWY9Imh0dHA6Ly9ucy5hZG9iZS5jb20vZXhpZi8xLjAvIgogICAgICAgICAgICB4bWxuczp0aWZmPSJodHRwOi8vbnMuYWRvYmUuY29tL3RpZmYvMS4wLyI+CiAgICAgICAgIDxleGlmOlBpeGVsWURpbWVuc2lvbj45NTwvZXhpZjpQaXhlbFlEaW1lbnNpb24+CiAgICAgICAgIDxleGlmOlVzZXJDb21tZW50PlNjcmVlbnNob3Q8L2V4aWY6VXNlckNvbW1lbnQ+CiAgICAgICAgIDxleGlmOlBpeGVsWERpbWVuc2lvbj45NjwvZXhpZjpQaXhlbFhEaW1lbnNpb24+CiAgICAgICAgIDx0aWZmOk9yaWVudGF0aW9uPjE8L3RpZmY6T3JpZW50YXRpb24+CiAgICAgIDwvcmRmOkRlc2NyaXB0aW9uPgogICA8L3JkZjpSREY+CjwveDp4bXBtZXRhPgq0LFSrAAAKK0lEQVR4Ae0cV4gUS7DuzDnnnCPmHDGHZwIDmNMZfgTRD0FFwQ8TgiII5pzQM6MYQFER35kFEyLmnHPWflXzmHozt7uzPTu99t6jC4ap6amu7q6aTlU1nSQQwIA2CSRrK9kUbEnAKEDzh2AUYBSgWQKaizc9wChAswQ0F296gFGAZgloLt70AKMAzRLQXLzpAUYBmiWgufjMqsrftWsXPHz4EPr27QslS5ZUxVYrn+/fv0Pq9lRISk6Cfv36QZYsWdTXh6yhQeHEiRNkUbWurl27BmWXMPmnTZvG7Zo6dWpc6qVkDrh58yZ/Gffv32c8oyM3btzgJixbtgy+fv3Kz6oQJQr48OED1+fz58+MZ3Ske/fu3IRXr17B1q1b+VkVokQBqiqTaHwGDhwIBQsW5GqtXbuWcVWIUYCHJHPkyAG9evViitOnT8O9e/f4WQViFBBFimPGjGEKWhUtX76cn1UgRgFRpNiiRQuoUaMGU23ZsoVxFYhRgIQUhwwZwlR37tyBI0eO8HNQxChAQoKjR4+GnDlzMuXKlSsZD4oYBUhIsFixYtC2bVumPHToELx//56fgyBGAZLSo15gw7t372DDhg32Y6C7UYCk+Pr06QMlSpRg6nXr1jEeBDEKkJRepkyZLIOcTX727Fm4fv26/Rjz3SjAh+jGjh3roib7UFAwCvAhwdq1a0OjRo04x/bt2+H379/8HAtiFOBTasOGDeMcjx8/hj179vBzLIhRgE+pkQLy5s3LuVavXs14LIhRgE+p5cuXD7p06cK5jh07Bi9evOBnv4hRgF+JIb3TQPfp0ycI0guU+YRjaIevLG/evIEdO3YAed8ePXoE2bNnh/Lly1vm4rp160rzOn/+PCxevBh+/PgBHTt2hFGjRknntQk7deoEFSpUALILEWzcuBGmTJliv/Z3V+HoXLhwIftOUSgqWDIP3HWKQYMGidy5c3MZ2EIX3qZNG4GK4TyREBwqRKlSpTgv2vvFt2/fIpF7ppOP2FkP3Bd40kd6CZFe+EmPlwLS/k4TFStWdDXU2WgnjhOjmD17tvj161fYquNyUeDY7eLVoEGDsLQyifj1i6xZszK/lJQUmWwhNAmrgKVLl4pcuXJxA53C9sLr168vcJgJaej48eNdvOjrRw9XCJ2fBDTQMc/ChQsLdNr7yW7RJqQCTp06JdD8y43zEni4dyTcnj17ChzrBcYric6dO4fwUhFmgj5iF9/169dnfAW8fftW4ATnalg4IQdJ69atm6AhKSh8+fJFFCpUiOvavn173ywTbhk6c+ZMXl2gkJVDkyZNrNVUUlJSYN60EuvduzfzwZ4LDx484GcZJOEUsHfvXpl6e9Lg3BH2fZ06dYCcKRTtoAqcewJcUcGKFSt8sU6ofcDdu3ddXz8JqmXLlkBfLXmlyC2YnJwMuPqAbNmyAQmazAJ05c+f37rnyZMHtm3bZm2WaJNkQ7169eDo0aMWnZ2m4t6sWTOoWbMmXLt2zWJHTvtZs2bJs/Y9aIXJoGoZSktI7NKiXLlyolq1agK3+WFK806aN2+ea3mIkhBNmzYVuJHzzhjg7Zw5c3geoPL81DshV0GxyII2VCNGjHAJgoRBwcI0WcYTnj175lq1YUSddHEJNwfI993/KJ88eQKtW7eG9KGDqBDYv3+/Zbb4j1o9VrRoUWjXrh0zPnDgAHz8+JGfvZAMr4Djx49bTpIzZ85wO2l+mDt3LqxZs8aaM/hFHJH0TnuyD0mBdF/xIFQ1B3gUEfYVjb206cKG8lWgQAGxe/fusPTxTPz586coXrw416NDhw5SxSXUKkjqi0Ei3KwBRavR8OKEqlWrws6dO6FWrVrO5D+Ck9Oe9gU20JJUBjLcEHThwgVAI1qI8Hv06AHnzp3TInwS9MmTJ4GW0Tbg5G+j3nepfhKF6E8NQatWrRJk9cQW8YVfncB1d5Qaxv819kiuE9mxnj59KlVohliGYli4wJAQbqCtAPwZUGCgrFRD40mEGz5Bc49dL7I1yULCzwEvX74EikojO4sTWrVqBRQWghOfM1kLTise8tjZ4FwR2WkR77Ka8qKL1xB09epVUalSJf6ysBEic+bMYuLEiREdL171xKWqoKFi6NChAv/38iL19a558+ZcR+qVtCKShYQdgg4fPuwy9ZLwMSJBbN68WbZtLjraKZctW5YFRUOGCsA/Ka2PgupH14QJE3yxTUgFbNq4KcQHTD6Cixcv+mqck5jMA7aQ6E78VMCkSZNcfKnX+oGEU8CiRYsE7mRdjWrcuLF4/vy5n3ZZtDR5415BNGzY0MWPFIDREL75pc9AxkOnk5/q6RcSahKeP38+4N/pgGMoyuhfQHeiZV7Gxlp/KJKNhf5Lprt9kdnZmUYT4pUrV6zoZec/zDZPMlXgl2s/xnwn3wWFyNgwfPhwG5W/+9VYOHoVkzCZkbHWIRdNuuHSg6Sp+PpJDrj547rR/EQhNH4hIYYgDPN2TWRBhBstL03Er1+/9iunEHoaEp1RGwMGDAihkUnQboo4ePAg4LLSNeygEOMC5C1LTU0FXAEF5o+7cnB63JyuSV/MZbQUjSbWIQgP9hAUT4MVdl3oPhT4Q7RA24q4dOmSoBCScHTp83k9U2QdCj9aU6TfoxuS60zBY7GC1iEInRjcCBIe2XVmzJgRdpOFTheBxwa46L0E7nxHa37sabHKKCQfBXQ5+U+fPj2ERjZBmwLQjOBqBDVoyZIlUetN+UqXLh2S1ykQJ05xo7dv347K1w/ByJEjuXxaMuP5EX6yu2i1KQDjf7gRJDA/kWq02qBYTBzTXTxswVPMJgk+1l2zS0LpHlQEYzlZatsHTJ48GWhtT+v06tWrA8ZuovzkgMJQKP5mwYIFQGvxW7duWU4aOiqtcuXKgBsvK3Rdjps/Kgo7obODbCC/cyBwaiNWPNZJONbydOZD5z/3uiJFisQc3m63QfsyNNDX84cz41wCaWlpXCqZySlILAgYBfiQHp0VRGcG2TBu3DgbjfluFCApOhwywHlWEMWZ0lwTFIwCJCVIO3bniZDOM4QkWYQlMwoIK5bQROcZQbirBl9ux1B2nGIUwKKIjJB523lKFgZduU5TjJwz+hujgOgysv4DdvoVUkanSOSSIzEKkJCT83CmMmXKwF89/pLIJUdiFBBFThSJd/nyZaZCuz+o+L3JZmgUYEsiwt15JhB650DF2t9ZlFGAUxrpcNp00bH8NtCvUlWqVLEfldyNAjzESP+aOU9CCWx4C1OWEgU4/zoMahsJU0dtSfv27eOyyY05ePBgflaFKFEArQxsoL8Z/y+Ajh9uSv/+/V2Ht/KLgIgSfwDFwlM8Dx3hNX6cvF0/YN3jnp3aRMfa0O+wMR9HE6WWSWSXjkJjXsdRAkqGoDjW73/P2ihAs4qNAowCNEtAc/GmBxgFaJaA5uJNDzAK0CwBzcWbHmAUoFkCmos3PcAoQLMENBdveoBmBfwDZ0BwmGlQ9K0AAAAASUVORK5CYII=;" vertex="1" parent="1">
          <mxGeometry x="601" y="440" width="80.84" height="80" as="geometry" />
        </mxCell>
        <mxCell id="BSYq-ft0iuZ4jn7_VfeT-16" value="" style="shape=image;verticalLabelPosition=bottom;labelBackgroundColor=default;verticalAlign=top;aspect=fixed;imageAspect=0;image=data:image/png,iVBORw0KGgoAAAANSUhEUgAABI8AAADeCAYAAAC0aCBDAAABWWlDQ1BJQ0MgUHJvZmlsZQAAKJFtkD1Lw1AUht9opKBVrDg4OGTzg9aPND/AtoMUHEKt+LGlSU3VNF6SiLo6ODk5dHZR6CpCFwdHNwdBxV/gXuii5Xpuo6ZVDxzOw8t7zz3nAH2ywZgjA6i6gVdYziobm1tK7A0S4hiGBsUwfZbR9RWy4Lv2RuuJ3BSPKdFr6VypP0i1CWf+9KR2nUv89ffEoFX2TaoflLMm8wJAmibWDwMm+Ih43KOhiM8E2yFfCC6FfNPxFAs54nviUbNiWMQvxMlSl253cdU5ML9mENPHy+7aKtURykkUoSINCyksYoFu879X63hz2AfDMTzswEYFARRkSGFwUCbOw4WJOSSJVeqmQhM3/n27SLNo5/QYfZWJtN094DYPJLKRNtWkNS6BuzozPOPnolJL9rfTashDDWCgxnlzHYjNAO1nzt8bnLevgP5Xetv6BCvHYEcZkVR2AAAAYmVYSWZNTQAqAAAACAACARIAAwAAAAEAAQAAh2kABAAAAAEAAAAmAAAAAAADkoYABwAAABIAAABQoAIABAAAAAEAAASPoAMABAAAAAEAAADeAAAAAEFTQ0lJAAAAU2NyZWVuc2hvdA5w/T4AAAI+aVRYdFhNTDpjb20uYWRvYmUueG1wAAAAAAA8eDp4bXBtZXRhIHhtbG5zOng9ImFkb2JlOm5zOm1ldGEvIiB4OnhtcHRrPSJYTVAgQ29yZSA2LjAuMCI+CiAgIDxyZGY6UkRGIHhtbG5zOnJkZj0iaHR0cDovL3d3dy53My5vcmcvMTk5OS8wMi8yMi1yZGYtc3ludGF4LW5zIyI+CiAgICAgIDxyZGY6RGVzY3JpcHRpb24gcmRmOmFib3V0PSIiCiAgICAgICAgICAgIHhtbG5zOmV4aWY9Imh0dHA6Ly9ucy5hZG9iZS5jb20vZXhpZi8xLjAvIgogICAgICAgICAgICB4bWxuczp0aWZmPSJodHRwOi8vbnMuYWRvYmUuY29tL3RpZmYvMS4wLyI+CiAgICAgICAgIDxleGlmOlBpeGVsWURpbWVuc2lvbj4yMjI8L2V4aWY6UGl4ZWxZRGltZW5zaW9uPgogICAgICAgICA8ZXhpZjpVc2VyQ29tbWVudD5TY3JlZW5zaG90PC9leGlmOlVzZXJDb21tZW50PgogICAgICAgICA8ZXhpZjpQaXhlbFhEaW1lbnNpb24+MTE2NzwvZXhpZjpQaXhlbFhEaW1lbnNpb24+CiAgICAgICAgIDx0aWZmOk9yaWVudGF0aW9uPjE8L3RpZmY6T3JpZW50YXRpb24+CiAgICAgIDwvcmRmOkRlc2NyaXB0aW9uPgogICA8L3JkZjpSREY+CjwveDp4bXBtZXRhPgpZx6HrAABAAElEQVR4AexdBdgWxdoesI+KekxMFFABEZsQO7AbQcFAxdZjKyYcFTFA9NhxRAUbk1COKCAGKCYqCgoWdqKYx/2fe84/6+6+2/Hm/VzX9+2+03PP7Mzss080sYQUiQgQASJABIgAESACRIAIEAEiQASIABEgAkSACPgg0NQnjEFEgAgQASJABIgAESACRIAIEAEiQASIABEgAkRAI0DmEScCESACRIAIEAEiQASIABEgAkSACBABIkAEiEAgAmQeBULDCCJABIgAESACRIAIEAEiQASIABEgAkSACBABMo84B4gAESACRIAIEAEiQASIABEgAkSACBABIkAEAhEg8ygQGkYQASJABIgAESACRIAIEAEiQASIABEgAkSACJB5xDlABIgAESACRIAIEAEiQASIABEgAkSACBABIhCIAJlHgdAwgggQASJABIgAESACRIAIEAEiQASIABEgAkSAzCPOASJABIgAESACRIAIEAEiQASIABEgAkSACBCBQATIPAqEhhFEgAgQASJABIgAESACRIAIEAEiQASIABEgAmQecQ4QASJABIgAESACRIAIEAEiQASIABEgAkSACAQiQOZRIDSMIAJEgAgQASJABIgAESACRIAIEAEiQASIABEg84hzgAgQASJABIgAESACRIAIEAEiQASIABEgAkQgEAEyjwKhYQQRIAJEgAgQASJABIgAESACRIAIEAEiQASIQMMwjz788EO17bbbqs0224yjTgTUxRdfrFq2bKlGPTaKaBCBsiJQrWsRn4myToPAyio5PzgHAoel8IhKjrtf5zgX/FBhGBEgAkSACBCBxkagIZhHb731luratat6+umn1ZprrtnYI87eawRat26tPvnkE9V9/+7qpptuIipEoCwIVPNaxGeiLFMgtJJKzw/OgdDhKSyy0uPu1zHOBT9UGEYEiAARIAJEoLERWKC/UD1DgEPZNttsoz799FPVoUMHNWbMGLXgggvm3uX3Zr2npk2bpqVZci88xwJ//fVXddddd6mrr75aXXDBBer2229XL730kmrfvr1aeumlc6ypuotq166dngdPPPGEevzxx9Wyyy5LqbTqHrKab1251qK0QPGZSItcPvnynB9p13nOgXzGMkkpeY57VL1JzimcC1FoMp4IEAEiQASIQOMh0MQSyqPb9913nxoyZIjCoTUpNWnSRK2wwgpaKmittdZSrVq10pJCyy+/fNKiXOm///57temmm6qZM2eqZZZZRk2ZMkXha1oRtMUWW6jJkyer+fPnq8UWW6yIKjKX+cILL6g+ffqoGTNm6LKWXHJJNW/ePH2/1FJLqXFPjFObdWwstb4999xTPfroo+pvf/ubeuSRR9T222+fGWcWoFQ1rgeVHJdyrkVZ+1nkM8F54T86ec6PPNZ5zgH/cco7NM9xj9O2NOeUIudCnDYzDREgAkSACBABIlBFCIB5lAf17t0bTKjc/oSZYR199NGW2AFI1bw///zT2mGHHez23H333anKiZPp559/tpZYYglr9dVXj5O8ImkGDRpkCVNL4/H3v//duv/++63//ve/1htvvGEtt9xyOrxt27aWMP8q0r5KVSqHd0uYlbr/wsC03nvvvUo1pa7qrbb1oJLglnMtyqOfRT4TnBelI5Tn/MhrneccKB2nvEPyHPc4bUt7TilyLsRpN9MQASJABIgAESAC1YNAbpJHcsBQr776qpa8+eyzz9SwYcPUpEmTXGwySAGdddZZqlmzZgrSRr///ruWVPruu++UMDH034svvqi+/fZbO9/iiy+u+vbtq6688ko7LM7NgAEDlNHIO+qoo9QNN9wQJ1uqNOPGjVPdunVT++23nxKmTKoyisx07bXXquOPP15XIYwjNXHiRLXeeuvZVQ4cOFCdc845+veZZ56p5AXEjmuEG8zbrbbaSv3www9aUm3q1KmN0O1C+1ht60GhnY0ovJxrUURTYkcX9UxwXpQOQV7zI+91nnOgdKzyDMlr3OO2Kcs5pai5ELftTEcEiAARIAJEgAhUCQJF8bHOP/98W+pHuqrvX3vttcjq5s6da+2xxx4leYXpFJnXJBBDyBYkl1Dv+uuvX7g0zRlnnKHruuaaa0wTquYKiatFFllEt09sPVmiNlLStpdfftnGe+WVVy6Jb4QAYTTaGIgB7Ubocln7WMn1oKwd9VRW7rXIU32mn+V4Jhp1XpiByWt+FLXOcw6Ykcr3mte4J2lV1nNKOeZCkv4wLREgAkSACBABIlB+BFRRVYqRavtlHEwc8XKWqKrTTjvNlR9liHHnWGX06NHDznvPPffEypMlUadOnXR9YksoSzG55501c5bNRAN+3bt3963jjz/+sBlMSDd9+nTfdPUcKNJvltjF0uO40korWfhNyg+BSq4H+fUieUnlXouStzA4RzmeiUadFwb1POZHkes854AZqXyveYx70hZlPaeUYy4k7RPTEwEiQASIABEgAuVFoBDmEZgRRvIHzAj8HXDAAYl69tNPP1lixNhmAqEMMWYcWcZzzz1nLbzwwjofbBDBrk+RZOwIrLLKKkVWk6rsrl272viJJzULUl1B5ByvK664IihZXYcfd9xxNl7HHHNMXfe1nJ2r5HpQzn566yr3WuStP4/fRT4TjTovzLjkNT+KXuc5B8yI5XPNa9yTtCavc0qRcyFJf5iWCBABIkAEiAARqAwCTYUpkzs9//zzCrYtnCRfmJ0/I+/h/Qoe2JwEl/LCDHIGldyfffbZ6rffftPhhx9+uGratJAu2vXCftCPP/6oOnbsaIdVw82//vUv7f3NtEWkjlTz5s3Nz5KrEyeRPCqJb4SA008/3faUN3z4cPXNN980QrcL72Ml14PCOxdSQbnXopCmpI4q8plo1HlhBiOP+VGOdZ5zwIxYPtc8xj1pS/I6pxQ5F5L2iemJABEgAkSACBCB8iNQCGflySefLOmJeD4rCYsKEM9friQiNq3eeecdV5jzx5w5c5R81dNBcENvjEQ70+R9P378eF3klltumXfRqcsDTmKfwM4vto7UySefbP/2u/nll1/s4EZlmqyxxhpq11131TjMmzdP3XLLLTYmvEmPQKXWg/Qtzp6zEmtR9laXllDkM9GI88IgnMf8KNc6zzlgRi37NY9xT9OKvM4pRc6FNP1iHiJABIgAESACRKC8CBTCPPJ6WWvRooXCXxL66KOP1KefflqSRezRlISZADF0bEsd7bnnngqexYom09c0zLGi2iZqZy6pGTC22rRpE1gdvOOJWLsd75UasyMa4Aae+QyJjS1zy2sGBMwzYooo13pg6qvEtRJrUVH9LOqZaMR5YcYoj/lRznWec8CMXLZrHuOepgXmWcvjnFLUXEjTL+YhAkSACBABIkAEyotA7swjqJW98sorrl6IoUbX7zg/Ro8eXZJMPIEFMoRE60+JcWw7z0EHHWTfF3UDhgtUvMDQatu2bVHVJCoXKnQ4oDrphBNOcP4suZ85c6YrDCqDjUpbbLGFWmKJJXT333rrLVuSrVHxyNrvSq0HWdudJX8l1qIs7Y3KW8Qz0YjzwuCcx/wo9zrPOWBGL/01j3FPU3ve55Qi5kKafjEPESACRIAIEAEiUH4EcmcewY4FxOmdlNTeEfL6qQyFMYSmTJmiZs+erasV1/SqS5cuziYUcg87AmLYW2222WaFlJ+m0KFDh6ovv/zSztqyZUsFKawwevXVV13RTvtHrogG+IG5065dO7unDzzwgH3Pm+QIVGo9SN7S/HJUYi3Kr/WlJRXxTDTivDDI5jE/yr3Ocw6Y0Ut/zWPc09Se9zmliLmQpl/MQwSIABEgAkSACJQfgdyZR3nYsRg7dqyaNm2aCw1I9px11lmuMOePp556yv7Zcq2WtvSIHZjTDWwDTZ0yVd14441qyJAhulQY6K4WI9PDhg1z9XSvvfZSTZo0cYV5f3iZR8suu6w3SeG/YQtixowZudXz8ssvq6uuukoZcf0kBXfu3NlObmxo2QG8SYRApdaDRI3MOXFea1E9PxONOC/MNMtjflRinc97XWy0OZDHuJs5FHUt+pyS91yI6g/jiQARIAJEgAgQgSpBQESpc6Vtt93WdncuXbTEwGKi8j///HNL1NNcZay55prWJ598ElrOzjvvbOc58MADQ9Mmjfzhhx8sYRZZIq5tLbroonY96J/zb8UVV7R222036/rrr7f+/PPPpNVkTg8XwM724H7ChAmR5W600UaufKecckpknjwTPPTQQxrXZs2aWRj/rDRgwABLjITrPi288MKWvKQkKhLtMTiKCpslB/FE+Zn4LwQqtR781YLy3+WxFtX7M9GI88LMxKzzo1LrfN7rYqPNgazjbuZP0LWc55S850JQnxhOBIgAESACRIAIVBcCKs/m/PHHH9bSSy9tv3jjBbxHjx6xq3jvvfcsURly5V9llVUs8bAWWcYKK6xg5xOR/sj0cRPcd999ltg0sstebrnlrIMPPti65JJLdNjyyy9viYqddeSRR1qIM0yHjh07Wm+//XbcanJJd+yxx9r1ox1oj9gWCS1b7CFYYuPIle/yyy8PzZNnJBgzawiDEe3F3Pn6668zFS9e0kr6c9JJJyUqU9QuLRHNtzFJynxKVFkdJ67kelBJWLOuRfX+TDTqvDBzMuv8qNQ6n+e62IhzIOu4m/njdy33OSXPueDXH4YRASJABIgAESAC1YlArsyjyZMn2y/cholyww03RPYcDIPTTz/dxXgCQ+P444+3xPNXZH5IJZn6cH3ppZci80QlQJv2228/u1zx3GaJdxtLbBzprObL27777msXJd7hrL333tuVR4wu2/FF3kDSCYw2Jw5i6yiySjBGnHlw/8wzz0TmyytB//797fqvueaazMViviy11FJ2meiP2L9KXO5aa61ll4FxJyVHoFLrQfKW5pcjj7Wo3p+JRpwXZoZlnR+VXufzWhcbbQ5kHXczf7zXSp5T8poL3j7xNxEgAkSACBABIlC9CCwoL9e5kZ8NA3jukoOiXYdAob766isF9/AffvihErUq9dprr9mu4kUtTMG1/JVXXhnbg5nXW1hWz2fCGFLCuFJz587V7V5ttdXUqFGj1Prrr2/3w9gvcBoDh9e1Bx98UHXr1k2NGzdOffPNNwo2h1588UUlKll23iJuYLdIDqiuooHtTjvt5Arz/vDmgaexchkA/+KLL7RdIrQJY37cccd5m5f4N3A+5JBD1NVXX23nlRcu+z7uzTLLLGMnhe2ZPAk2vU499VRtbD3PcqPKgu0reCx8/PHHC5+PaEul1oMoHIqMz7oWNcIz0Yjzwsy5rPOj0ut8Xutio82BrONu5o/zWulzSl5zwdknc98oe6TpL69EgAgQASJABGoGgTz5Wl4bBgKCLb0RdQ/bNGLgOJXNG6iNmfIXX3zxTF0SQ6QW2mLKgxrdRx99VFLmBhtsoNP4qdQJU8ySg5VdBmzwFE3AzrQ5yxX2j8pFRsICkkJQWcyLoPaz8cYb23gIYypx0dttt52dH3as8qRDDz3ULjvLWKXNK4zQPLsTWFal1oPABpUhIuta1AjPRCPOCzP1ss6PSq/zea2LjTYHso67mT/mWg3nlLzmgumT89ooe6Szz7wnAkSACBABIlALCOQmeSS2dRQ8XDlpq622Uvvvv78zSCHd7NmzlahzqVdeeUXhSzsIHsseffRRdcABB7jSx/nxwQcf2MkgOZOWIJEB6Re0BdSpUyf1xBNPlEhpiGFK7Rls1VVXVWuvvXZJdZBUElUpNXr0aB0HzzjnnXdepNezkoISBMANsJPQtn79+jmDSu5FBU+dccYZrvBySR2h0uHDh+u6DzvsMCUi8K52ZPkBV8IXX3yxLXUFaZukJPaX7Cxe6Sw7IuXNhRdeqIRhpn788ceUJaTL1rRpU7X66qurXXfdNV0BCXJVcj1I0Mzck2Zdi+r9mWjUeWEmWtb5Uel1Po91sRHnQNZxN/MH12o5p+QxF5z9ct43wh7p7C/viQARIAJEgAjUDAJ5cbj8bBjceuutocVDX1/UulxSGJtssok1f/780HzeyJNPPtkuA3r4aQgGIJ1e3hZbbDEryF6RqKbp+pz2jrx1nnnmmXabZDJYs2bO8ibJ9fe6667rqq9nz56R5UMCBW1z/o0fPz4yXx4JRG1B17vkkktaosIYWSRsfaBt06dPj0yLBEjfvHlzXcf5558fK48zUd++fW1cWrdu7YzifQwEKrke+DWvV69e2qYapNzS/glT2IKh3zDKshY1wjNRiXkhHyT02MMbpjBPLWH4W3imcY8wSInCaH8c6tOnj04PJwotWrTQ5WBewDkB9q4oyjI/UHal1/k81sVKzIGgcRGVeT0H0q4JJt9ll10WVIUOzzrupvBqOqfkMRdMv3glAkSACBABIkAEagOB3CSP/GwY7LjjjqFMNDFCrW0EbbjhhtruERKLsWslruKVuLsPzeuMhASNIWFGmNtEV9igMTaOkBESU23atPEtw8/ekTehvJS4gma9N0u1bNXSFZbXD5lqWprLWR5sCEXRmDFjXEkgMeW04eSKzPnHiBEjdIndu3dXXqz8qhJmnBIvcAo2tL788kt99UtnwmDfB3NBjJirrl27muDYV8xNQ6IGZ255jYlAJdcDbxMhKfjII4+USHpBIk08IOk/2MrCnHHS/fff7/yptthiC7XAAgu4wrw/sqxFjfBMVGJeiOdLhWf4448/1vbnnGMmTB/VuXNnlz07Z7z3vkOHDmrixInq/ffft6Ng+6V9+/axJPqyzI9qWOfzWBcrMQfswfLcQCr4888/d4Vi38DagLmBP1Fjd8VjTxEGmB0mH5oi980s425XJDfVdE7JYy44+8Z7IkAEiAARIAJEoPoRyI15JB66XL1t2bKlgupUFOGF7YQTTlBHHHGEnVQkTOz7ODfibt5OloZ5BGbE3XffbZeBF8mBAwfav7035uC4ww47eKPs32LDx77HDYxnF0UwQP7rr7+6io/DBPIe4vfYY4+SF2hXoTn+eP7553VpYApFEQxe33bbbTqZSKVptUIwkcIIqod4WYQB9s033zwsqW+c0xjoggvm9pj41lWPgZVcD7x4OhlHmA+Y51BPDWOwQu3RyTwSqRJ11113eYsu+Z1lLWqEZ6IS8+If//iHwh9IPGiqkSNH2uMGxjIMD8cllAPGEQzyY68RiRL9Qh/XIUKW+VEN63we62Il5kDQ+Do/oLRq1UodeeSR+izi7KczLz4wOdcNqEiLR1mF9SGMsoy7KbfazilOjLhHmlHilQgQASJABIhAfSPQNI/u+dkwgL2guCQu5l1J4ZkEL/5xySkxgK+zSQmMCTAlDImxRv3l0fx2XsUVvLZ3BCkdP3tHJi1sOjkpDiPNmT7JvbEbZfLAFsE666xjfvpe4eHu3XffdcXBS1k5CO2dNWuWEtWRUAxNW6ZNm6Y99OE3pJScthZMGu/11Vde1WMKHKIYTd68+O2cU8YGll86hpUiUOn1wNuihx9+WAeBcXTTTTepe++91/UC6E0/ePBgde6559rBkDb5z3/+o5kFdmDAjXPeJFmLGuGZqIZ5gY8CeOE3BK+Y8PoZl8BswBxafvnltQdOcYZQYhMvrKy08wNlVsM672x/mnWxGuaAGZ8ZM2YocXihf2666aYK+8zpp5+unEwRkxZXSCiJoW9lPgxBIglMxIMPPtiZzPfeiVuSdcFZWLWdU5x9SjMXnH3jPREgAkSACBABIlAbCOTCPIIRz2+//dbV4ziSLyYDDGh7yWlg0hvn/e1kDqQxQgyj2E7q1q2b86frHiprUIGAKkQYeRkz+KpZFHnF7lGX82DnV+8111zjCoZ0Dg7Q5SBgKLZjtFHxOPVNnTrVThaXKfnU00/pPGHSYXahPjdgEhriV1WDRLxrpdcDZyt///13NWHCBB0ECYGDDjrIGV1yf+2116qzzjrLDm/bpq2ChF4chiUypV2LGuGZqIZ5AYa/c03AR4MrrrjCHu+wG4wRHDpAlQnSM04JlLB8zri08wNlVMM6n3VdrIY5YMbDSBaCOQxp5zDpMUgOi3cxm9mEPQFq1JBUikNZxt2UX23nlKxzwfSLVyJABIgAESACRKB2EMiFeeRVf0L3o+wdOSEyamDOMHzZjUvOg9m8efPiZrPTffTRR/Y9bmCDKYjwAgEKY46BceT00AXbSWK8OajIzOFiRNNVBlQGwwgvTGL025XknHPOcf0u8of52gvPX3EIX4gN7bbbbuY28IqvoNddd52OF4PsgenCIpyYQmKFFB+BSq8HzpZCYggvfmD2RknWiYF/bW8NjE0QJOPGPzVeMwucZYbdp12LGuGZqJZ54fUwCVtTUfvGc889p1XeYN8GL/FRkp1BcyTt/EB5zjUJvyuxzjvbkGZdrJY5APwee+wxXNSgQYNCpQrBJIHE0ZtvvqnT4x/UWk888UT7d9RNlnE3ZVfbOSXrXDD94pUIEAEiQASIABGoHQRyMeYyadIkV4/hdh1qXXEJXyO9lITZIh5P7OxOw5R2YMSNUx0ATKuwuo29BufXa2/x/fr1cwXha3WR5P1iGoX97bff7rLBBGbZzjvvXGQTXWWLdzX929tuVyLHD/PFHTZGYMg8iiBhgoM2xrFLly5RyX3jnV9Vl1hiCd80aQNfeeUVJR7gSgw4py0vbj5Io4Fhd/PNN6uFFloobrbE6Sq9HjgbbJikZ599tjO45H748OHq+OOP1/a0ELnmmmtqaQTxqlWSNiwg7VrUCM9EtcwLGD7fbLPNlJFoBHMRkpjedduM88svv6z23HNP1bRpUwW1tbZt25qoxNe08wMVedfLSqzzWdfFapkDeN5ef/11tfHGG6uddtopcBzBVMReDzVvQ/3791deBqSJC7pmGXdTZrWdU7LOBdMvv2u975F+fWYYESACRIAIEIFaQCAz8yirDQMc4owNAQMYbA4kMXyNFz1DaZhH+JpsDkJh0jBIAwkBHNohleBHL774oraFYeLAjDrmmGPMz0Ku3hfcKKktMA+chMNwOckcgmEANopweIctChBe+LwvUN78UFMaMmSIDt5nn30i1fe8+c1vMx/wO+olzeSJe0X7Ro0aFTd57un23ntv/TKce8FSYDWsB85+wZ4NmKMwkh1EDzzwgFY/MV71MN5QY0kz7mnXonp/JqptXsBrVY8ePewpAYYzGAJeb3qQNtlll120mi2e2Y022sjOk+Ym7fxAXdWwzmdZF6tpDhhV+TCmMoxcg7GEPd0QHDxccMEF5mfsa5ZxN5VU2zkly1wwfQq61vMeGdRnhhMBIkAEiAARqAUEMjOPstow8H6JBGhwn52EnOL7sHkEceq4NkpQDwx2my//TlFsbxvwQhll7wgGN53GI//5z38mUnvx1hnnt9fVfZiNHuCNr3qG9t1339AXa5Muz6s5dJov/2FlwxipcYsdZdgWhkh79+6tjL2sY489Nqzo0DjnPGjRokVo2qSReHEF4ywNozNpXc70kDyC4fYipcyqYT1w9vnxxx93/iy5f/TRRxUM5BtvSHDRDVU358teSaaQgLRrUb0/E9U2L7p3767AODAfLrC2QH3NafwYjhtg/w5qvvDQlsZro3eqpJ0fKKca1vks62I1zYHOnTtrVcUgCUx4LwXTEOqKhuBpDypuaSjLuJv6qu2ckmUumD4FXet5jwzqM8OJABEgAkSACNQEAvLCnYnE2wzcm7n+5OU9dpki9eLKi7LEEKlvfpEQsG688caSOPlq7ypDXhhL0oQF9O3b184vHlQskXbxTS7uvXU6MarrG3/nnXfa5aAfcvj0TWcC5YBqibqEhXLFRk9gvSZ90FVc2VsibWTXLV9Gg5Ja4lLYTidMOktUwgLT+kXk0WaRCNJtEK9Hlry8+VVjoU9io8Zuq5lj4inLNz0Cjz76aDu92NwKTBcnQr7y22VdddVVcbIwjSBQDetB3IHAOiESjvY4y8u5NX369LjZfdOlXYvq/Zmoxnlx5ZVX2mOP9UUk1OwxnTNnjrXGGmtYYqvGEm99dnjWm7TzA/WWc50P6meWdbEa54BfP+Xjj4X9w+w5uIphbL+kscOyjLuppFLnFFO/95plLnjL4m8iQASIABEgAkSgNhBQWZspHkhchyz5Yp+oyCOOOMKVHwc1sS9RUoZ8mbeWXXZZSyQDSuIQIBIVdjki7eObJihQ7BnYeVE/mEB+JF5ZdDoxiF0SPXbsWEts49jliIqVJdIMJemcAeaF0RxS5WuoBeZMGtpvv/3susWQp28R4mLaToM677jjDt90YYF5tFnU+Ox2iDcrS6S+XFWKgWxr++23t9MYfHAFw0uMrrrSiwSP5SxTxPstUTdxpUnyQ1QaXHXL1+ck2Rs6bbWsB1GD8PTTT1tih8QeZ/GgZYltm6hsseLTrEXO+VuPz0Q1zguRKNLriXN9wdoyd+5cSzxWWmIQ2rrrrrtijXmSRGnmhym/XOu8qc95zbouVuMccPYP92Is3xKnDPa6gLkh0mjeZKl+Zxl3VFipc4pfZ7POBb8yGUYEiAARIAJEgAhUPwKZmEd4aXd+ucdBS4xDJ+r1aaed5jqoBZUBhhDixHaJb/lix8UuRzxs+aYJC3QeyiGB8Omnn7qSi4i2BUkZsYPiCscPsZdhiS0eu36U9e2335akcwbgS+Tiiy9u50Hf8JeGoYNykc+UsdVWWzmr0vdvv/22Jbak7DTiXa0kTVRAXm2G9JhpK66QmsKBHV93t9566xJcRK3IlV7U8izxdqcZRgceeKAlhrFd8XgRz0Ijho+wyxP1R/1CkaW8RslbTetBGObPPvus61nAc/H888+HZUkUl2YtqudnoprnhdiwsZ91rEXilc8S75gWJFDBbC+C0swP045yrPOmLu81y7pYzXPA9FNsMlmixu2aD+KgQUt8mTRZrlnG3dRb7nOKqdd7zTIXvGXxNxEgAkSACBABIlA7CCRmHuFrLZgIkydPtsR2iuughcM3VLXERo1mnuAwFkXi+aukDDAGnISvXGDo4EAvdnKcUfa9GFi0yxH7AnZ43BscbsWLjl2GeGGx3nrrLTu72LzQcWIrww6DdAukpAwjBG2855577PiwGzHCaecz+XFNw/hCPT/88INmbKEMSEB9/fXXdvVQwRDX0nZ9EH9PQ3m1GW11Mtuc/ffe46sv1DUwpt44v9+dOnVKLb1lMDnhhBPsuvwYcSYdr5ZVretB0NhgDkOC0cwdSB9NnDgxKHmq8DRrUb09E7UyLyD16P0AgrkxePDgVGMfJ1Oa+WHKLcc6b+ryXpOui7UyB9BP7DH4EGHWBVyxt8c5w3hxCvqdZdxNmeU+p5h6vdekc8Gbn7+JABEgAkSACBCB2kQgNvMIKh1xX/idBzB8KQsjqGlB1c2ZB6ppRn0LKmJrr722jocNnCB69dVX7TIgmQJJoaQEhguYX6YtkAwCowWMo169eunwPn36WLCVIe57NTPLpIXkTBL7QRCPh6qMyW+um266adJm2+nFGLa20YGyunbtaonhX+vqq6+2jG0CqGFA0gsH5TSUZ5tPOeWUkr4bDMwVEkemregLmIcmzu+67rrrJhqDIAy6dOli13PuuecGJWvo8GpfD/wGB2sE1B7N3AHTYNy4cX5JddiUF6ZYo0ePDowPiki7FtXDM1GL86Jnz572nMDcCLMZFzTmScLTzg9TR9HrvKnHe427LtbiHDjssMNcc0C8rFmwfeRHCIek4JdffukXHRiWddxNweU8p5g6vde4c8Gbj7+JABEgAkSACBCB2kYgNvNozJgx+uUdL/CQbIGqB17ExAOIJe7ttc0hSN4gHC9lUPECEwdGjKPok08+sdq3b+86vLVr104brTR2hCDxE/UV0Cldk8VWBVQDIMFiXjKDrugr1PTA2EhDEyZMsGBHCUwdqEsAN3EFnaYoOw+YRX5f0oEN1HWyUp5t9rN3BaxhqNZPfe/BBx/0ZbhhrsHOU5SNqTh9B9MSqmpoB+bvO++8Eydbw6WphfXAOSiQIjRMVIwt1hVxve5MUnIPpjWezzSUdi2q9Wei1uYFxtbJPBLPimmGO3GetPPDVFT0Om/qMdck62KtzQHxyuna6yH5LF5VTddLrsOGDdPp8VEpKWUdd2d95TqnOOvEfZK54M3L30SACBABIkAEiEBtIxCbeVR0NyGOD89j8HJiDNmCqdK6dWvrkksusSVQwtpx8cUX24dA2M7JSrNmzrLuvvtuy0gEQFJI3PVqG0eQSgg7YKapGxJYUJfLSlBTA5bi7lZfYe+oKMraZhinxWEcbYVEF1SIwnDFPIHXvdNPP906//zzrUceeUSrUebVv1tuucWeQzBgTqoMAnmsB6blkF4Ek9swgeFBC3MojOCJDenxvKehLGsRn4lgxPOcF6YWp+RrXsaRTdlB1yzzw5RZznW+mtbFPOeA2dvN2gCJXajbhRE+LEEqOY10cx7j7m1buc8p1TQXvFjwNxEgAkSACBABIlAsAlXDPPJ2E1IkUJNKQk6DzpCQ8vOKlqQ8kxaqKzhcwtNYUQT1LEgM4St4rVAttjkKW0h+mRcJqCaQqgOBNOsBWj5b7KVBks2MKRjSMPYaRcbjUlpPe0WtRVHtLiK+mp+JtPPC4PTBBx/YcwNz5LbbbjNRhV5rbX7U4xw4++yzXWMPlfF58+aFjrtRPYM30DRU5LiX45yCPlfzXEgzJsxDBIgAESACRIAIxEegqRyYq5LkJU8tsMACidomXruUHOp0HrFLoK699tpE+YMSP/XUUzpKpJmCkmQOf+aZZ5QcXJV4+slcVrkKqMU2h2EjjAIl9jp0EpEyU7179w5LzrgyIpBmPfj444+VuAdXwiDQLRWGsl4TDux1YGjLp0+frsaPH6/Es6IS6bPQtEGRRa1FQfUVFV7tz0SaeeHESlSOnT/t/cMVWMCPWpof9TgHLrroIjVw4EB7ZDfYYAOFuSDqrHaY382FF16og+VDkl90ZFiR416Oc0q1z4XIAWACIkAEiAARIAJEIBMCVcs8SturAQMGqMUWW0xnF89nCkykrCS2gnQR3bp1y1pUYP4RI0bouPXXXz8wTbVF1GKbwzAUtTk7WgyLK1Fvsn/zprYQEOP1mnEknh91w8V+lcL4imHc0I6AgSvuupVItCgxnh+aNiqyiLUoqs684+v9mRAbbjZk4tFRrbrqqvbvom9qZX7U2xy44oor1HnnnWcPr9hX1MxiUZe3w/xurr/+eiV2jhQYluIIxC9JrLCixr0c55R6mwuxBoyJiAARIAJEgAgQgb8QiC+kVDspYaRbeqj/YE8nC0EtAsZ1RQohSzGheeG1Be7DUUeQh5fQAioQWYttDoMJLrthxwLzBoaSa2UcwvrUqHGYm23btrXXAIypvDBGwgGVEmEQ2/lE+igyT1SCPNeiqLryjm+EZ0IYRvZ4i6Rh3hBGllft86Pe5gAMjcMRgjkfwIB1HC+pMI5tHFHALlJWynvcy3FOqbe5kHUMmZ8IEAEiQASIQCMiULU2j7IMBgxZGs9K8J7z008/pS5u7Nix+qC5//77py4jKmPfvn11HZdeemlU0qqJr8U2h4F34IEH2i8UMMJNqk0Evv32W+0hzbwc4ioqKoGdgd0u2L3p16+f9hRp8mH9QFxWynMtytqWpPnr/ZmYNm2a/cxj3G+++eakEGVOX+3zo57mAMYXthDNMw7GITy9BhHODU888USJ59U4jOigMk143uNejnNKPc0FMw68EgEiQASIABEgAskQqEvmESDAQdEcEuHGPS3BCxjKueGGG9IWEZrvvvvu0wfalVdeOROTK7SSnCNrsc1hEDjnys477xyWlHFVjsAWW2xhP/fm+d92220t71+XLl0seNky0mYmrbkecsghufXUOb+yrEW5NShGQc4219MzIXbwLHhU23PPPa0VVljBNVc6dOhgQfroqKOOsiBlUS5yYl1N88PZrlqfA+PGjbMWWWQR13i3bdO2ZF3YZpttrPbt21tim8iV1qwLYD6FMZySzBknvlnHvehzirOttT4XkowR0xIBIkAEiAARIAJuBOqWeYRu4kUAhz6xUWCJbQt3z2P+ggcWlAGvTXmTGGe2xM6CJTaarKeffjrv4gsprxbbHAbEG2+8occAY9yqVSsLkiuk2kTgl19+sZZeemnflz7z8hfnCvWUiRMn5gpCHmtRrg0KKayenwkwDLDeQk24efPmltg40urCYN6LkXzNTET8Sy+9FIJQ/lHVNj/qbQ6ce+65mdcFqLvtuOOOuQ5+XuNe5Dml3uZCrgPIwogAESACRIAINBgCTdBfeaGqS4Kx7C233FJNmTJFyVdmNXnyZNW6devYfRW1FdWsWTMFz1tz5syJnS9uQhju7N+/vxoyZIg68sgj42araLpabHMQYPPnz1cbb7yxmjFjhlpmmWUUvMfBeCqJCOSNQNa1KO/2BJXHZyIImWLDq2l+cA4UO9bO0vMY9yLPKZwLztHiPREgAkSACBABIlDXzCMML7wuiYFLNWvWLM04AiMJjII4BL7aoYceqjp27KiOPfbYOFkSpfn999/V999/r5lTiTJWMHEttjkIrgMOOEDBI59Imqjhw4erPfbYIygpw4lAZgSyrEWZK49ZAJ+JmEAVkKxa5gfnQAGDG1Jk1nEv8pzCuRAycIwiAkSACBABItCACNQ98whjisOZeFFSr732mtphhx2U2D9owKFml50IDB06VJ188smakXjvvffqeeGM5z0RKAKBal6L+EwUMeLJyqz0/OAcSDZeeaWu9Lj79YNzwQ8VhhEBIkAEiAARaGwEmjZC91dccUU1adIkdfjhhysxktsIXWYfIxBo0qSJ2m677ZTYmiLjKAIrRueHQDWvRXwm8hvntCVVen5wDqQduWz5Kj3ufq3nXPBDhWFEgAgQASJABBobgYaQPGrsIWbviQARIAJEgAgQASJABIgAESACRIAIEAEikB6BhpA8Sg8PcxIBIkAEiAARIAJEgAgQASJABIgAESACRKCxESDzqLHHn70nAkSACBABIkAEiAARIAJEgAgQASJABIhAKAJkHoXCw0giQASIABEgAkSACBABIkAEiAARIAJEgAg0NgJkHjX2+LP3RIAIEAEiQASIABEgAkSACBABIkAEiAARCEWAzKNQeBhJBIgAESACRIAIEAEiQASIABEgAkSACBCBxkaAzKPGHn/2nggQASJABIgAESACRIAIEAEiQASIABEgAqEIkHkUCg8jiQARIAJEgAgQASJABIgAESACRIAIEAEi0NgIkHnU2OPP3hMBIkAEiAARIAJEgAgQASJABIgAESACRCAUATKPQuFhJBEgAkSACBABIkAEiAARIAJEgAgQASJABBobATKPGnv82XsiQASIABEgAkSACBABIkAEiAARIAJEgAiEIkDmUSg8jCQCRIAIEAEiQASIABEgAkSACBABIkAEiEBjI0DmUWOPP3tPBIgAESACRIAIEAEiQASIABEgAkSACBCBUATIPAqFh5FEgAgQASJABIgAESACRIAIEAEiQASIABFobATIPGrs8WfviQARIAJEgAgQASJABIgAESACRIAIEAEiEIoAmUeh8DCSCBABIkAEiAARIAJEgAgQASJABIgAESACjY0AmUeNPf7sPREgAkSACBABIkAEiAARIAJEgAgQASJABEIRIPMoFB5GEgEiQASIABEgAkSACBABIkAEiAARIAJEoLERIPOoscefvScCRIAIEAEiQASIABEgAkSACBABIkAEiEAoAmQehcLDSCJABIgAESACRIAIEAEiQASIABEgAkSACDQ2AmQeNfb4s/dEgAgQASJABIgAESACRIAIEAEiQASIABEIRYDMo1B4GEkEiAARIAJEgAgQASJABIgAESACRIAIEIHGRoDMo8Yef/aeCBABIpAIge+//17hj5QNgS+//FL98ssv2QpJkPurr75S33zzTYIcTEoEiAARqG4E/vzzT/Xxxx9XdyNrpHW///67+uyzz8rWWu5JZYOaFRGBXBEg8yhXOFkYESACRKB+ERj12CjVokULdcEFF9RvJ8vUsx122EF16NBBvfvuu4XX+Pnnn6vWrVurzp07F14XKyACRIAIlAOBn3/+We26665q7bXXVvPmzStHlXVdx6OPPqrWWGMNdf755xfeT+5JhUPMCohAYQgsWFjJLJgIEAEiUEYE8BL+wAMPJKpxiy22UPgjRSNwww03qFNOOUWtvvrq6pxzzonOEJFizpw5atasWWr77bePSFmf0UOHDlV77bWX2nzzzdX999+vtt5668I6ev3116vvvvtOrbzyyoXVwYKJABEgAuVC4IsvvlC77LKLmjZtmhoyZIhacsklM1fd6HsS9iN81LjwwgvVW2+9pe699161wAILZMbVrwDuSX6oMIwIlCIwcODA0sCQkD322EOtt956ISmyR5F5lB1DlkAEiEAVIHDnnXeqiy66KFFLzjzzzIZjHr300ktqoYUW0lIvccG6/PLL1RlnnKGljp588km1/PLLx80amO64445TL774osJLQCMSmEX33HOP2m+//dQ+++yjnnrqKbXBBhvkDoVlWeqOO+7Q5R566KGxyv/111/V66+/rt5//33NcILU0korrRQrLxMRASJABOIi8MMPP6hnn31Wde3aNTYDCOpOXbp0Ue+9956Wgj355JPjVheartH3JDCKHnzwQc2UGzlypDrkkEPU8OHDQzFLE8k9KQ1qzNOoCCT9WLviiisWzjyi2lqjzkb2mwgQgYZDoGfPnmrTTTdVHTt21MyBOABMnjxZH9DxZXf06NFq1VVXjZMtNA0Oj1OnTlXt27cPTVfvkTvttJOW4vr2228VvhYVYW9i7Nixavbs2apZs2aqb9++oZCOGzdObbjhhmrppZdWm222mcJ82XLLLVXz5s21OsOAAQMUXtxIRIAIEIGsCEBqCGrQkCACoyIu9e7dWzOOsD71798/brbQdNyT/gfPwgsvrCVhV1ttNTVixIhCVNS5J4VORUYSgapHgJJHVT9EbCARIAJpENhmm21CszVp0kS/sIcmqqPIjz76SD300EO6R5As+fCDD9X6668f2kMwNXBQh22Jfv36qbZt24amjxv5yiuvaCYEGBN504EHHqiaNm1ayBfTvNuK8s466ywFps2ECRPUaaedlnu7oR4A2nnnnTVTSP/w/MOL00EHHaRfFlZYYQUFCaVOnTqpr7/+WkFSDUzDDz/8UL+o3XLLLVpKCtJIJCJABIhAWgSuuuoqhT0GhP0pDg0aNEg98cQTCuvUv/71rzhZYqUpck+K1YAqSrTMMsuoYcOGaabe4MGD9Rkgz/Wee1IVDTabUvUIRL3LoAOvvvqqvZaWpUNyaCQRASJABGoegXPPPdeSRVP/yYtyzfcn7w7897//tdZZZx2Nz1ZbbWXhdxT16tVLp2/VqpUlnsGikseOlxcAXe4zzzwTO0+chOJ5x1pwwQWtRRddNE7yqkkj9iWsRRZZRP/JS0xu7Zo7d671t7/9TWM9adKkwHLl671Os91221niBa4k3WuvvWaJUVqdBs+YfJW2Zs2cVZKOAUSACBCBuAjcdtttek1ZdtllLbGvE5lN7Bpaiy++uM4jNvgi0ydJUNSelKQN1ZZWVKo11iIVm1vTuCflBiULIgI2AvIh2D6fyQc+O7yoG6qtlYVFx0qIABEgApVFANI4wgTQ4v6QcsHvMIKqE+wfgPC1V5gbYckTxU2cOFEttdRSuXv/ko1S/fHHHwrum2uJ2rRpo3bbbTcFibBTTz01t6bDyPn8+fO1xFiQYXjYNbr00kvVWmutpUaNGqWWW265kvohoYa5sNhii+k4SAn06t2rJB0D8kUA0l7bbrutViHMt+TiS4MKJuYNJBa+//774it01HDxxRerli1bKniHJFUvApBwhJFq/O2///6RDYUh559++knb6zvqqKMi0ydJUNSelKQN1ZYWasrY98eMGaPkQ08uzeOelAuMZSmE+086mBth/wl/e0iHG3MRASJABIhAFSKAgyCYBHEIGyDU1WAcG15Y8iIweKAKBePQRXlyyaut5SzHuEeG4Wwc1rMScIYReVCfPn0Ci/vPf/6jxxlMJKi2IZ8ftWvXThv2NnFTpkxRM2bMMD95zRkBeDuCEeGnn35arbnmmjmXXnxx//73v9Ubb7yhPSqCaV1OAsPqk08+Ud33765uuummclbNuhIiANfwSyyxRGQuMKzNx4wePXpEpk+SgHuSP1pQU+/WrZv+IJPHRw3uSf44V2Mo95/0o9II+w+ZR+nnB3MSASJABOoSAXjAue+++3Tfdtxxx1yZPNDNFtWohvNyFzVRIKWx7rrr6mRXXnllVPLIeDCgjKHsI444IjA9DJcbgkTac889Z36WXDfffHNXGJgDpPwRwMEddg7wwtyhQwfbW17amiDRBo97hx9+uGbadu7cWR199NHqgw8+SFtkZD54EgT9/e9/1wb6IzPkmABSLDCkLKq2Ch60rr322hxLZ1GVQGDo0KFa6kjUkpWoU+faBO5JwXB2795dR8Iz6vPPPx+cMEYM96QYIFVBEu4/2QahEfYfMo+yzRHmJgJEgAjUHQIwkDxv3jzdr549eubaP0i6gLbffvtcy62HwsCoA+Gg/ttvv2XqkjFKCk9G8J4WRKussoodJbaiQr3pQQrNScbYrTOM99kQgIoXJP2++OILBcO1999/fyaV0RdeeEEzjODNCtJAkDBD2I033qgZU1On/MU8zNbyv3LD+LBhLO66666Z2v9XqcnuYIgeHgyhxnrGGWeoJ598MlkBTF1VCDw+9nHdHkisrr766rm2jXtSMJx4hsRunk6QVSK2Efekb775RuGvVoj7Tz4jVe/7D5lH+cwTlkIEiAARqDoEIEUCCQZ4pmnXtp066aST1HfffRfZTti+AcH+zc677ByZPiwBXlbhFQcvxCuttJI688wzdXIxxqmlj0455ZTYnnbC6ikiDi/ZHTt2TKVGBubbPvvso7HHy2sc2nPPPXUyHOAgBZSWPv30U+0RDfkheRFGJ5xwgtp77701g2HgwIEKaiRBJAZrXVGwK0PKDwGodeBL/8yZM3Wh1113nbYZlLYG2LKCzSSoF0ICCIwoPP9g7ODZxjzrc1ifzIxKb/vEELIdBLs2cWnkyJHa9o0YZ9ftbdasmVazhb0uSM/heUxCUNsUY//a7hekVbAWkSqHABjieKmCWgcY0WAsPvzww5ENgoTcW2+/pdNhrcpK3JNW0AzVODjiGdxoo4100vHjx8fJ4pum0fYkqPzjA9mKK66o/yDtiQ8C1Uzcf7j/xJ6fMllIRIAIEIGaR4De1txDCO9aYpTaWnXVVS1xAW/JIUZ7Y9hyyy3dCX1+yZddnRZe2dLS9OnTLTkw6XJkQ7LgUQdeW3Dfvn1768QTT7TEpoL+DQ86wkRKW5WdDx7kUP7CCy9sh6W9EeaP1aJFC11eGs8+xnsP2gNPavLSHtkU1In0+Dv55JMj0wclOO+883QZYqcoKEmqcGFE2u3D3IrTp1QVNWgm4/UO4y8GgTOhcM0119hjJYwjSxhGrvLEppkdLwxdV1yWH3gGRZpNly22mmIVJca1LZG6s9tjngG/q6jxWePGjYtVLhLBe6G8AOuyN91009j5mDBfBDAvdt99dz0OwgCyhFGu7+EZUyR/QisTiRV7bohh69C0YZGV2JPC2pM0rhJ7Etp47LHHavzhuRNtSEONticJ49+es2YdO/jgg9NAV7Y83H/+d/Yy4+V3rdb9p9ze1mAck0QEiAARqHkEyDz6awjlK59m1ohxbEu+dukIMILMZgh3uUGEQz4O9Ejbt2/foGSB4WJnxMLLqHGp3KVLF/1yIOojlthM0OWK1xydX7yiWXgxMPVlZSDlyTwyB2ax82OhnUnpggsusPEGlpMnT45VhKiY6XxpX3TRVsP0uuKKK2LVGSfRtGnTLLE3YvfpyCOPjJONaWIiIAaeNbMXcwUHQbFTFDNnabK7775bMyxRFsZM7JeVJHr55ZftsVx55ZVL4tMGiGqLXe7pp58eWQzSG8b2kksuaYmknPX4449bb775poV+HHPMMZZITtplok9gxoqB+ciyTQLnS5EY0DbBvJYRATDDMXZgqoPABMJv/IlKpQ4L+ieSm3ZaUQEKShYYXsk9KbBRKSIqtSdhvzZjJSrtiVveiHuSSHzamBnsRIIyMXblysD9R1m1vP+QeVSuJ4X1EAEiUFcIkHn013BCagEHFvOVFkyV5s2b24eZWTNn/ZXYcydGeu10l112mSc2/CcYROIhys5/0EEHWaKqYGcyh1AwkZzkZLQMGzbMGZXoPi/mkajzWGDiiM0Za/bs2YnaYBLjC63Y57CxEFfHJir0KqpgOg8YQGnosUcf0/khbZGXZBBwBTPLHILBlMyr7DR9rMc84kHKxleMTafuIp5tSIWZsRI1ON+y8KyCCWPSQSojDxJjoXaZoi4XWiSY2KI+p9OLaoyFFxg/eueddyzzXJj24nr55Zf7JS8Jw1zFs4w8ojrLuVuCULEB2FPwYrb11lvbFQ0ePNieJ0Fz1CTu3bu3TiuqbiYo9rXSe1LshkYkrOSedOutt9pjJbbSIlpaGt2IexLOPs61CvdgKFUrcf+p7f2HzKNqfbLYLiJABKoaATKP/jc8kFjAy6NTcuWRRx6xDzJRUgbPPvusnRaHxiQkHpzsvP369SvJusMOO1hQoQEzwknz58+3pY+g2paW8mIemRcbiNqH0ddffx0WbYknMxsPvEDFoU6dOuk8YF6lIbEjovMfcMABabL75oHaozkIr7baalZejAbfyhowUGyTaVVLYAyVUe/zkQQSJ/MWcyhMytDJZMpDSg0MU1PmJptsEtns3XbbTc8rqAKI8fXQ9JCgxNwz8xBXqNFMeWFKaD4TCYkmkxfSTKTyIWD2ZqfUysYbb2yPh3hSC23Mdtttp9OCgZiUKr0nJW1vUPpK7kmQBDTPjpEaDmqnX3gj7knYI6Gqb3DDuSeJuq0fjkWFcf+p/f2n3MyjBWVik4gAESACRKBABGDwc/jw4Qous/Mk2TAUDE87CZ49RGVMiU0hOxielQzBjWgYwT24IflabG4jrzCSK7aBdDq4nL/oootceUR0XYnqk5KXBtW0qdtXw2KLLabkxVAbCp4yZYorH4yswk3zjz/+6Ar3+yEv3ToYdYlai1+SkjB5wVaiUqGaNGlix91yyy3a0LWo3dhh3hsY/r7qqqu0AfABAwZ4o/VvYeBpw7/or9ie8k3jDYSBTZBIS2hX4/CAFpeEUWAbyhYVh7jZQtPBQw7wB7Vp00bJi0Tu3o5CG9AAkWeffbZttPrwww8veT7iQgDD9KIeaSeH8W2ROLR/e2+cz6G87HijE/++9957tRFuZBTmZWj+J554QsEwP1yv33zzzaEeAVEQDCzDuLvT+LwwndUlgy5RDz30UGhdiMSzDG9zMGSLtRjrE4yINyqJSqB6++23c+2+2JrThs3hGMFJWLux7u+88/+cL8AbH/YCEPYYsQXjTF5yLzaxdJjx+lWSICCgqD0J1ZVzT0d9ldyTnHvXl19+iebEpkbdk8TeoDbQD4PwOI+IZI/COacaifsP95/E87IoTibLJQJEgAiUEwHzdVMWQUsOqeWsOrIu2IdBu/L+k8NIpAoG7B8hHeqG/ZMoVZKrr77abifEzeMQbBrAOK7pHySdvAQJAcQHfbmEOonJ71SJuuuuu+xwE5/3VV5i7eZCdQbly0u8Hea9kQO0tcQSS+h0hx12mDfa/m0kqiBhEZf69Olj9zdMasSvPPMM5GUoG0Y/YXwceMD4eRp7I37tZNhfCEAt0mAM1Z4oaba/crrvILmDr9vmafCg/QAAQABJREFU2cCz/tZbb7kTeX6ZdQF5skj8mWKhloSyYO8Mz0gYwR6SaSueD3nJCkuu4/A8ee0fQfro888/j8yLBMJot+sUT3Sx8tRjIoyNmXNmDPK6Hn/88ZGQwZaeqW/fffeNTG8MsMeRZjOFFbknoY5y7umV3pPwfJnxSmr0mXuSmZHVeeX+o6x62H8oeSQrFIkIEAEiUE8IQEpFmA22dEEefYOkzHrrradETSS0OEgd4Ws7aLPNNlPrrLNOaHpI4hj67vvvzG3o9aWXXlJyCNFp4BpbXkRL0v/nyf/oMLiv9RK+Tpqvy2KbxNUnuLsXFTglKjHebCW/5Ximrr32Wh0uLzEl8X4B6K94erKjxFCvvpcXFTvMe/PC8y/YklD4oh5E4kVISw+hD3Hphx9+0EnFHo12px43H/oO1+QgYWjFzRaYDlIsoq6m5yykYSCBtNBCCwWmZ0Q6BMSAs70uiAeq1NIwonamIHVoSLwqakkx89t7xfNm1gXEiU0Vb5JEvz/++GMltsx0HtQttoxC80P6xBAkkJ588kkt1SaG/U1wyRVf7vG8jR071o6D9BGkWIxUix3hcyO24NQDDzygY26//XaXFJNP8roNwtjIRwKVh7SZEyRISR591NHOoJJ7MV7tkhTDmEQR9k5QHOlTU1aRexLqKOeeXuk9CVKwhiABGJe4J8VFqnLpuP8oLQHL/SfZHKTaWjK8mJoIEAEikBgBMTCsxGZB4nx5ZICKhiGRajG3gVejNoUEX331VWA6Z4RT/aFt27bOKPt+0qRJCowhMLC89Nhjj9lBXmYMmCgDBw6048NuIB4O5hHUJ8D8SEOmL2KHJTD7rPdm6Ti8LInb6cB0l1xyiVYhTMI8MgwAvOAlYdYAQ6hSgJkIZk8Wgpoa1HyAPe7FRoyrOLTxjjvuUGLDSkE8n5QOAbxciXFsO7MYWbXvk9zgpRovAU6CilcYzZw50xWdVCXIlVl+gBlj1HKj1JCQVyQgXUWAqfDggw+qMOYRMoiEoysffsya9b/nsSTCEyDejjQTH3iJVJYSWx9KvEF6UjXGzzhMmyKQEElSe1/Bvog1JIqMemESBqdZx1F23nsSyiznnm76Uqk9SeyNocua1lhjDXMbeeWeFAlRRRNw//kLfu4/f2ER585teCJODqYhAkSACBCBmkAAX1PMixWYEeK1RrcbdgtOPfVUW9rH2Rkn88gwMpzxfvdgMhiC5JGXwNTBl2Awhpx2VpAOEkX//Oc/7SxRL712woJuzEu1qAEF1vDhhx/qOFHlCrQpI6p76oUXXtDMsijpMGdFBvMwWzXO9Obe2LUS46QuyS0TH/cKJicYR2D0QSLEyzhCOWAEwk6UeamJWzbTuRGAfS8jsYdnKC0jAww+PNOGxLCwghRTGL366quuaO9z6YqM8cMwwbDOxGGW+j0TeJmJIj/JB2ffw/IDYyez00ghheVhXL4IwO6UISeTER85nHEmDa5ieFj/jCN9avJxTzJI/HVNuyeJ2ppdyJotSpm3dqTnhnuSB5Aq+8n9xz0g3H/ceIT9ouRRGDqMIwJEgAg4EMCXdWy4c+bM0V9PV1pxJbVum3WVuJl2pKqeW6c0Al7ojPFlqCwMGTJE9ezZU3mNm4p9CbsDcSWPxBuOlvaBcWtIv3jppRdf0io1UGfxkthEUFBbA0HVzE/lzZunyN8LLLCALn7EiBFql112KakK2BnVuPfff18zv7yGxcVjnTJSXkkNVxumldNIaUkjPAHA7+mnn9ahSetzFnXZZZepc845R+Hr8pgxY9Taa6/tjLbvn3nmGX0Pg+15EqRBRo4cqRkqUKuCmhIYIa1bt9ZqSUkwMe167bXXFIyW4plFmVCBgUF3SCN069YtlZrYiy++qN544w0lLuQ1cxaSLGBqAA+MO+4vvvhi9fLLL2vJoiAJsqeeeso0U7Vcq6Vumx2Q4GbYsGGu1HvttZfLALwr8v9/eJlH5gXdL21UGPppVKDAvITkXxTttNNOyqjjIC3yRDG8kE7sv+DiombNmrl+h/0Aw9cY5YfkUS1Tre1HYMwb7CHpJp7QNPxQPYSDBzgY8FO5NXsUnjMwkLzrrd8Yck9yO7vIsic5mbNrtVzLD+6SsFrek/JY36F+DqYbpLbwBwxxTgxShwfjAnu/Nw8ktZ158Axg78FeiXt87MM+neYMyv3nfyYKMHm5/5Q8wuEBMmFJRIAIEIGaR8AYZpQVL3eD2WJjQ5cpX8vxabzkD8bq4rqMLifQK6+8st1WkRbRVf/xxx9WixYttIFrGBX1I7GLpPPBSHJcat++vc4jL/iWHPBd2cSzkY6TlzVXuHhEsw23wh1zFhflKBj5MT5yEHDVk+TH5ZdfrsuQL9eW2Pmxs8JoKFx8e8dfXngtUaew04kEhm24WF6G7PA4N8ANBoBRh7xMxcmi05i5LzawYufxJhTVQF2vvIhbMCAu9mtcfxg7YVBZ9913n4UxhnHnoPnjLTvqN4y4Aysvts7fMFAOY+IiqRNVnI4XOziWmZOmHBiRNve4inSVJRJUFtzAxyFhRFmi+mSXIcxYa/XVV7eEuWWJ7SwdjjVCJOzsNMKwCiwahv1New488MDAdGERGBdThrlOmDAhLIuOk5cNV75TTjklMk9QAhhJNnVPnDgxKJkrHM8qnv/NN9/cEq9wFtyBxyFjlNvUh6ufgf6gssQzm91WzClRVwhKWrXhtbofiXdKG3uMoyEY5sc4yscOE+S6ioqsnU+89Lniwn6Y57+Se1JY++LGVXJPQhuxRmJ8sH6KnbRYza7FPSmP9V08l2mHAc71ydwHGYfH2Qd7iUnnvOLsBIJDBKzRQWdQ7EP3339/rLExibj/1M/+U26D2cpMIl6JABEgArWMgDmsYOPNy9saDhOdOnVybep46cIhGC8suOLFEXWKtIElX9+rBkIwicyBBAcO/AbhcIP23nDDDYFtNZ5k8HIV97AIxgIYDyhbpJxcjAUxSK1f1A1zSL7KaQ8XSIs/kVbQh6PABsWMyIN5hDE37cJVpHCstm3aug6EYnvCWm211ex0YEJgXjiZdWAmiHRHzJb/L5nzxVakSWLlBQMHbURbReUsVh5vInjAc/Y5zn0WRpWzflFVsRkvBm88V/L11xL1QAsvymDayRdW3UZc3333XWcRJfciQWV7w8OcxKEbDCpghfFFvJNZBS9lUS+lYo/H9lq4wQYbaAabeabQANyDsWbaaTCUL/Al7TMBTs9honpmghNdRdLMNXaiNhbJhMUzbZiUpp14QU1DeObMvBcpsTRFxM6DdcMw6Uy70V+ReIxdBjw5gjFs8otqb+y8lU5Yy/sRsDvjjDNs3ME4BIEpj2dGbAjZe5SOcPwTqQ17zFBGXKqGPSluW8PSVXJPQrs23HBDPW4468ShWtyT8lrf8dHHrC3eaxDzyLkXefOAeYQ9xJwz8eHvH//4hyU25iys2diLnHkGDBgQZ4h0Gu4/saHSCat5/yHzKNlYMjURIAJEQCOQN/MIUieGGYLNWWz5WOI9qwRtvIiJCozewA899NCS+EoGmEMJDgl4eQbjCC9OYuTZxdzxthEHKXMgiXqpduYFQw1uupEXmIj3L0vU2CxRidHMlZtvvlkzlvDChzT4WiZqSs4iMt3nwTxCA7bZZhu7/wYHc8VBGl8B8dIJCScT7rwCAzASkpKocejywIyCW/I4BBfnqBsMQrwYJyUwEZ1tj3sfdBBOUj8kiZz1wV08sPUjsYtlpwUzz49EjccCo9KUCWZGEEMXDAe46DVpMWY4kPuR2KGyGSSQKgpjVohKgSVqNna5Qcwj437b1C82wfyqDg3DS5pxY27KgSRcFGHumvTmKqqIUdl840ePHm2XJR6ofNPkFQgGm2mvuR5wwAGJiwejwuQXL3WJ81ciQz3sR865ctZZZ1mTJ0+22rRpo9cuUasKhdW8JCeRhkWBld6TQjuVILJSexLWPsNsPe+882K1uNb2pDzXdzA6xZOkBQy8Hx6D9kxRqbaw/t99992WkwmANQpnNiMJDulUMDCchD0f+6FZz0TVO3DPc+bj/uNEI959Ne8/znlzyy23xOtQhlSUPMoAHrMSASJQPQjkyTwSL1n2ZoxNGQwDHDCCyIjj4yBcTSR68fYXK3O4EHsoFl6ywwjqU4YJlORLL8qcNXOWdcghh2i1JlOn8wopD7E1o6U/fvrpp7BmJI7Li3mEA1nXrl1dcwCSGr169XIxNzBPvGLkeMmBylQawvwBVuJ1K3Z2I3qOtqUh8czm6qdzrMLu8bxloRHDR7jqBdMniMzLiLM9ftJH/fr1s8sEA05s6gQVqcMhLQRGqikXknZiv6ckz6WXXmqnQVuiCFJjpswg5hFUy0waXOMyC511o63OMnCP+YjnK+wPUmPOfOh31JrgrNd5D5UzlAWVFr8xcabNem/UkEzbIYUkdqcSF+tUK4TKXbVTvexHwBlSE1B5NWMIqSMwlaII0oPIk0Qa1pRZyT3JtCHrtVJ7klmnwUDCh6A4VGt7UhHrO3ACE8nMc1yDmEdOTL37AvYx5IWEaRAZtU9Tlzi8CEpqh3vr4f5jQxN4U837D5lHgcPGCCJABIhAMAJ5MY9uvfVW/SJkNmKoZOArTRgNGjRIb/BiiDcsWcXi8BINWzziHSt2G8DAAAZQiQqTtAgqEHmgtgVmFcrB+ODrMhg8RVFezCPTPow7JIggcfb111+bYNcV9o5gTwp2guLaznEV8P8/MDbGJk9cuzEfffSRrUoV9eXer85KheHrqVNiBoxK9CWI8MJpnkdzhR0UJ2GO48XSxMdlbuHQDJVTkw8Sc15GCr74mvg4EmUo06hXBTGP8HXQlIn+pyHDtDblpL1C5TINgclsmKeQciyS/CTkxJtTqiphY8RgBemzaqZ63I/w0QBMWEi1eu3jBY0FGEDmg4Y4LQhKFhpeiT0ptEEpIsu5J6F5YHjgWdlqq61itbYW96Qi1neABSlas87gGod5BAadMw/uIaEd9pxAcsmZB+tbFHH/iULIHV/t+0+5mUf0tiZPHIkIEAEiAAQ+/vhjddpppymRSLABEZ1zJQwk+7f3RhgWSgwV6mCnVwxvukr+hmcp/CUh+RqnHn30Ue09TdTNVFIvXvAwJbaBlBikVfIirfr376+MJ7Mk7ahkWoy7SFaENkFUG5UYUQ5NEydSVAL0vBPbBsrPK51fGXKgUaI2qeSLWGo3737lFh0m6k0ur1nwvBXmSU0YmK4mCZNNiUqAK6xv377a+wwC5St57PkKj249evRQ11xzjS4PXmzkhV2JnSW7fHjAMQRve7vvvrvtudCEO68oEx7dXnjhBWew697plVCYXq64uD+M5yqTHhiK9JX56XuVF3cl0oSuOHj0SUPCkFbCPNVZ5QUsTRGx8sDrI54PJ8mLmBLbbM6g2PdYjwzJy7i5rbprve5H8LQWx7Oec0BatmqpRC1ce7qEp1B4agvyYujM57znnuREI/pePmgokQrTCYF9HKrFPamI9R1YYR9KSn55cHYK2yO859M4XnK5/8QfmUbdf0IRcvPW+IsIEAEiUJsI5CF5BEPPsmDafxBThV2RIIKkCWxuIA/s30ydOjUoaU2GGzWgNddcM9CYaVjHgB3sG8FeQzkIkkeQ3oGIfS0R7OSgzZhHkBCLQ8AWXySRR16m4mSpijSQOjISBOZZg2pEGEFl1NiPgB0y2IZyEjx1mbJwFdfFzujIe6eNL+T3StEYb0OmDqg9PfboY6HlnnrqqbodQd68nGXCBk8agqSjaROuPXv2jCwGEnLOPLgfP358ZD6/BJBGQH5IfIWp9frlTRJmpBdNu4XZmEoa0tQpjEYbg7hGgE3ecl65H7nRxhwz9vKgqpOGyr0npWljteQx8w9SDU7nAEHtq9U9ybkWY43JY30HRpBANWsWrnEkj+Cd05kH9++//34Q5Ha4UxU0zv7n7DP3HxtG35ta2H/KLXnUVCYmiQgQASLQ8AjgSwwkbZwkqluqSZMmziB9L0wjBekJ2aSVGDnUYRdccIGSl86StLUcIAw5LXU1e/ZsJYf1xF0RtTWFrzZxJWkSV+DJ0LRpU7X99tsrsffiianun+ecc44SVSklKjRaCiZOazFXxRuZErUhJXaL4mSpijTC6FGQfnHSFluGS26J3Qf1/PPPq08//VRLLInxYGd2JUZxXb/xXCYhsWnmSi6e3pQc2O0wcStu3+NGbFqp3ffYXTVv3lxBAka8t6mpU6YqeXmy04khZiX2eAK/PjsxkIO/nS/ujZxyFZ5LJ8V5zsaMGePMosRroBLmrisszg9RT7Elq4SJpDBGRRAkP0XFyS4azzbGO6nUiV2A3IjdNfsnJCOrkbgflY4K5pjYPtIR4mlKS7WWpgoPKfeeFN6a6o0FTsJo1hKWkMSMIzVcq3tSEet7XiOLOS8f7yKLc55TsTdEEfefKIT+F9+o+08UOlRbi0KI8USACDQEAsOHD3epq6HTENsWrzBKbCVo9YxZs2Yp/IkdExsTkf5QV155pZKvdHZYvdxAvQAvwQcffLACIwlqeeLtJnb3xFaQTguGTrlIXLuXq6pc6gFTDodu8YinxIZL7DKhHgACwwmqc7VCXlUrqBCBgRGHxIuZbzKR+HOFJ8XDj/Hx+uuvK/kiq8uFmtquu+5qq3CYyuQrsRKpJf2HMDAl8IxA5U2+VppkvleoGxpKwzwCUxYMRyfFYQKJpzVnFiUe7nwZ5K5EPj/EM51dP9aHImjUY6MUDu+GxKi6flZEytMEpbo6xxsqkNVI3I/8R0Uk+tS9996rxH29Ekk79dBDDyWav5XYk/x7Ur2hUEUViWp97gHecdXxa3VPKmJ9z2t0zR6UpDznR4ygfNx/gpD5K7yR95+/UAi485XRYiARIAJEoMYQyKq2JnY/SsSFZdl0hUG1SKQNLLgLFnsb2kiy17hujcEWq7kDBgzQOMAFuUg7xMqDRDBGC8PBcUTeYxdaRwlFCkQbvIYqFtxWxyWROLIWXXRRPSbPPfdc3GxVkQ5e4ZzPlTCOMrfLqO+ZcqGWlISMoXWTH9fBgwe7ipAvtVaXLl1cbXem997D4xAMpgaRMFzssjbffPOgZIHh06dPt/OjbjxnUBsJIxiw97Yzraptu3btdFkwNp7GoH5YOxE35YUpttFxtBnqwXmtI07vSjDcXo3E/Sh4VGCEHo4cMC/ghS0JcU8KRwvPmFFHFcZy5JpiSqvlPQl9yHt9R5l5qK2JPUUUFUlOtbU4amjcf8IhrbX9p9xqa9X5yUV2BBIRIAJEoJwIwDipk2CQ8+yzz9ZB+DotL+va8LNTPNiZvp7vzz//fCWugrWE1S677KJViKAuFUXrrLOOkpfMWCLvUWXVWzy+nPfu3VthbkGKQxgIsbuIL7xQt4Gh7CSSYLErKDChMbBsqvBKz5jwJFdvmTBYnYSg7iiMYVuSBnkhbegkSOGJRzutpgoV1ZkzZzqjS+4hAScMJJ0H5XsJ5Rn68ccfzW3sq9PIKzK1atUqUgLDGAU3lWDOpVG1hdqeeLfTxeCrfRYVMtMW5xXY7rHnHnrNQTikHyABmRc550u1Sh5xPwoebaiLQv0SexGMZ8PJAPbrOMQ9KRwlGMYWb58KqqjiWTJyTTGl1fKehD7kvb4bXKr1yv0neGS4/wRjY2JKTzQmhlciQASIQIMgAI9p4ord1VuoWkGdBn84rELVoREZRwYUHNJxQISdnX/+858mOPSKF75BgwaFpmnUSBzSwZAEkyFKxcmL0ZdffqmD4r4wefNX8veyyy7rqj6Pl3evmtrvv//uqiPqBxhFXiaWl3lkyoA6B2wZgYGCuQ2bR3h59esHvK3179/fZHVdnYd3ccPsiovzA8xcJ7Vs2dL5s+RevoLb6nUmEra20tBtt91mZ+vTp499n8cNmGLwvocrGHoiAZYr4whtdGKHZ7DaiPtR9IjAeyhUYOEp8PTTT7c9LUbl5J4UjBBUAKEuib0J6n14/uJSLe9Jzj7mtb47y6zGe+4//qPC/ccfF28omUdeRPibCBCBhkMAG4b35THNF/l6B+6oo47SL81eV9/13u8i+nfXXXdpJkQSiSPTDhiLfeaZZ1zu5E1ctV9btGjhamIaxomrAPnhdVUs6mLeJKG//SR/RJ3JzvPAAw+43NuDibzRRhtpo/mIe/fdd7Uh74svvrjEfhPsWPkxs5ySe07jpXalETdehlmU3ShIt4m3KrtUGAmHZFRSgj0NvGSCwDTr2rVr0iIC02McwDiCsXK83IBJZQwk+2V64oknNPPglltu8YsODHNKHoW5wA4soOAI7kfxAF5xxRX1OghGRzWOY7xeVE8qrAfi+VM/d0mlCWt5Typifa+eUfVvCfefUly4/5RiEhRC5lEQMgwnAkSgYRCA0V4nYWOFIWxSKQIQ+8ehnZQNgTZt2qR+4cH8xEt7LUrCYf44CcwjGKfOQl6jol6Vn6iy/ep3GomFxB1ejuBRLYhg8BxqrvBS5MwLz4wwvO8lpwedNMwjr/FwsT3krcL1++abb3b9DpKIciXy+QFJOeMwoHv37j4p0gWBwbbnnntq/MAIgAQEpADCaMKECQqe8cR6RViykjgn8yiK6VaSuQwB3I/igwzj6Z06dYqfgSkDEYAU3nrrrRcYHxZRy3tSEet7GFbVEMf9xz0K3H/ceET9IvMoCiHGEwEiUPcI4Cu3kyHi/aofFwC8OOYhSRG3PqYjArWGABgETm9XaP9TTz2VqBtQU4H3P0NihNvc6uuMGTNcv6N+jB492pUEB+sOHTrYYWJEVt8/MPIBOyzoBh7XIBHjtLvkx8xyqpnhi6dTlSqobGe4c71CuJ/anEk/adIk9corr5ifWtUOXtbS0LBhw3Q21Hf44YenKcI3z0EHHaTnATzPwZvW3nvv7ZvOGQi7YSDY/kpCTqy9knBJyikqLfejopBluUSgFIEi1vfSWqorhPuPezy4/7jxiPpF5lEUQownAkSgIRBwqqmkkQT417/+paAK0q9fv4bAi50kAmkQwIsxGEhOGjFihPNn6D1UVGC3BKoGhmA4V7wvmZ8Kbuy9LuntSJ8bL/PqxBNP9EmltJFe3whPIBhIToaGV0oIyaHy5STYb0lCyy23nHJKG/3www+B2WFw2hAkpK677jrzM9EVjHHj6nzjjTdWXomvRIU5Ep988smaYQTphZEjR2pDyI5o31vYBXrppZc00yyptMSsWbPsMp1f4O3AKrjhflQFg8AmNBQCMMIeh+Ks73HKqWQa7j9/oc/95y8s4t6ReRQXKaYjAkSgrhEQF752/2AbBEZx4xJsc0AaAl/j09gRiVsP0xGBekDg3HPOdUkfgQnw+OOPx+qaMdbufM6gvnfhhRe68g8dOtT1O+gHbEcZz2FII66R1UknneSbHOkeeeQR3zhvIJhkIEgg+TE3wPhZddVV7WxTpwarxNmJHDfoMzwiGQqy8wR1NeBrCIw3MJDS0D333KOMypdX2itNecgDdUAzVvDqCKk0tNfvDwbIoaoGxiHsr8FIL5wZJLF3M2fOHPXZZ5/Zza1W23bcj+wh4g0RKAsCea7vaRucVAU3bT3cf/6HHPeflDNIJiqJCBABIlDzCIgaCwxf6D95sUzcH/G2ZsmXb7uMAQMGRJYh4s6WfLWwhGlkib0AS77oR+ZhAiJABCxLjBzbzxqeW7E9Y4mh4FBoxMi4ziPMD0sYvCVpe/To4Srz+uuvL0njDBBbRJYcou08wriwZs+e7Uyi74VJY6cRSRXr559/LknjDBDmhCVfp3Wejh07OqNc96KaZZcrHvdccXF+3HHHHXZ+tNFL6B/6ZNZF8a7mTZLo95ZbbqnLEtUyS5hVifL6Jb7zzjstsVljt8+0M8l166239is6MGzE8BF2fWJbyMIaXo3E/agaR4VtqkcEilrfxTOtvdZgTRMJ2Uj4pk+f7soj6tORebAfOddM7KVxiPtP/ew/66+/vj0HcLYqmmBokEQEiAARqHkEsjKPAIAYvLUXYDCSxE6ILy6//PKLddVVV1mitqHTi40kS9QtfNMykAgQAX8ExJOW/bzh8Cte0yxRHfBNDMYsGLRg1N50002+aUTd1OrWrZtdpkj/WJdccolv2o8++sgCI8gcuvG8gznlR86XC6TH708//dQvqSXqY9Y222yjyxWpI2vatGm+6RA4ZMgQu36xQRGYLigCdeFFAW0S6RsLDAdDImFjiXFyu/y+ffuaqFRXvAiJ625d3u67756qDGcmUSvUbTb4p72KBJKz2Mj7E044wcYE41jNxP2omkeHbasXBPJc38GMnj9/vv4IcfTRR9trDdY3fFDA/oZ1GmdIQybPe++9Zx188MGuPNjDwGQXKUudR7xd6myitqs/YmBdPvPMM115UNfVV19tffLJJzoP0voR958lSnBLug9Vy/5D5pHfDGcYESACRCACgTyYR6jiiCOOsDcUvMyKW3pr8uTJ1ltvvWXddttt1pFHHqlfcrHJ4GVKPAL5SitENJfRRIAICAKQDlp88cXtZw7MIUjhiHqVJepJ1qBBgyx8fcXzBiYtJEfCCAflY489VjOazEFQPNtZou5miVcdS9S49AEd0jMmvkuXLtasmbMCi3W+XBgGitgxsiDJA6axGMq3xOi2rgPhKBeHfrQ9jJDPtAH9FkPOYcl948QYtq4L5YgHPktsEukXB9MOMNxOO+00y7x0+BYSIxD4mbZiXLISxsSUl+UKJn4Swlib+rBnVDtxP6r2EWL7ah2BPNd3Z1lmnfG7QiLUkKjO2muSX1pnGPZF0D777BM7DxjmfsT953+aCk58k95Xy/5D5pHfDGcYESACRCACgbyYR3jJwhcZI1Xkt5lASgEvuBAxJhEBIpANgQ8++MDCV1qn2qj3udtggw2sKS9MiV2R2CyzxC6PzVjxloffYnPIuuyyyyIZK9ttt50+qB922GFaXQvqcWAO+ZWJMHEdboknsFhtdUoHBUk+RRWEr8xOZphpF8p+9tlno7LHim/btq3ur3h5s3777bdYecISicHWQPxM++Ncx48fH1aNK+7XX3+1oKqGcsGswxypduJ+VO0jxPbVOgJ5ru9g9kLiFHsZVKLF8L21+uqr6w+O+I1w7B2QQjLUs2dP3zyQKhWbbpY4R9AfTvDhwjCPIG2EDwMoD/H40Il6TF0IQxzSBDGPUD/3n2wMpGrZf8rNPGqCySMbKYkIEAEiUNMInHfeeeqiiy7SfYAx3bieM4I6jaVx9KjRavqb09UXX3yh4EIaXpPWXnttJbY/1EILLRSUleFEgAikQADGmOFSXmz1qPfff18bm5bDsBJmjK/R6ThVwC37G2+8oY1ii1qAksO0gierjTbcSG3WcbM4RaiHH35YIa+o2SkYqgbNnTtXrzHw3PX7779rb2/t2rVTcohzeUGLqmDgwIFKJJh0MrHfo55++umoLL7xwoBTo0aNUrNnz1bwICYvRGrdddf1TZs0EMarjWFpeTlSMMJdi3TrrbcqtB/UuXNn9dxzz9VMN7gf1cxQsaE1hkCR63u1Q8H9p3wjVOT+I9LZ6vXXX9edEZtH6vDDDy+0Y2QeFQovCycCRKBcCOTNPCpXu1kPESACjYsAPIaB2SP2mpQYj1Yizai8bpQrjc5xxx2nxOaUbgYYLmC81CJtvPHG6uWXX9ZNv/HGG5WoINdiN9hmIkAEiEAuCHD/yQXGWIUUuf+Um3nUNFaPmYgIEAEiQASIABEgAkQgVwTgMnn77bfXZYo6mLr22mtzLT9rYaI2pSWvUA6kLmuVcQSml2EciUqH6t27d1ZomJ8IEAEiUNMIcP8pz/DV2/5D5lF55g1rIQJEgAgQASJABIhACQIDBgzQKnqIuOeeexSYSNVCY0aP0Sp6aM/+++9fLc1K3I4rr7zSziMGxJXYHbF/84YIEAEi0KgIcP8pfuTrbf8h86j4OcMaiAARIAJEgAgQASLgiwBEzg855BAd9/nnn6u7777bN10lAofdPkxXC5W6ou0oFNU/YDp27FhdPKSnYLuKRASIABEgAkpx/yl2FtTj/kPmUbFzhqUTASJABIgAESACRCAUgUGDBmmD/EjUv39/NX/+/ND05YicN2+eevLJJ3VVm2yyiWrRokU5qs29DjCLYFMKdPnll9PZQe4Is0AiQARqGQHuP8WNXj3uP2QeFTdfWDIRIAJEgAgQASJABCIRELfK6sILL9Tp5syZo/r16xeZp+gEkICCBzxQr169iq6ukPLheeauu+7SZcML5x577FFIPSyUCBABIlCrCHD/KWbk6nX/IfOomPnCUokAESACRIAIEAEiEBsBuJE3hpxvuukmNXHixNh5i0g4fPhwXeySSy5Zk8wjeK6DfSNQq1atbCaSDuA/IkAEiAARsBHg/mNDkctNPe8/ZB7lMkVYCBEgAkSACBABIkAEsiFw6623qo4dO6pffvlFG6ieOXNmtgJT5v7www/V1KlTde7ttttO4ct0LRHU/rp3764lp5ZZZhntMW7ppZeupS6wrUSACBCBsiLA/ScfuOt9/yHzKJ95wlKIABEgAkSACBABIpAJARimfuSRR7SkzBdffKF23XVX9e2332YqM03mYcOGqV9//VVnPfjgg9MUUdE8MO49Y8YMBakp9KVdu3YVbQ8rJwJEgAhUOwLcf/IZoXrff8g8ymeesBQiQASIABEgAkSACGRGYMUVV1STJ0/WXnAgedSjR4/MZSYtwEgdNW/evObsBA0dOlTdc889ChJHI0eOrLn2Jx0rpicCRIAI5IUA959sSDbC/rNgNoiYmwgQASJABIgAESACRCBPBHCAnzRpknYrv8ACC+RZdKyyDjvsMDV37lx17LHHqkrUH6uRAYmaNGmioGo3ePBgzYALSMZgIkAEiAAR8EGA+48PKDGDGmH/aWIJxcSDyYgAESACVYvAeeedpy666CLdPnjVGTNmTNW2lQ0jAkSACBABIkAEiAARIAJEgAhkQaBDhw7q9ddf10XAwxvU5ookqq0ViS7LJgJEgAgQASJABIgAESACRIAIEAEiQASIQI0jQOZRjQ8gm08EiAARIAJEgAgQASJABIgAESACRIAIEIEiESDzqEh0WTYRIAJEgAgQASJABIgAESACRIAIEAEiQARqHAEyj2p8ANl8IkAEiEAlEPj+++8V/kjZEfjyyy/VL7/8kr2gmCV89dVX6ptvvomZmsmIABEgAtWFAPeffMbj999/V5999lk+hcUsBR4kSUSACNQuAmQe1e7YseVEgAgQgYogMOqxUapFixbqggsuqEj99VbpDjvsoL1Cvfvuu4V37fPPP1etW7dWnTt3LrwuVkAEiAARyBsB7j/5Ifroo4+qNdZYQ51//vn5FRpS0j/+8Q+19tprqzvuuCMkFaOIABGoZgTIPKrm0WHbiAARIAJVhsANN9yg9u+xv4Ir13POOSeX1uFlAEyNRqWhQ4fq/m+++eZqwoQJhcJw/fXXq++++04tuOCChdbDwokAESACeSPA/SdfRPfaay+FjxcXXnih2m+//dR///vffCtwlPbzzz+rESNG6JCFF17YEcNbIkAEagkBMo9qabTYViJABIhATgj88MMPauzYsWrevHmxS7z88svVMcccoxlHTz75pFp++eVj5w1K+Morr6jd99i9ob9Ebr311uqee+5ROFzvs88+6tVXXw2CK1O4ZVk2zoceemissj7++GMF5t4jjzyi3nzzzbKq18VqIBMRASJQcwhw/6mOIVtggQXUgw8+qLbbbjs1cuRIdcghhxTWsDvvvFN9/fXXqnnz5mrfffeNrOfXX39VL774orr33nvVM888U3b1usgGMgERaFAEyDxq0IFnt4kAEWhcBKZNm6bVznbZZZfYh8XJkydrNbUll1xSjR49Wq266qq5APjEE0/ocrp06ZJLebVayE477aQlub799lu1xx57FHJQBrNw9uzZqlmzZqpv376BUOHF7rjjjtPMwdVWW00z9/CFer311lPLLLOM2nXXXdV//vOfwPyMIAJEgAgEIcD9JwiZyoRDCuj+++9XWOshGVSUOvott9yiO9izZ0+10EILBXZ23LhxasMNN1RLL7202myzzRTSb7nllprpBBW7AQMGKNjtIxEBIlAZBMg8qgzurJUIEAEiUDEErrrqKgUmBeijjz6KbAfS9u7dW0vGHH/88apt27aReeImmDRpkj4kdurUKW6Wuk131llnKUghYUxOO+203PsJlTXQzjvvrDH3qwBfeNu0aaOuu+46tc4666grrrhCDRs2TJ166qlqgw020JJHY8aMUTvuuGMhbfRrE8OIABGoHwQaYf858MAD9Z5ZK6OGjwJY5xdZZBE1ePBglbdRa0jTQooIjKrjjj3OFxZIxuKc0a1bNzV37lwF6Vi0Ce054IAD9EePDz/8UPXv318zl/Juo2+jGEgEiEApAvKwkogAESACNY/Aueeea8kKp//k5bjm+1NkB2677TaN07LLLmuJSHhkVb169dLpW7VqZYlXsMj0cRP8+eef1nLLLWdts802cbPUfbq33nrLkgO8/hOVvtz6K4dx629/+5seR2HY+Zb7xRdfWKussoq11FJLWaJiUJJG7GFYwuCyxF6SLgfP2xlnnFGSjgFEgAgQgSAE6n3/wb6GNXLRRRcNgqBqw8XukV7bRfo11zaKpKsuVz6OBJYrTCGdRlToLPFAWpLutddes8TYtr33iKSUNWvmrJJ0DCACjYbA+uuvbz8XIuFXePcpeVTKT2MIESACRKCuEcAXvTlz5ui//fffP7SvUHOCTQTQoEGD9JfJ0AwJImHvCOLnW2yxRYJc9Z0UUj+77babgr0HSPvkRTA0O3/+fC01FoT3ySefrD755BN1ySWX+H41b9q0qY6DCpuhyy67TD3++OPmJ685IICv69tuu61W2cihuLIWAbffcpDVHv3gTr2cdPHFF6uWLVtqG13lrJd1JUOg3vcfeXNTf/zxhxImUjJgqiA1VMIgfQTpUkih5kGw5WfOEEceeaRvke+//7669NJL1VprraVGjRql5KNSSTqsKyhnscUW03GQ0O3Vu1dJOgbkj0Ct7kmV3I8wCvW6J5F5lP8zxhKJABEgAlWPAGwHLLHEEpHtxOaHwx+MYzuZBpEZYySA0W0QjHWS/kLAuE1+6qmn9CH+r5h0d3iZgbFSUJ8+fQILgV0r0HnnnaceeuihwHRQZXN6azO2LAIzMCI2AiJ5prp27aqefvppteaaa8bOVy0J//3vf6s33nhDzZo1S4mkQFmb1bp1a8387L5/d3XTTTeVtW5WlgwB7j/J8CpXaqikQ20MzK+8Pl7ccccdtqFseHTzI9jQwzkDTCSoVWPP8qN27dpppxImbsqUKWrGjBnmJ68FIFDLe1Il9yMMRb3uSWQeFfCgsUgiQASIQD0gAMPJ9913n+4KbNzAM0ueNHHiRCUqUqpz5855FlvzZeEL67rrrqv7ceWVV2buD74iG0PZRxxxhG95oiagPvjgAx0HjzjXXHONbzoE4sUPHnMMvfvuu+aW1wwI4JAuKpza5lWHDh1sz3hpioTkGl7aDj/8cG2rCs/Y0UcfbY9xmjLj5IHXQNDf//531bFjxzhZcksDKUrYQxHVWm3w/dprr82tbBZUfgS4/5Qfc9TYvXt3XTFsFD3//POZG3HrrbfqMmC3KMhQ9tSpU+16JkyYoJ577jn7t/dm8803dwWBWU0qBoFa35MquR9hROp1TyLzqJjnjaUSASJABGoeAXhVmzdvnu5Hzx49c+0PvizicIqX5KADZa4V1lhhYNaBgNFvv/2WqfXGUDa868GDjR+BiYc/Q1He9GBg1ZCZI+Z3NVy/+eYbhb9aIah4QbJP7E5pj3bwfgT1kTT0wgsvaIYR3G7jyyu+5iPsxhtv1M/b1Cl/vailKT8oD9RQzYscPPKlbX9Q+XHCYXQe3gohOSH2uJSRboyTl2mqCwHuP5UZDzw/Yh9PV44PD1nIZShbPHgGkdjas6PEVlSoN1dIQTvJOP9whvE+OwK1vidVw36EUajHPYnMo+zPF0sgAkSACFQ1AmA+YAODCC0OXnixe/jhhyPbDNsDINgf2HmXnSPThyWAJARs48CuzkYbbaQPp5B2wUstROX33ntvJca7A8XVw8ouR9yxxx6rdt9991RVgREAFaT27durd955J1YZe+65p06HAxy+xKalTz/9VEH9DXRcyOEdXnCGDBmivdjg5SHKXbPTS18Uoylt29Pkg+rD9ttvr1ZccUX9B4kbMGSqmcBIxdd+4z0Inu7wrKYh2A2BvSSockD6B3Pvu+++00wdPMeYT30O65OZIenXNjGEbAfDrk0cGjlypP46K4ZwdXubNWum7Z7ALhek5LA+JCWoaIpxf23jS4z9a+ZZ0jKYPj8EuP9kwxLPAKT40jBywNjfZ5991AorrKCZqXFagmcQezRo/PjxcbIEpjHSf5AWgj2jIDrhhBP0GQAePQcOHKilW4PSeiVdYeeMlC8C9bAnpdmPgCL3pBhzSSYIiQgQASJQ8wjQ25r/EMJDljA9tCcGYdBYwpTQ9/AEI3YG/DP9f+jqq6+u02611Vah6cIiRQLAErtJ2oOXbEnaC41IG1lymNVlC0PDgocXsb+kf4t7eAteVaqJhKmi29aiRYvEzRKmmSWMDJ0f/RcmVKwy5NBv5xGGW6w8fonEfpEuR2xF+EWnChNDqnbb0CexjZGqnCIyCePF1Ta07+CDDy6iqtzKNF6G0Najjjoqdbmiamj3XRhHlkgBucrCc4g68HfmmWe64rL+wDoDT30oWxilkcWJIVNLpOvs9ph2+V2xXowbNy6yTGcCeCqUl2Bd/qabbuqM4n0ZEWjE/Qd9xjwWhnxmpLEPYN9BeeL0IHF54uTCfsbgxVMYybHKwD6FOuGhE21IQz/99JOFdQjl3H333WmK8M0D76woE3/wDBq3T76FMdAXgVrfk5LuRwChlvekcntbw1deEhEgAkSg5hEg88h/CMF4wCELh0iQ2BmyD16i1qLD/P5h8wWDCXnhZjcNTXlhimU2NTCH5IuiJd68dFE77LCDPliiHpCo1lidOnXS9a288spV44IX7cUBFS8CY8eO1W1N8k88nFki8WFjLlIhsbOLipnOl/blFy6jzYuHGLmOXW9UQlF/s/uDcTVjGpWvHPHA17xYmKtIsZSj6lR1mPmFtuJZAbMxDeHlDC+HKAduwsVWWUkxL7/8so0NnrE8SaQi7LJPP/300KKR1jBUl1xySQsMZJFKtN588039knnMMcfYzGUzhuibGJIPLdcb6XwBEgPa3mj+LgMCjbj/5Mk8MkwckdyxsJ4nJZEgtZ9LPEviFCFWERdeeKGdT9QHY+XxJgKzC3VircFHpDxo2rRpen0z64J4b8ujWJbhQKAe9qQk+xG6Xut7kjln47kQByaO0SzmlsyjYnBlqUSACJQZATKPSgEX1SILL2dbb721HTl48GD7UCiqMna49wZ5zQFN3LF7oyN/48BpmE8rrbSSBWkVQzhci80cCwwkJ33++eeWqEDpekVtxxlVsXtIaAAHvNCmpdtvv10zn1AOvprGJRHH13WnkXhCHY89+pjODwmMvL7Oirqj6/AOqaxqooMOOkj32cxdXJMw7Mrdlx49etjtFeOeqaqfNXOWLdmH/gY913iBMwwmpJs+fXqq+vwyiWFQux+iMueXRIfNnTvXZqaKakwg41HUOy0z/51jefnllweW7Y3AnMc6g/xYg/J6Brz18Lc/Ao26/+TFPBIVUwsfEDCHxeGBP8gRoZAaElUw+9l07sNhWcXItZ1HbKWFJQ2M22STTXQZp5xySmCaJBHAFR9SzHoganB8ppMAGDNtPexJcfcjQFIPexKZRzEnN5MRASJABJwIkHnkRON/9wYT55fDjTfe2D58DR06tDTT/4c8++yzdjocJJOQ2CSwXxBXW201a86cOa7s4sFFl42vm1466aST7Hq9ajfetEX/xss2vppCcggH+SCCtIh4BgqK1uFGRad3796h6ZyRRhILLxBpSGxbaSzFy02a7CV5xBubfgk3h/cTTzyxJE2lA8AQWXbZZe05BLWJpCpP5eqDeBSymYpQEcXLURrq2rWr3V/MFRyGgwhSdGb88pJGwwuqKRcvjGG022676fqhiiaGbsOSWmKrysL6YdqLK9RoINEYlyDVZPJnYQDHrY/p/kKgUfefvJhH5kMPVI/DSLxjhkVb4snMfgbA0ItDkAQ0z43fPh1VhpFyhMTue++9F5U8Vvxpp51mtwnrQp7M71gNaIBE9bAnJdmPMKT1sCeVm3m0oCwOJCJABIgAESgTAqJeot5+++1ca4OxYxiXla/rrnL/r71zgbmjqvr+Lv3QGGKi0YS3idEiFbmp9dW0iIqawodvuBgwWCKlaBFeAl4QNVgu0kIRBJGbeAFr+0KLEEGsXBQBEVIRKjGKSDQtF4FQJRjeLxoFazLf+m3Yw555ZubMzHPOec6c89/J88xt3+Z3ZmbNrL32Wn//+9+dKYvcf/3XC86uiT5hZt8+j1kkOfMFk8kfb9hLZrpJ3rqJMNlEjXrmmWd8EXvxnOL8MkRAwrFxPuEwMyQcbO+5555h0y+Hye/aa6519iHunUfjRLQoPbzlYbff/93PEVb68ccfT6PU5POa3yhnSowp55PPF2/j9JlkFhM+/DhRaOom+h0cZePse7qJyGVEazO/AM6mRbkzzzzTLV++fLrV9r28+XbyDpJxCG/TPJyNorpXvOIVfW+nHxWecsopqePqo48+2m23XfMYJpdeeqmzqShpd3C8PWfOnHQ7vxK3YR9f+cOttnF0jyNuEuG4y9Ktt97qcMLP9XPFFVeURv4L5XHujyNdoqaFZNNA3TnnnuNuuOGGsKtyaVPofMQ5HKmvW7fOrVq1yjvmriw0xgeH+fwcJ/mD028bbHGcU69kyiOfheePTbXsld0fN6WvDyYxa9asNL9NP/GOrrmGy5JZxrqLL77YsVy5cmVhNrPW8dc8937d4AZxPgJbNE11HWXXrZeIofAn7bbbbj74hinc6xZXvpoExkEm1ZVHIJFMqnlh5LNNgCJVpygCIjABBMIopz3jElOWjOQZ20tYamlAP/v598lPfrLnOeO7KLT54Q9/uDL/JZdckuZl+lPdhIl7aAMrp6KEFQ6m+EWWFsE5NXXknQcPm1+YAkW7ZQnu4XyxlChLwaLKQheXZZmy/+Mf/3had5U1yZSCtiPcD/1wlM35h5EtfBytWbOmqEnta0CAaSiMynPtMLW0l/VAUdVY7gSHtNSDr6OHHnqoKGu6zxRp6TVlUfXS/dNZYVos7e+www5J1b2CL6RwrzDayxTIXgmfYcG5fiiL9RFTXOsmHPKHshaNrm6xscs37OdnHmCX5c/VV1+dXkPhWur30hSrKTL8zlC/KZXTffkVfs8QaGLZsmX5w+k29xBTyLnn6ibur3B+TQMOxI6y207FjftJEITwrLTomYkNZMSHtd4nAuMik+rKI7CNi0wK72fcs8PweSTLIyOtJAIiIALDIECobFPKuH6N+Ic+Y5Fy3H8fFzYLl1gExaP1ppgpzBd2MhIa0v/+v/8Nqz2XhDkNqSg0PKOx999/v7PpLYWWFlhHhWSm6WHVL4fNz8ztHaObtFuWQihx+oqlRFkyXxM+fLhN1ynLMmU/1kwk81NT2Yd8QXsncoQrJ9lHRf5wo237QPGh37lmLZqWM0fMbu+9925UhzJPJWAOnFOrI4uA2MoaxqadOSzCQtpnn338qHzYzi+xGsMCJ6RgLRS22yyffPJJZ9NQfVHar7pX4nsbCyQsELEuxCqvLGE1hvWkOatPs2B9hAVlsKhMD5Ss8Ky77rrr/FHzP5axZCopMpa7h/38jCF2Xf4Q7h5LS5sSE59W4TrP32B5Y4MLhXnyO5G3NqiS7jbn8X4dOVmW7v3lvaklFPdIWbKoqt5ylXOom7B2DalKroU88fLKK6/0zyWb8u1McRsfaryOZaVNV/PPSqwzsUDafvvtG9ejAr0JjINMaiKPICKZ1Pu6KMoh5VERFe0TAREQgQER6KW0GVCzzkZO06lk5mjSmbPqyqbClCkyhSlolQVePGj+jdJsmMvn0/2/ut+/WFoErPwht23bNme+ltL95ug4XQ8rw+THuey+++6h6cKljRD7/VU8MY3mY9d8BBXWUbYzKAb46GvywnzjjTc680/kzA+N44W7bTJLKmcOvp1Zs7gFCxa4DRs2TJkaaVFK3NatW6fVTtv+dbUcH5c2Ip923yzc0vW6K0yf4WU/TkzxqkqbN2/OHDYLnsx2mw2UMebzyxetmgZLBnOknWkChcIPfvCDSuURBXbaaadMOTa2bNkyZV/ZDp41ZqHhP7S5ls2vx8QqQIf5/Ix/j67LHxT4Fi00PqXSdQZIUB4xnRzlR5sUprZXDTZsefiFe4DBo0MOOaS0mXPOOceZVaBrojzi2R/SG97whrBaa8l0OxJTWGfPnl2rTFEmpqkxZQ/2rJvPskw25COKKmQv05WV2hMYF5nURB5BSzKp3TXTfIJ9u3ZUSgREQAREYAYJfPe7301bjz/y8AMSHwuZYuVRUGKEY1XLoOTArwm+CfLptttv87uK/B1ZJCXvr4YMjLiaiXq++NC2sW7gBbrKOoPR2eAD47+PLbbkwv+FOTz1/cYfTZMUuFf5sCmqz6YO+t3mMNsrkIry9NqHlYqZf3vFkUUucVhO5X1qUYdNj/PWdL3q0/GXCNx3333Opgj4HXwYtbHk4mMKq7CQLDKZw4KpKtmUyczh2P9R5kCDjaAEQ8HZ6+MUZWY+8dHSKxVZPsTn3qs8jOOPy2CF1KucjvePQCxjJH96cw2KXpuaWpoZH3sk5GSZjEDhj3Usyv+i+6+scpu2lh7aae5U5W16MLdijrL9QAmKsyLL41z20k1zFu4VRza93ftJyyuOKHj33Xd7P1FB0VZamQ70JDAuMqmJPAJK0T0hmdTzcnGyPOrNSDlEQAREIEOAkXaE7WNmmYJVzn/s+B9u1912dRZ6OpNvVDZ4EaW/JKwNjjvuhSluKEiwhsFCKD+9iSlKITWxPHr3u9/tMLm3SGXeOuDNb35zqMYveeHjhXDhwoWZ/VivMA2HZD5OHE4PZzKFEVPOBX5vetObMt3h5ZoRzzCNYeMvNroFCxdk8jACjeLlV7/6lWME2aJiZY732ggfDrHz0l5lcJR95513+mxtHWXzW2BxZOHSHQ40zz777MJmUZxZZD33wQ9+sPB4051wsgh7vl0sS6gfxYHN53fm/8mv0xc+UHhJDIrKuB2m+vHboPjjDyUD92XZ9A9eFOGcL8PHVlyGvtA3LFdYR7m6yy67tLrngyNz+r3zG3f2VjHxOdRZX7t2bSYbTupjZ7uZgy9u5JVHFpWuKFvtffwOYQouiko+GKsS10mYjkM+8vdSeJEvWPexHlKZA/twPL/kAzs8A7E86nKS/Cn/9cZN/qxfv94HKsifMdPfw9S4Rx55xMuhfGALrHh5bpKayoJYOfvGnd+Yb750O/QJWVdkMVhaMDpw3nnnuVNPPdUH2sCyledsUWJAg4R86GfiGc/0exT8DKIwdRblPO8ATJVtIo9Dv3772986gjjwzkidWELuuuuu3rJ5//33bzVtuR/yMvRvHGRSU3nEuUsmhSug4dJenJREQAREoPMEgoNgewQOzGG2+d3wddtoBcPlU/5wWtckjPSwoFs0lrSvOBMMCUeUnIdNfwm7MktT/PjjOKmsm8wnTtrWueeemymGg2wc/JrVUWa/mQ4n9iLly+EM13w0ZI7P1EZw1Ivjb1OopN2w0dxk3rx56XnC0D5mE5ueluaxD97EPozTPLEz1DRTxQrhZrck8RgAACIrSURBVGFB3abgq8iZPRTuA4tSlz1Qc4t+20uyb9eUjIn5s5nyZy/tCaGcOU7/eoWS7tW0vVgnNrUoZYVzV0LX0w9Cz9MG9xy/A+v82Qt4plpTcnmHzeF4vCxzDr9o0SLvSDbOG9YtKpevH6fUJ510UhqKPhwPS/r5/e9/P9OXXhs49A/lP/rRj/bKPuU44ZRD+bD8+c9/PiVffocp0TLlOK/ppNhZ/F133dWzKu5/iz6V2Ad+YlZ4/hrqWcgy8MwK5xmW3INNkvl7S+vAybBNmWtSfCTySv70/hlGQf5wnXOdmnK0d4dLcpgVrq/DrOYS8/OT5jIld2JWOOm1HO4HZI1Zyab5TLmeOtO3waF0f92Vz372s74NnPCbn7RaxXCUTSAM+mSDP7XK5DPZ1EBfHnmKzMzLH559d955Z8LvbEocH2zABmny1bTa5j0EVoFp0ZJnB4EsTLFUqw2brp685S1vydQJ07humMHbBjtq1dkPeZlvaBxkUlN5BINxkUnDdpjt8heQtkVABESgiwTCRzNCGUHYz4Sw3muvvTICnw8xlDJ8xLAMH9xmKZHYaHw/m592XRbqOu07H28kXkLNeiIx/0eJWQkVtnHsscf6crww1X2BpC4L6e7LEUVq06ZNad2s8/tYmPd0HxGXzALC70dZY6Gk02MzvUI0qvCSx7mY9VBiTkDTfbzY26hhuk1eGyX1L4tEngpl2ygI4o9dszKphYKXaPNP4ds1s/9aZeJMNg1iilIsnEPVsu2HAm2bz5skRACbP3++/2CIr0fW+VDgWo37kI8+h4ItPh6vlymPqj4UUB7RRriv586dm3zmM59JzKdCwocdfY3bsDDZMcrK9aCUpLxNP6vMW3TQrAgybduUscLIhXFZ7t+gjAz95jzaJl66w71go/Jtq+lZzizJUgVi6Dfna6HTe5aNM9gU04T7NdRhzrrjwyO9LvnTLfnTD+URv3m4VlnyXN99t90zCnLkkQVqSPOhhOC9JNyXlEP53iTCZ7gR3v72t/t6ef7VTWEwivbjZ3jd8meddVZ6LvG5V623HSTJ98mmVWaeM/Dmvc6sexLkIopblHZBDrE0q9t8NZlts6BKo+GhDENZj4IKOc3vy/FYBjGwFg9AZSp7caNf8jJfd9dl0rDkEdxGUSZJeZS/orUtAiIgAjUIDEp5xKgfgj+8wGBxUmQZw8eZOVf2+T72sY/V6PHwstx8881p/7/4xS8mGzduTMwfkbemMNP20o7wohLOu9dLTVwJo/oWecmXRYnCSxcWWWeccYbfZ9PTEhRafIAzCsffkiVLWoUrj9vt9zojnPEHZ2DBkv2rV6/2TcZWM3Ee1rHaamPlEKx6+CAg1HKdhCKONrHS4WO5SbKpMK0UR7THC3GbZD6d0g8drIqqFAI2ZSwxn0vp9ZhXHtk0i8Qip/jw73lFb5nyyKYQJBb5zyss45cvzglLpmB5h/KPF8Y4wZePOfLyhwKsjtIYy65QhiXtN0l8eNiU0kwdWB30SihL4nZZx4KsbYqfKSeffHLbanqWQ7mW77c54u1ZrigDivJQF8+gLiTJnxfury7Jn34oj7g2bepwer2G6zYsUe5gFcl9jYVT2B8vkb0o3psmnstB7jWxKg2WjRYdrWmTybe+9a3Cc4jPp2i97NnepANYEsV1M2gE26LEwFfIy/O/KCFLLXJemg/leplsQOYdeOCBaV5+MwYoilI/5WVc/zjIpGHJI7iNokyK31/MYX388w5kXZZHA8GqSkVABIZNYBDKI4tSkgp1Xhh4YUOAl6UwPQzFzKglrCawngkvPoycIXCrElOnggUNyp4miRdoRvPiD+zQNksURijbLPrPtD5im/SpTV6L5jJlyhKjsfFUJfM5kRlB5PxQ4KCoazMCSz+5hqjHInHV7nYwPT/iiCNqlwkZsUTLm9PHv1fZOtcUv3Wb9JWvfCW9HlF89UpYYIV+5JVHcVmUSCEfyzofGEz7isuE6RdY+ZSlMNIeyllkoLKs6f58O3UVg6EC8+uQ6Sdtc61hAVf1xwh96CdLrAn5yGmbmHZGPVwzvUbg27ZBufyUDywpzBdXqyrjaY9McRj1JPnTTfnTL+URCmrzHZS5b7Ee5PkeKze4TngGxPc3AzNMmWqT1q9b7+tCgWRRO2tVgRKc9imDPGyaLCpopv/xuVSt8943nRTONbSB0qcshcGZkJdl0bNv+fLl6bkgR8zPW1mVfj/vCBYtLy3Ds5nnfD4NSl6Og0waljziNxlFmSTlUf5u0bYIiIAI1CDQb+URViXxxzSm2IzQVCV8/PBCgf+eUUz4JOAFiFFcFEN1EsoLzgkz7irLkKq68E+D2Tc8MbVnahrKiq4kzhtrLaZnYW5e5mMBCxz48iLdVmkEE4sek157dXzJUOaJJ55Ip39VWZORd1QSFj3hRbzOCDmKluADqUp5xIdVqJdlHeURH0lxGdbxZ1R1n2C5FJfBh1KvxKhgKINitmkKCupQR9slVgJtE0zCx2obfyp12y2yRrBIgnWLT8nH7xN4Mdo/ykny54Vfp4vyp1/Ko3B98t7B8xGL57/+9a9hd2aJvyMLRuGn/db1nZOpINrgecl98r73vS/aW70arHfqPAOraxreUaxJYytOnsfI0bLEAFx4foQlg0txQlGE8iccr6vcQrbh8iCUY2Atr9wflLzsukwaljzidx5VmTRs5ZGirdmdqiQCIiACMYEnn3zSmem1jxgW9psPFGcKpLA5ZWkvjM6sUfz+OErTlIwzuMNGLWtFN4q7aKNd7kc/+pGzj2t3xRVXNI7aQl1m5eQjZZlCxREV6vDDD4+bGPl1onoRxadXIrJcPrpcrzJFx22qgL/2zMLJ2fS/oixT9tlLjbOpk85GxVqFfp9S4RB2mAIxbYXoQQcddJAzZ9npvvwKUW+IUEPo6apko99VhwuPFZVZsWJFZSS0/POgTlRC7qOQ7CMjrNZehohhoQCRf2ykO2wWLk1p7MxyMHOMaHJtE5Hu7GPVF7cPmrbVVJaDJfdBnOyj1pkftnhXo3VTPKb57YM8XR+1Fcmfl34RyR/n3zvMsuIlKAVrNrXe2fTpgiPNdhH23iySfSGbfl+rMNEnbdDE5zVL4lplRiGTTbfNRHIk8lZVJDUbQMt02wbDnE2Rzuw75phjfDROdiJT6ka5Q7YtXrzYff3rX/f1EfHNFMjOpvyn9Q9KXnZdJg1DHvEjTLJMSi/CsBJrTLUuAiIgAl0l0E/Lo0MPPTQdAbJnpTdTLbM2gRcjffjhIC/+B2In0V3lGfc7mGFb6N3WFjXBKms6flbiPo3rOr59MP3nWiJiTp3EtYmVDGW+9rWv1SkyEnlCRB/6zR/Tim780Y2Vffvc5z7nnZJX+ZFiFDfUybKO5RHWcXEZ1utMv4inguIsvVeKzxkfPE1TiEoY+mqK2J5VELUo5A/LO+64o2e5sgxYJFAPI+xV03jLytfZb0rmTJ/tw6615WNozz7s0jqbOAIO5Ye1lPzJku6a/MHyCCtbnuNdS+Haw5KhrvXsZZdd5u8rrHjqlplpLlgdhSn54ZnIFLaqxLMu+NPDDyZ+CeNEBNJQF8s68iAuH/uYpHzeqjOWHRzvl7yM6+2iTBqGPOJ3GmWZNGzLI/k8iu9crYuACHSWQL+UR0xFiaerIaSJilGUmHqFL6AwlYa8Z599dlHWTu9juhvT9jg/sxBpdS5EYINTV14uW51kHwqFCG9NptUEXwxMJYrDNfehOwOtgkiFXFP5Pxxj8xGDjwccrfMx1iT1Q3mEr4o6KXamX0chESIYcs5M4WySUBIGxWJght+lXikfnY0ITVXK8Kr6iDwU+nDAAQdUZW19LB91CV9O+SkcbSrHsXfgBoNRTJI/U3+VLsoflJ08y7uU8BXH4JdZf/ooY3X7Hhxl1/H5VrfOQedjGmB4FoQlz7Y6aevWrYXTmQkMEupi2USG0+6jjz6aKU8dDz/8cNqlQcnLLsukYcgjfoBRl0nDVh5p2prdnUoiIAIiEAisW7cuM12N/Zhym/NjZ75v/HSNLVu2OP7M70oo5szyw1144YXOPnrTfeOywnQ3i07kli5d6kxJ55iWZ1HEap+eyV5nIW+dORx3s2fPrl1u0jKaIsBPEbSwuc58u9Q+faaskexl1TF9oSuJaWqmgEinSYR+mxWQs1FY/8c+C2HsrzlM+Jn2OIxkI7CNmzGFTM8yTC0MyayWwmqtJWbzpkTJ5LWITJntog2LyJTZbR+1btasWZl9dTcsElDaB54H/U433XiTY4pwSObA1t8T9lEbdrVemkIwLcuUk1FMkj9Tf5Uuyh/z8Tf1REZ4D9NQzXrav+OYdad/3tbprjnldubcudEUrTr1DjpPfvovU1pNoVyrWRvcKMxnFueZ/U1lcfx8ChU98MADLsiiQcnLLsukQcsjfodJl0nhWoyXoyk94x5qXQREQASGSAD/Pvm0Zs2azC4befcftChQ8DHDx9h+++3n+vGBk2lohDZ4sdy8ebM744wzvILsl7/8pZs7d26tHvICZKHUa/vvqVXpmGXiYwM/W7xwojjJ+9MpO11z8OksWoo/fMIJJ5RlG8n9KDBsBNjfO/fcc09pH226gPvpT3/q/yyinLv66qtd7L+mtOA0DvDBWiehGA0pXg/78stYaVMnf1zepsfGm55BLx9b5uDdWUSgTLmjjjoqs91kA/8SJHPu6ixCUJOiPfNuum+TO3LpkalyimfOVVdd1TeFc8yegYBRTJI/xb+K5E8xl37sxV/jhz70IWcBH/y7zPnnn1+7Wpuy5vPib6nu+0DtygeYkQGKODVV5MdlwzrvOHGyaXHxZs/1oj7Y1Om03KDkZfxc7JpMGqQ8ArxkUnr5ZVa2y2xpQwREQAQmnADOSuNk89qdmcb6PyyN+JBlpIZ1PnixEMF6YpwVR4HHl770JWfz4x0vXjYNLXWaG46XLWFj89I75yi77Hz6vZ8P/CVLljisIRhJq+OcO/QBqyPz/+OVmE2swUL5mV6ipLHocF4hhIPwXgklGwqkOlY+veqaieOxUgpHs01S7DCVcvPmzetpQRQcsIZ2uLbMl0bYbLTEysCiCfkyjILjSL5fCcX0wR862Fl4cl8l1g8oCftpqRicfNPAqFoeSf6UX1GSP+VspnMEx9gW1dPLaJT5sTKhql6bHpw6yp6OI/uqNgZ1LH4W0EbeorNNu/k6cYLdJG233Xbegisuk1dyD0JedlUmDVIe8RtIJsVXYnZdyqMsD22JgAhMMAFG4CwUbobAvvvu682ZMWmeM2eOw7S47stVpqIx2TCHzA6FBQq1M888s9ZZ7bbbbt46hkhZSlMJ8PJOlDEUI02nZYXRTpScXU5YFvzxj390vBCac3VHZC2USUUf+URbW7FiRSdPN35RtxDDjc4hKFZCoZ133jmsFi75uMOKLU6nnnpqvNloPbbAtNDcjcpWZUYpRqQjllh1XnDBBX6abFWZNsdiflVR/drU3Y8ykj+9KUr+9GbUJMcNN9zgmCqJDLrtttumKC+q6jKn037ggihkPK+7lF7zmtdkulskZzIZamzkp6lt27atRqmXsqAoyiux8sqjkLuf8rKrMmlQ8gjGkknhSiteSnlUzEV7RUAEJpAAAiMvvNuO0o8zPsLx8pGfD/89zuc8yHPDwgLFSROLo9AfphhYBLtMSN9wbNSX1113XeYaQilrzlcdIZQ5xnQrQqqbE/op/iiw+Gv6cj4KPMypedoNcwScrtdZyX+c9PLRgRUblpIh4XMMq602CUsvPjRJKPXe8573tKlmShmsr1AcMT2Djxg+CE466aQp+cKOW2+91S1YsMB95zvfCbtqL2PLAIsUV7vcsDJK/tQjLflTj1OdXDwPLMKnv++aWhLi+wfZwxR2rGa6lPJT7Joq8ovONT/V/Nlnny3KVrqvyBLVItil+QclL7sokwYlj4AtmZRecqUr3brbS09DB0RABERg+gTyflQQqjjCVppKAF8rO+6449QD2tOYAJZZbT9muUb5kO+iNRwWbCi/8CtQlnAefsopp7jf/OY3GSeu+P/BkX3X0k477ZR2uanyKO+oFb9DVemKK67IHJ6OtRZWcSFAwGGHHZapt+0Gyj98rfDbcv1jAcGIelXCvxfO95v65qDOWHnUS/FW1YdBHZP8qU9W8qc+q6qcWODtueeeVVkqj1m4eG+RXZlpBA/mfcWhPMI343RScGwd6shPQQ37y5ZF7ROcJKRBycsuyqRByCM4SyaFq616KeVRNR8dFQERmCACjHzHCpH8SH9dFHwM9WMkq257yicCXSTw73//23f7uuuv69l9Iq5hdRL7kWj6ct6zkSFkiKeaMcIZT6Xq1Xz8bCJv1VSLu+++21no7bRKppXg2L9tWrt2rS9Km0cffXTbajLljjzySPezn/3M4Sj22muvreWAG/9gJAIVNE0x67zlQdO6BpFf8mcQVFWnCEwlgNI6H92MZ1GT9IUvfMFHnw1ljjjiiLDqlzggb5JuvvnmTHaUOm9729vSfYOSl12USYOQR4CWTEovt8oVKY8q8eigCIjApBGIzYSbWgbA6tJLL/Uh6ZcvXz5p6HS+ItCKwC233FKrHAqkWGmQt8SpVckMZ8o7Bc+HjK7q3mtf+1of5SzkwedIWcLhdEhYb33jG98Im42XKMLxh0LC0iA/wt64QiuA430URljOXX/99d4Bf6968Al0//33e6VZG2uJLVu2pE3Eo+3pzhFYkfwZgR9BXRh7AihqUSDFaf369fFm5TrPw69+9at+enXISBAR/D+F9Mwzz7jbb789bPZc5pVXn/70pwvL9Ftedk0mDUIeAVoyqfByK9wp5VEhFu0UARGYVAIHHnhgeur4C8EXTd2Evw5Goxidb+tbpG5byicC40KACF4bNmyodTq89JOwQGqjQChrpM00qLK6qvYz1ex1r3tdmmXTpvIpe2mmF1eYmkjUwpDKfGowXQ0lS0h85KBAapsIhxymfOVH19vUyVTFiy66yBclghYWAPS36A/n6ExVw98Hvm5wEE/ggqbTPB977DEfJTL0d1R92Un+hF9ISxEYLIHTTj0tY33E8+cnP/lJrUZDsJD4PY/n81lnnZUpH55zmZ0FG/iOCpEsOfze977XnXjiiQU5nc/XT3nZNZnUb3kEZMmkwkutfKe9MCmJgAiIQOcJnHbaaYk96fyfCfTW52PR1hIbDU/rWrlyZc+6zJw4sVGLxJRGifkQSGyUv2cZZRCBSSdgipD0PjNLkOSf//xnJZI///nPiVkf+TILFy4szWuRANN6eSbYiHBp3nDgwQcfzJSx6QLhUOmS/oZnDkvzo1OaNz5wyCGHpOUsul58qOf6lVdemZaFXz6ZH6jElDFpHouuls/SeHufffbx9dn0ssQUVo3LxwWuuuqq5GUve1nav5hf3fX3v//9cZW11tevW5+2ab6FEp7Zo5gkf0bxV1GfxpWAOd5PnwvhGW6O6ytP1wJc+DKmkE9sgHFK3sWLF2fq/OY3vzklT7yDZ7YpcNIyPL8fffTROItfH5S8pPIuyaR+yiPOfRxk0lvf+tb0+uGaHnTC6aCSCIiACHSeQL+UR4AwB73pgxhFkvkOKeTz3HPPJRdffHFi0zh8fvORlNgUjMK82ikCIpAlEL8M8+LO9tatW7OZXtyyKVrJBz7wAX+fmdVRYtH+MvlQBlhoev/Sfdxxx6X3L/WicDJT/4QPc+7ZkEKZhx9+OFm6dGmmjFk4+ZdKs3TxZSy6iy9mU6e8kgsFlUWFy5ShrUsuuSSxCHG+DHmLkoUbT8uZv4miLKX74ICSirbM+safU8hs1jWJOYJN6z7mmGPCodZLzvPlL3+5r/Oggw5qXQ8FbQqH7zN9n86fWSA17senPvWptE2us1FOkj+j/Ouob+NGwKI7ps8GnksWNc3Li6LzZGCQAUIGCi+//PKiLIm5O0j233//tE5kyTnnnFOY94knnkgYOAnPQ943UU4VpX7Ky3z9XZFJ/ZRHMBgXmSTlUf6K1rYIiIAI1CDQT+URzX3iE59IBTovExaWPtm4cWPy0EMPJWvWrEmOPfZY/5KB0OfjyqIEFY4W1ei6sojARBKIX4aDgsL8GCVYy6CENcfziTkRTWyKQMJ+7jVexM8999wpvOK6wot40ZJR3ZBs6lJ6jxfljffZ1C9f7NBDD61dBoVFUeK8Qt18hJgj56JspfvMGbbnQB0WaS8x/xteaRUY8XHz+c9/PgkKr9KKahyAfeirTR2rUaI8i0UVTOsKdbZZorBvmvbee++0bWTFqCfJn1H/hdS/cSKAddAOO+yQPiN4LmMVynOf5x4yB2tUnlcMEmLJWJUYODj++OO9oik843j+8Ty1qGmJTS32AxZYc4bjPKO2bN5SWm0s46YrL/ONdEUm9VMewWBcZJKUR/krWtsiIAIiUINAv5VHfHgxGhOsioKAj5eMEvGCwZQXJREQgWYEFi1a5F+cly1b5qdDYe6Pcii+x+L1vfbaK7FoW4WN8LGNRRL3JFMAzPFw8vrXv94reNlmP3VjhRTS4YcfXlgGyx7zq5OYg2r/ocCLelAeYW2Ecob6OI5imXZCW+zjGHnKlEe0H1sIlY00h34WLbFwij88Aifq/cUvflFUpNW+3Xff3f8eFukt+de//tWqjlDIHLOW/rah/3WWd9xxR6iy1vL5559PmKpG3XwUmh+7WuVmMpPkz0zSV9uTSOBPf/pTgtUqz++y59D8+fOT++69rzYenjXmJ65SrpkPvOS8887rqezvp7wsOoEuyKR+yiMYjItMGrbyaBbw7CZREgEREIFOEzj99NPdqlWr/DngxLBuRIpeJ80j8uabbnYP/v5B9/TTT/uw0kR52mWXXZzNvXbbb799ryp0XAREoIDAD3/4Q2dTxpxNG3A4GyU99dRT/t4lMta2bdt89Jo99tjD2ctRJtJYQXWd2vXlL3/ZmYWV77P58HF33nln4/7bx4676aab3KOPPuqIHmYfF27XXXdtXE9ZARzIBsfSppxzOOLuYlq9erWj/6R3vetd7p577unMaUj+dOanUkfHhADBAcxVgTNfRO6RRx7xwRlscMDZ4EXrIA1mXep+97vfeWfXyDwbXHBEVvzPt/+nW7BwQS1yg5aXoy6TxkUe8WP3WyaZVZx74IEH/HVkPo/c0UcfXeuaaptJyqO25FROBERgpAgMSnk0UiepzoiACIwFAaKGofAx/xjOHEg7s150+ZDJM32iJ5xwgjMfH74bKFxQvHQxveMd73C//vWvfde//e1vO5ty3MXTUJ9FQAREYGAERl0mjYs84gfst0watvJou4FdhapYBERABERABERABERgCgHCI++7775+v00Hc5dddtmUPDO5w6ZNOUa6SVhZdlVxhNIrKI5sSqFbsmTJTGJV2yIgAiIwkgRGWSaNizzihx8HmSTl0UjewuqUCIiACIiACIjAOBNYuXKlnxLBOV5zzTUOJdKopFtuvsVPIaQ/H/nIR0alW437ceGFF6ZlzIm4M79X6bZWREAEREAEXiIwqjJpXOQRpMdBJkl59NI9ozUREAEREAEREAERGAoBTM2POuoo39Zf/vIX973vfW8o7dZpZO3/rPXZmFI3aP8JdfrTJg9Mf/zjH/uiWE/hW0tJBERABESgmMCoyqRxkEcQHxeZJOVR8f2jvSIgAiIgAiIgAiIwUAIWAtrhgJ+0YsUK949//GOg7dWp/G9/+5u7/fbbfdZ3vvOdbu7cuXWKjVwelEX4lCKdf/75Cm4wcr+QOiQCIjBqBEZNJo2LPOJ3HheZJOXRqN216o8IiIAIiIAIiMBEELCw0O6ss87y5/rYY4+55cuXz/h5YwFFxCGShZme8f606QARZ66++mpflOibBx98cJtqVEYEREAEJorAqMmkcZBHXEDjJJOkPJqoR4JOVgREQAREQAREYJQIEEY+OHK+/PLL3V133TWj3Vu3bp1v/5WvfGUnlUdErsO/EWnevHmpEsnv0D8REAEREIFKAqMkk7oujwA9bjJJyqPK20cHRUAEREAEREAERGCwBFavXu0WLlzonnvuOe+gevPmzYNtsKT2xx9/3G3atMkfXbRokWMUukuJaX+HHXaYt5x69atf7SPGvepVr+rSKaivIiACIjDjBEZBJnVdHvEjjqNMkvJoxm9PdUAEREAEREAERGCSCeCYesOGDd5S5umnn3YHHHCAe/bZZ4eOZO3ate7555/37S5dunTo7U+3QZx7/+EPf3BYTXEue+yxx3SrVHkREAERmDgCoyCTui6PuGjGUSZJeTRxjwOdsAiIgAiIgAiIwKgR2HHHHd3GjRsdEW+wPFq8ePHQuxisjubMmdM5P0EXXXSRu+aaaxwWR9dff33n+j/0H1sNioAIiEAFgZmWSV2WR2AdV5n0fyquGR0SAREQgU4SuPfee92ee+7Zs+/M6z7xxBN75lMGERABERgGAV7W7777bh+VZfbs2cNoMtPGsmXL3FNPPeWOP/54NxPtZzrTcGPWrFmOqXYXXHCBV8A1LK7sIiACIiACOQIzKZO6LI/A2A+ZVOdb5ve//33uVxvs5qzE0mCbUO0iIAIiMHgCp59+ulu1alWjhk4++WRHWFIlERABERABERABERABERABERgVAiigmiSiujFVbpBJ09YGSVd1i4AIiIAIiIAIiIAIiIAIiIAIiIAIiEDHCWjaWsd/QHVfBETgBQInnHCCdzbbxJhy/vz5wicCIiACIiACIiACIiACIiACI0VgzZo1jfqzzz77NMrfJrOmrbWhpjIiIAIiIAIiIAIiIAIiIAIiIAIiIAIiMCEENG1tQn5onaYIiIAIiIAIiIAIiIAIiIAIiIAIiIAItCEg5VEbaiojAiIgAiIgAiIgAiIgAiIgAiIgAiIgAhNCQMqjCfmhdZoiIAIiIAIiIAIiIAIiIAIiIAIiIAIi0IaAlEdtqKmMCIiACIiACIiACIiACIiACIiACIiACEwIASmPJuSH1mmKgAiIgAiIgAiIgAiIgAiIgAiIgAiIQBsCUh61oaYyIiACIiACIiACIiACIiACIiACIiACIjAhBKQ8mpAfWqcpAiIgAiIgAiIgAiIgAiIgAiIgAiIgAm0ISHnUhprKiIAIiIAIiIAIiIAIiIAIiIAIiIAIiMCEEJDyaEJ+aJ2mCIiACIiACIiACIiACIiACIiACIiACLQhIOVRG2oqIwIiIAIiIAIiIAIiIAIiIAIiIAIiIAITQkDKown5oXWaIiACIiACIiACIiACIiACIiACIiACItCGgJRHbaipjAiIgAiIgAiIgAiIgAiIgAiIgAiIgAhMCAEpjybkh9ZpioAIiIAIiIAIiIAIiIAIiIAIiIAIiEAbAlIetaGmMiIgAiIgAiIgAiIgAiIgAiIgAiIgAiIwIQSkPJqQH1qnKQIiIAIiIAIiIAIiIAIiIAIiIAIiIAJtCEh51IaayoiACIiACIiACIiACIiACIiACIiACIjAhBCQ8mhCfmidpgiIgAiIgAiIgAiIgAiIgAiIgAiIgAi0ISDlURtqKiMCIiACIiACIiACIiACIiACIiACIiACE0JAyqMJ+aF1miIgAiIgAiIgAiIgAiIgAiIgAiIgAiLQhoCUR22oqYwIiIAIiIAIiIAIiIAIiIAIiIAIiIAITAiB/w+z31hSBKP9qwAAAABJRU5ErkJggg==;" vertex="1" parent="1">
          <mxGeometry x="623.44" y="720" width="473.11" height="90" as="geometry" />
        </mxCell>
        <mxCell id="BSYq-ft0iuZ4jn7_VfeT-18" value="" style="rounded=0;whiteSpace=wrap;html=1;" vertex="1" parent="1">
          <mxGeometry x="740" y="327.5" width="100" height="310" as="geometry" />
        </mxCell>
        <mxCell id="BSYq-ft0iuZ4jn7_VfeT-19" value="&lt;font style=&quot;font-size: 12px;&quot;&gt;&lt;b&gt;Hardware-efficient ansatz structure&lt;/b&gt;&lt;/font&gt;" style="text;html=1;strokeColor=none;fillColor=none;align=center;verticalAlign=middle;whiteSpace=wrap;rounded=0;fontSize=10;fontFamily=Courier New;" vertex="1" parent="1">
          <mxGeometry x="710" y="280" width="300" height="30" as="geometry" />
        </mxCell>
        <mxCell id="BSYq-ft0iuZ4jn7_VfeT-20" value="&lt;font style=&quot;font-size: 12px;&quot;&gt;&lt;span style=&quot;border-color: var(--border-color); font-family: Helvetica; font-style: normal; font-variant-ligatures: normal; font-variant-caps: normal; font-weight: 400; letter-spacing: normal; orphans: 2; text-indent: 0px; text-transform: none; widows: 2; word-spacing: 0px; -webkit-text-stroke-width: 0px; text-decoration-thickness: initial; text-decoration-style: initial; text-decoration-color: initial; display: inline-block; text-align: left; color: rgb(51, 51, 51); background-color: rgb(255, 255, 255); box-sizing: content-box !important;&quot; class=&quot;mjx-mo&quot; id=&quot;MJXc-Node-8&quot;&gt;&lt;span style=&quot;border-color: var(--border-color); display: block; padding-top: 0.451em; padding-bottom: 0.619em; box-sizing: content-box !important;&quot; class=&quot;mjx-char MJXc-TeX-main-R&quot;&gt;R(&lt;/span&gt;&lt;/span&gt;&lt;span style=&quot;border-color: var(--border-color); font-family: Helvetica; font-style: normal; font-variant-ligatures: normal; font-variant-caps: normal; font-weight: 400; letter-spacing: normal; orphans: 2; text-indent: 0px; text-transform: none; widows: 2; word-spacing: 0px; -webkit-text-stroke-width: 0px; text-decoration-thickness: initial; text-decoration-style: initial; text-decoration-color: initial; display: inline-block; text-align: left; color: rgb(51, 51, 51); background-color: rgb(255, 255, 255); box-sizing: content-box !important;&quot; class=&quot;mjx-mi&quot; id=&quot;MJXc-Node-9&quot;&gt;&lt;span style=&quot;border-color: var(--border-color); display: block; padding-top: 0.451em; padding-bottom: 0.507em; box-sizing: content-box !important;&quot; class=&quot;mjx-char MJXc-TeX-math-I&quot;&gt;ϕ&lt;/span&gt;&lt;/span&gt;&lt;span style=&quot;border-color: var(--border-color); font-family: Helvetica; font-style: normal; font-variant-ligatures: normal; font-variant-caps: normal; font-weight: 400; letter-spacing: normal; orphans: 2; text-indent: 0px; text-transform: none; widows: 2; word-spacing: 0px; -webkit-text-stroke-width: 0px; text-decoration-thickness: initial; text-decoration-style: initial; text-decoration-color: initial; display: inline-block; text-align: left; color: rgb(51, 51, 51); background-color: rgb(255, 255, 255); box-sizing: content-box !important;&quot; class=&quot;mjx-mo&quot; id=&quot;MJXc-Node-10&quot;&gt;&lt;span style=&quot;border-color: var(--border-color); display: block; margin-top: -0.165em; padding-bottom: 0.563em; box-sizing: content-box !important;&quot; class=&quot;mjx-char MJXc-TeX-main-R&quot;&gt;,&lt;/span&gt;&lt;/span&gt;&lt;span style=&quot;border-color: var(--border-color); font-family: Helvetica; font-style: normal; font-variant-ligatures: normal; font-variant-caps: normal; font-weight: 400; letter-spacing: normal; orphans: 2; text-indent: 0px; text-transform: none; widows: 2; word-spacing: 0px; -webkit-text-stroke-width: 0px; text-decoration-thickness: initial; text-decoration-style: initial; text-decoration-color: initial; display: inline-block; text-align: left; margin-left: 0.167em; color: rgb(51, 51, 51); background-color: rgb(255, 255, 255); box-sizing: content-box !important;&quot; class=&quot;mjx-mi MJXc-space1&quot; id=&quot;MJXc-Node-11&quot;&gt;&lt;span style=&quot;border-color: var(--border-color); display: block; padding-top: 0.507em; padding-bottom: 0.283em; box-sizing: content-box !important;&quot; class=&quot;mjx-char MJXc-TeX-math-I&quot;&gt;θ&lt;/span&gt;&lt;/span&gt;&lt;span style=&quot;border-color: var(--border-color); font-family: Helvetica; font-style: normal; font-variant-ligatures: normal; font-variant-caps: normal; font-weight: 400; letter-spacing: normal; orphans: 2; text-indent: 0px; text-transform: none; widows: 2; word-spacing: 0px; -webkit-text-stroke-width: 0px; text-decoration-thickness: initial; text-decoration-style: initial; text-decoration-color: initial; display: inline-block; text-align: left; color: rgb(51, 51, 51); background-color: rgb(255, 255, 255); box-sizing: content-box !important;&quot; class=&quot;mjx-mo&quot; id=&quot;MJXc-Node-12&quot;&gt;&lt;span style=&quot;border-color: var(--border-color); display: block; margin-top: -0.165em; padding-bottom: 0.563em; box-sizing: content-box !important;&quot; class=&quot;mjx-char MJXc-TeX-main-R&quot;&gt;,&lt;/span&gt;&lt;/span&gt;&lt;span style=&quot;border-color: var(--border-color); font-family: Helvetica; font-style: normal; font-variant-ligatures: normal; font-variant-caps: normal; font-weight: 400; letter-spacing: normal; orphans: 2; text-indent: 0px; text-transform: none; widows: 2; word-spacing: 0px; -webkit-text-stroke-width: 0px; text-decoration-thickness: initial; text-decoration-style: initial; text-decoration-color: initial; display: inline-block; text-align: left; margin-left: 0.167em; color: rgb(51, 51, 51); background-color: rgb(255, 255, 255); box-sizing: content-box !important;&quot; class=&quot;mjx-mi MJXc-space1&quot; id=&quot;MJXc-Node-13&quot;&gt;&lt;span style=&quot;border-color: var(--border-color); display: block; padding-top: 0.227em; padding-bottom: 0.283em; box-sizing: content-box !important;&quot; class=&quot;mjx-char MJXc-TeX-math-I&quot;&gt;ω&lt;/span&gt;&lt;/span&gt;&lt;span style=&quot;border-color: var(--border-color); font-family: Helvetica; font-style: normal; font-variant-ligatures: normal; font-variant-caps: normal; font-weight: 400; letter-spacing: normal; orphans: 2; text-indent: 0px; text-transform: none; widows: 2; word-spacing: 0px; -webkit-text-stroke-width: 0px; text-decoration-thickness: initial; text-decoration-style: initial; text-decoration-color: initial; display: inline-block; text-align: left; color: rgb(51, 51, 51); background-color: rgb(255, 255, 255); box-sizing: content-box !important;&quot; class=&quot;mjx-mo&quot; id=&quot;MJXc-Node-14&quot;&gt;&lt;span style=&quot;border-color: var(--border-color); display: block; padding-top: 0.451em; padding-bottom: 0.619em; box-sizing: content-box !important;&quot; class=&quot;mjx-char MJXc-TeX-main-R&quot;&gt;)&lt;/span&gt;&lt;/span&gt;&lt;/font&gt;" style="rounded=0;whiteSpace=wrap;html=1;" vertex="1" parent="1">
          <mxGeometry x="755" y="327.5" width="70" height="30" as="geometry" />
        </mxCell>
        <mxCell id="BSYq-ft0iuZ4jn7_VfeT-21" value="&lt;font style=&quot;font-size: 12px;&quot;&gt;&lt;span style=&quot;border-color: var(--border-color); font-family: Helvetica; font-style: normal; font-variant-ligatures: normal; font-variant-caps: normal; font-weight: 400; letter-spacing: normal; orphans: 2; text-indent: 0px; text-transform: none; widows: 2; word-spacing: 0px; -webkit-text-stroke-width: 0px; text-decoration-thickness: initial; text-decoration-style: initial; text-decoration-color: initial; display: inline-block; text-align: left; color: rgb(51, 51, 51); background-color: rgb(255, 255, 255); box-sizing: content-box !important;&quot; class=&quot;mjx-mo&quot; id=&quot;MJXc-Node-8&quot;&gt;&lt;span style=&quot;border-color: var(--border-color); display: block; padding-top: 0.451em; padding-bottom: 0.619em; box-sizing: content-box !important;&quot; class=&quot;mjx-char MJXc-TeX-main-R&quot;&gt;R(&lt;/span&gt;&lt;/span&gt;&lt;span style=&quot;border-color: var(--border-color); font-family: Helvetica; font-style: normal; font-variant-ligatures: normal; font-variant-caps: normal; font-weight: 400; letter-spacing: normal; orphans: 2; text-indent: 0px; text-transform: none; widows: 2; word-spacing: 0px; -webkit-text-stroke-width: 0px; text-decoration-thickness: initial; text-decoration-style: initial; text-decoration-color: initial; display: inline-block; text-align: left; color: rgb(51, 51, 51); background-color: rgb(255, 255, 255); box-sizing: content-box !important;&quot; class=&quot;mjx-mi&quot; id=&quot;MJXc-Node-9&quot;&gt;&lt;span style=&quot;border-color: var(--border-color); display: block; padding-top: 0.451em; padding-bottom: 0.507em; box-sizing: content-box !important;&quot; class=&quot;mjx-char MJXc-TeX-math-I&quot;&gt;ϕ&lt;/span&gt;&lt;/span&gt;&lt;span style=&quot;border-color: var(--border-color); font-family: Helvetica; font-style: normal; font-variant-ligatures: normal; font-variant-caps: normal; font-weight: 400; letter-spacing: normal; orphans: 2; text-indent: 0px; text-transform: none; widows: 2; word-spacing: 0px; -webkit-text-stroke-width: 0px; text-decoration-thickness: initial; text-decoration-style: initial; text-decoration-color: initial; display: inline-block; text-align: left; color: rgb(51, 51, 51); background-color: rgb(255, 255, 255); box-sizing: content-box !important;&quot; class=&quot;mjx-mo&quot; id=&quot;MJXc-Node-10&quot;&gt;&lt;span style=&quot;border-color: var(--border-color); display: block; margin-top: -0.165em; padding-bottom: 0.563em; box-sizing: content-box !important;&quot; class=&quot;mjx-char MJXc-TeX-main-R&quot;&gt;,&lt;/span&gt;&lt;/span&gt;&lt;span style=&quot;border-color: var(--border-color); font-family: Helvetica; font-style: normal; font-variant-ligatures: normal; font-variant-caps: normal; font-weight: 400; letter-spacing: normal; orphans: 2; text-indent: 0px; text-transform: none; widows: 2; word-spacing: 0px; -webkit-text-stroke-width: 0px; text-decoration-thickness: initial; text-decoration-style: initial; text-decoration-color: initial; display: inline-block; text-align: left; margin-left: 0.167em; color: rgb(51, 51, 51); background-color: rgb(255, 255, 255); box-sizing: content-box !important;&quot; class=&quot;mjx-mi MJXc-space1&quot; id=&quot;MJXc-Node-11&quot;&gt;&lt;span style=&quot;border-color: var(--border-color); display: block; padding-top: 0.507em; padding-bottom: 0.283em; box-sizing: content-box !important;&quot; class=&quot;mjx-char MJXc-TeX-math-I&quot;&gt;θ&lt;/span&gt;&lt;/span&gt;&lt;span style=&quot;border-color: var(--border-color); font-family: Helvetica; font-style: normal; font-variant-ligatures: normal; font-variant-caps: normal; font-weight: 400; letter-spacing: normal; orphans: 2; text-indent: 0px; text-transform: none; widows: 2; word-spacing: 0px; -webkit-text-stroke-width: 0px; text-decoration-thickness: initial; text-decoration-style: initial; text-decoration-color: initial; display: inline-block; text-align: left; color: rgb(51, 51, 51); background-color: rgb(255, 255, 255); box-sizing: content-box !important;&quot; class=&quot;mjx-mo&quot; id=&quot;MJXc-Node-12&quot;&gt;&lt;span style=&quot;border-color: var(--border-color); display: block; margin-top: -0.165em; padding-bottom: 0.563em; box-sizing: content-box !important;&quot; class=&quot;mjx-char MJXc-TeX-main-R&quot;&gt;,&lt;/span&gt;&lt;/span&gt;&lt;span style=&quot;border-color: var(--border-color); font-family: Helvetica; font-style: normal; font-variant-ligatures: normal; font-variant-caps: normal; font-weight: 400; letter-spacing: normal; orphans: 2; text-indent: 0px; text-transform: none; widows: 2; word-spacing: 0px; -webkit-text-stroke-width: 0px; text-decoration-thickness: initial; text-decoration-style: initial; text-decoration-color: initial; display: inline-block; text-align: left; margin-left: 0.167em; color: rgb(51, 51, 51); background-color: rgb(255, 255, 255); box-sizing: content-box !important;&quot; class=&quot;mjx-mi MJXc-space1&quot; id=&quot;MJXc-Node-13&quot;&gt;&lt;span style=&quot;border-color: var(--border-color); display: block; padding-top: 0.227em; padding-bottom: 0.283em; box-sizing: content-box !important;&quot; class=&quot;mjx-char MJXc-TeX-math-I&quot;&gt;ω&lt;/span&gt;&lt;/span&gt;&lt;span style=&quot;border-color: var(--border-color); font-family: Helvetica; font-style: normal; font-variant-ligatures: normal; font-variant-caps: normal; font-weight: 400; letter-spacing: normal; orphans: 2; text-indent: 0px; text-transform: none; widows: 2; word-spacing: 0px; -webkit-text-stroke-width: 0px; text-decoration-thickness: initial; text-decoration-style: initial; text-decoration-color: initial; display: inline-block; text-align: left; color: rgb(51, 51, 51); background-color: rgb(255, 255, 255); box-sizing: content-box !important;&quot; class=&quot;mjx-mo&quot; id=&quot;MJXc-Node-14&quot;&gt;&lt;span style=&quot;border-color: var(--border-color); display: block; padding-top: 0.451em; padding-bottom: 0.619em; box-sizing: content-box !important;&quot; class=&quot;mjx-char MJXc-TeX-main-R&quot;&gt;)&lt;/span&gt;&lt;/span&gt;&lt;/font&gt;" style="rounded=0;whiteSpace=wrap;html=1;" vertex="1" parent="1">
          <mxGeometry x="755" y="607.5" width="70" height="30" as="geometry" />
        </mxCell>
        <mxCell id="BSYq-ft0iuZ4jn7_VfeT-22" value="&lt;font style=&quot;font-size: 12px;&quot;&gt;&lt;span style=&quot;border-color: var(--border-color); font-family: Helvetica; font-style: normal; font-variant-ligatures: normal; font-variant-caps: normal; font-weight: 400; letter-spacing: normal; orphans: 2; text-indent: 0px; text-transform: none; widows: 2; word-spacing: 0px; -webkit-text-stroke-width: 0px; text-decoration-thickness: initial; text-decoration-style: initial; text-decoration-color: initial; display: inline-block; text-align: left; color: rgb(51, 51, 51); background-color: rgb(255, 255, 255); box-sizing: content-box !important;&quot; class=&quot;mjx-mo&quot; id=&quot;MJXc-Node-8&quot;&gt;&lt;span style=&quot;border-color: var(--border-color); display: block; padding-top: 0.451em; padding-bottom: 0.619em; box-sizing: content-box !important;&quot; class=&quot;mjx-char MJXc-TeX-main-R&quot;&gt;R(&lt;/span&gt;&lt;/span&gt;&lt;span style=&quot;border-color: var(--border-color); font-family: Helvetica; font-style: normal; font-variant-ligatures: normal; font-variant-caps: normal; font-weight: 400; letter-spacing: normal; orphans: 2; text-indent: 0px; text-transform: none; widows: 2; word-spacing: 0px; -webkit-text-stroke-width: 0px; text-decoration-thickness: initial; text-decoration-style: initial; text-decoration-color: initial; display: inline-block; text-align: left; color: rgb(51, 51, 51); background-color: rgb(255, 255, 255); box-sizing: content-box !important;&quot; class=&quot;mjx-mi&quot; id=&quot;MJXc-Node-9&quot;&gt;&lt;span style=&quot;border-color: var(--border-color); display: block; padding-top: 0.451em; padding-bottom: 0.507em; box-sizing: content-box !important;&quot; class=&quot;mjx-char MJXc-TeX-math-I&quot;&gt;ϕ&lt;/span&gt;&lt;/span&gt;&lt;span style=&quot;border-color: var(--border-color); font-family: Helvetica; font-style: normal; font-variant-ligatures: normal; font-variant-caps: normal; font-weight: 400; letter-spacing: normal; orphans: 2; text-indent: 0px; text-transform: none; widows: 2; word-spacing: 0px; -webkit-text-stroke-width: 0px; text-decoration-thickness: initial; text-decoration-style: initial; text-decoration-color: initial; display: inline-block; text-align: left; color: rgb(51, 51, 51); background-color: rgb(255, 255, 255); box-sizing: content-box !important;&quot; class=&quot;mjx-mo&quot; id=&quot;MJXc-Node-10&quot;&gt;&lt;span style=&quot;border-color: var(--border-color); display: block; margin-top: -0.165em; padding-bottom: 0.563em; box-sizing: content-box !important;&quot; class=&quot;mjx-char MJXc-TeX-main-R&quot;&gt;,&lt;/span&gt;&lt;/span&gt;&lt;span style=&quot;border-color: var(--border-color); font-family: Helvetica; font-style: normal; font-variant-ligatures: normal; font-variant-caps: normal; font-weight: 400; letter-spacing: normal; orphans: 2; text-indent: 0px; text-transform: none; widows: 2; word-spacing: 0px; -webkit-text-stroke-width: 0px; text-decoration-thickness: initial; text-decoration-style: initial; text-decoration-color: initial; display: inline-block; text-align: left; margin-left: 0.167em; color: rgb(51, 51, 51); background-color: rgb(255, 255, 255); box-sizing: content-box !important;&quot; class=&quot;mjx-mi MJXc-space1&quot; id=&quot;MJXc-Node-11&quot;&gt;&lt;span style=&quot;border-color: var(--border-color); display: block; padding-top: 0.507em; padding-bottom: 0.283em; box-sizing: content-box !important;&quot; class=&quot;mjx-char MJXc-TeX-math-I&quot;&gt;θ&lt;/span&gt;&lt;/span&gt;&lt;span style=&quot;border-color: var(--border-color); font-family: Helvetica; font-style: normal; font-variant-ligatures: normal; font-variant-caps: normal; font-weight: 400; letter-spacing: normal; orphans: 2; text-indent: 0px; text-transform: none; widows: 2; word-spacing: 0px; -webkit-text-stroke-width: 0px; text-decoration-thickness: initial; text-decoration-style: initial; text-decoration-color: initial; display: inline-block; text-align: left; color: rgb(51, 51, 51); background-color: rgb(255, 255, 255); box-sizing: content-box !important;&quot; class=&quot;mjx-mo&quot; id=&quot;MJXc-Node-12&quot;&gt;&lt;span style=&quot;border-color: var(--border-color); display: block; margin-top: -0.165em; padding-bottom: 0.563em; box-sizing: content-box !important;&quot; class=&quot;mjx-char MJXc-TeX-main-R&quot;&gt;,&lt;/span&gt;&lt;/span&gt;&lt;span style=&quot;border-color: var(--border-color); font-family: Helvetica; font-style: normal; font-variant-ligatures: normal; font-variant-caps: normal; font-weight: 400; letter-spacing: normal; orphans: 2; text-indent: 0px; text-transform: none; widows: 2; word-spacing: 0px; -webkit-text-stroke-width: 0px; text-decoration-thickness: initial; text-decoration-style: initial; text-decoration-color: initial; display: inline-block; text-align: left; margin-left: 0.167em; color: rgb(51, 51, 51); background-color: rgb(255, 255, 255); box-sizing: content-box !important;&quot; class=&quot;mjx-mi MJXc-space1&quot; id=&quot;MJXc-Node-13&quot;&gt;&lt;span style=&quot;border-color: var(--border-color); display: block; padding-top: 0.227em; padding-bottom: 0.283em; box-sizing: content-box !important;&quot; class=&quot;mjx-char MJXc-TeX-math-I&quot;&gt;ω&lt;/span&gt;&lt;/span&gt;&lt;span style=&quot;border-color: var(--border-color); font-family: Helvetica; font-style: normal; font-variant-ligatures: normal; font-variant-caps: normal; font-weight: 400; letter-spacing: normal; orphans: 2; text-indent: 0px; text-transform: none; widows: 2; word-spacing: 0px; -webkit-text-stroke-width: 0px; text-decoration-thickness: initial; text-decoration-style: initial; text-decoration-color: initial; display: inline-block; text-align: left; color: rgb(51, 51, 51); background-color: rgb(255, 255, 255); box-sizing: content-box !important;&quot; class=&quot;mjx-mo&quot; id=&quot;MJXc-Node-14&quot;&gt;&lt;span style=&quot;border-color: var(--border-color); display: block; padding-top: 0.451em; padding-bottom: 0.619em; box-sizing: content-box !important;&quot; class=&quot;mjx-char MJXc-TeX-main-R&quot;&gt;)&lt;/span&gt;&lt;/span&gt;&lt;/font&gt;" style="rounded=0;whiteSpace=wrap;html=1;" vertex="1" parent="1">
          <mxGeometry x="755" y="467.5" width="70" height="30" as="geometry" />
        </mxCell>
        <mxCell id="BSYq-ft0iuZ4jn7_VfeT-23" value="" style="endArrow=none;dashed=1;html=1;dashPattern=1 3;strokeWidth=2;rounded=0;entryX=0.514;entryY=1.053;entryDx=0;entryDy=0;entryPerimeter=0;exitX=0.503;exitY=0.053;exitDx=0;exitDy=0;exitPerimeter=0;" edge="1" parent="1">
          <mxGeometry width="50" height="50" relative="1" as="geometry">
            <mxPoint x="789.8100000000001" y="467.49999999999994" as="sourcePoint" />
            <mxPoint x="789.6" y="357.50000000000006" as="targetPoint" />
            <Array as="points">
              <mxPoint x="789.6" y="400.91" />
            </Array>
          </mxGeometry>
        </mxCell>
        <mxCell id="BSYq-ft0iuZ4jn7_VfeT-24" value="" style="endArrow=none;dashed=1;html=1;dashPattern=1 3;strokeWidth=2;rounded=0;entryX=0.514;entryY=1.053;entryDx=0;entryDy=0;entryPerimeter=0;" edge="1" parent="1">
          <mxGeometry width="50" height="50" relative="1" as="geometry">
            <mxPoint x="789.9952022825995" y="607.5" as="sourcePoint" />
            <mxPoint x="790.85" y="505.09000000000003" as="targetPoint" />
          </mxGeometry>
        </mxCell>
        <mxCell id="BSYq-ft0iuZ4jn7_VfeT-25" value="" style="endArrow=classic;html=1;rounded=0;entryX=-0.017;entryY=0.984;entryDx=0;entryDy=0;entryPerimeter=0;" edge="1" parent="1">
          <mxGeometry width="50" height="50" relative="1" as="geometry">
            <mxPoint x="680" y="690" as="sourcePoint" />
            <mxPoint x="710" y="640.0400000000002" as="targetPoint" />
            <Array as="points">
              <mxPoint x="680" y="640" />
            </Array>
          </mxGeometry>
        </mxCell>
        <mxCell id="BSYq-ft0iuZ4jn7_VfeT-27" value="" style="endArrow=none;html=1;rounded=0;exitX=0.98;exitY=0.641;exitDx=0;exitDy=0;exitPerimeter=0;entryX=1.004;entryY=0.917;entryDx=0;entryDy=0;entryPerimeter=0;" edge="1" parent="1" target="BSYq-ft0iuZ4jn7_VfeT-95" source="BSYq-ft0iuZ4jn7_VfeT-29">
          <mxGeometry width="50" height="50" relative="1" as="geometry">
            <mxPoint x="880" y="690" as="sourcePoint" />
            <mxPoint x="1013" y="640" as="targetPoint" />
            <Array as="points">
              <mxPoint x="1040" y="693" />
              <mxPoint x="1040" y="640" />
            </Array>
          </mxGeometry>
        </mxCell>
        <mxCell id="BSYq-ft0iuZ4jn7_VfeT-28" value="" style="endArrow=none;html=1;rounded=0;entryX=0;entryY=0.5;entryDx=0;entryDy=0;" edge="1" parent="1" target="BSYq-ft0iuZ4jn7_VfeT-29">
          <mxGeometry width="50" height="50" relative="1" as="geometry">
            <mxPoint x="680" y="690" as="sourcePoint" />
            <mxPoint x="750" y="689.9999999999999" as="targetPoint" />
          </mxGeometry>
        </mxCell>
        <mxCell id="BSYq-ft0iuZ4jn7_VfeT-29" value="&lt;div style=&quot;text-align: justify;&quot;&gt;&lt;span style=&quot;font-family: &amp;quot;Courier New&amp;quot;; background-color: initial;&quot;&gt;&lt;font style=&quot;font-size: 12px;&quot;&gt;Repeat L times&lt;/font&gt;&lt;/span&gt;&lt;/div&gt;" style="text;html=1;strokeColor=none;fillColor=none;align=center;verticalAlign=middle;whiteSpace=wrap;rounded=0;" vertex="1" parent="1">
          <mxGeometry x="803" y="683" width="117" height="15" as="geometry" />
        </mxCell>
        <mxCell id="BSYq-ft0iuZ4jn7_VfeT-50" value="" style="endArrow=classic;html=1;rounded=0;exitX=0.5;exitY=0;exitDx=0;exitDy=0;" edge="1" parent="1" source="BSYq-ft0iuZ4jn7_VfeT-13">
          <mxGeometry width="50" height="50" relative="1" as="geometry">
            <mxPoint x="631.84" y="390" as="sourcePoint" />
            <mxPoint x="680" y="340" as="targetPoint" />
          </mxGeometry>
        </mxCell>
        <mxCell id="BSYq-ft0iuZ4jn7_VfeT-51" value="" style="endArrow=classic;html=1;rounded=0;exitX=0.5;exitY=0;exitDx=0;exitDy=0;" edge="1" parent="1" source="BSYq-ft0iuZ4jn7_VfeT-13">
          <mxGeometry width="50" height="50" relative="1" as="geometry">
            <mxPoint x="651" y="450" as="sourcePoint" />
            <mxPoint x="680" y="370" as="targetPoint" />
          </mxGeometry>
        </mxCell>
        <mxCell id="BSYq-ft0iuZ4jn7_VfeT-53" value="" style="endArrow=classic;html=1;rounded=0;exitX=0.5;exitY=1;exitDx=0;exitDy=0;" edge="1" parent="1" source="BSYq-ft0iuZ4jn7_VfeT-13">
          <mxGeometry width="50" height="50" relative="1" as="geometry">
            <mxPoint x="651" y="450" as="sourcePoint" />
            <mxPoint x="680" y="620" as="targetPoint" />
          </mxGeometry>
        </mxCell>
        <mxCell id="BSYq-ft0iuZ4jn7_VfeT-75" value="" style="ellipse;whiteSpace=wrap;html=1;aspect=fixed;fillColor=#000000;" vertex="1" parent="1">
          <mxGeometry x="850" y="334" width="10" height="10" as="geometry" />
        </mxCell>
        <mxCell id="BSYq-ft0iuZ4jn7_VfeT-76" value="" style="ellipse;whiteSpace=wrap;html=1;aspect=fixed;" vertex="1" parent="1">
          <mxGeometry x="845" y="360" width="20" height="20" as="geometry" />
        </mxCell>
        <mxCell id="BSYq-ft0iuZ4jn7_VfeT-77" value="" style="endArrow=none;html=1;rounded=0;" edge="1" parent="1">
          <mxGeometry width="50" height="50" relative="1" as="geometry">
            <mxPoint x="845" y="369.85999999999996" as="sourcePoint" />
            <mxPoint x="865" y="369.85999999999996" as="targetPoint" />
          </mxGeometry>
        </mxCell>
        <mxCell id="BSYq-ft0iuZ4jn7_VfeT-78" value="" style="endArrow=none;html=1;rounded=0;exitX=0.5;exitY=1;exitDx=0;exitDy=0;" edge="1" parent="1" target="BSYq-ft0iuZ4jn7_VfeT-75" source="BSYq-ft0iuZ4jn7_VfeT-76">
          <mxGeometry width="50" height="50" relative="1" as="geometry">
            <mxPoint x="855" y="374" as="sourcePoint" />
            <mxPoint x="875" y="354" as="targetPoint" />
          </mxGeometry>
        </mxCell>
        <mxCell id="BSYq-ft0iuZ4jn7_VfeT-84" value="" style="ellipse;whiteSpace=wrap;html=1;aspect=fixed;fillColor=#000000;" vertex="1" parent="1">
          <mxGeometry x="868" y="365" width="10" height="10" as="geometry" />
        </mxCell>
        <mxCell id="BSYq-ft0iuZ4jn7_VfeT-85" value="" style="ellipse;whiteSpace=wrap;html=1;aspect=fixed;" vertex="1" parent="1">
          <mxGeometry x="863" y="391" width="20" height="20" as="geometry" />
        </mxCell>
        <mxCell id="BSYq-ft0iuZ4jn7_VfeT-86" value="" style="endArrow=none;html=1;rounded=0;" edge="1" parent="1">
          <mxGeometry width="50" height="50" relative="1" as="geometry">
            <mxPoint x="863" y="400.85999999999996" as="sourcePoint" />
            <mxPoint x="883" y="400.85999999999996" as="targetPoint" />
          </mxGeometry>
        </mxCell>
        <mxCell id="BSYq-ft0iuZ4jn7_VfeT-87" value="" style="endArrow=none;html=1;rounded=0;exitX=0.5;exitY=1;exitDx=0;exitDy=0;" edge="1" parent="1" source="BSYq-ft0iuZ4jn7_VfeT-85" target="BSYq-ft0iuZ4jn7_VfeT-84">
          <mxGeometry width="50" height="50" relative="1" as="geometry">
            <mxPoint x="873" y="405" as="sourcePoint" />
            <mxPoint x="893" y="385" as="targetPoint" />
          </mxGeometry>
        </mxCell>
        <mxCell id="BSYq-ft0iuZ4jn7_VfeT-88" value="" style="endArrow=none;dashed=1;html=1;dashPattern=1 3;strokeWidth=2;rounded=0;" edge="1" parent="1">
          <mxGeometry width="50" height="50" relative="1" as="geometry">
            <mxPoint x="970" y="580" as="sourcePoint" />
            <mxPoint x="883" y="411" as="targetPoint" />
            <Array as="points">
              <mxPoint x="883" y="411" />
            </Array>
          </mxGeometry>
        </mxCell>
        <mxCell id="BSYq-ft0iuZ4jn7_VfeT-89" value="" style="ellipse;whiteSpace=wrap;html=1;aspect=fixed;fillColor=#000000;" vertex="1" parent="1">
          <mxGeometry x="975" y="584" width="10" height="10" as="geometry" />
        </mxCell>
        <mxCell id="BSYq-ft0iuZ4jn7_VfeT-90" value="" style="ellipse;whiteSpace=wrap;html=1;aspect=fixed;" vertex="1" parent="1">
          <mxGeometry x="970" y="610" width="20" height="20" as="geometry" />
        </mxCell>
        <mxCell id="BSYq-ft0iuZ4jn7_VfeT-91" value="" style="endArrow=none;html=1;rounded=0;" edge="1" parent="1">
          <mxGeometry width="50" height="50" relative="1" as="geometry">
            <mxPoint x="970" y="619.8599999999999" as="sourcePoint" />
            <mxPoint x="990" y="619.8599999999999" as="targetPoint" />
          </mxGeometry>
        </mxCell>
        <mxCell id="BSYq-ft0iuZ4jn7_VfeT-92" value="" style="endArrow=none;html=1;rounded=0;exitX=0.5;exitY=1;exitDx=0;exitDy=0;" edge="1" parent="1" source="BSYq-ft0iuZ4jn7_VfeT-90" target="BSYq-ft0iuZ4jn7_VfeT-89">
          <mxGeometry width="50" height="50" relative="1" as="geometry">
            <mxPoint x="980" y="624" as="sourcePoint" />
            <mxPoint x="1000" y="604" as="targetPoint" />
          </mxGeometry>
        </mxCell>
        <mxCell id="BSYq-ft0iuZ4jn7_VfeT-93" value="" style="endArrow=classic;html=1;rounded=0;exitX=0.5;exitY=0;exitDx=0;exitDy=0;" edge="1" parent="1" source="BSYq-ft0iuZ4jn7_VfeT-13">
          <mxGeometry width="50" height="50" relative="1" as="geometry">
            <mxPoint x="651" y="450" as="sourcePoint" />
            <mxPoint x="680" y="400" as="targetPoint" />
          </mxGeometry>
        </mxCell>
        <mxCell id="BSYq-ft0iuZ4jn7_VfeT-97" value="This gate was chosen as it can represent any single qubit rotation that we want up to a phase shift. Furthermore, it can be easily decomposed as a series of ZY Z gates, which can be implemented on a real device (wanting to transition away from simulators)." style="text;html=1;strokeColor=none;fillColor=none;align=left;verticalAlign=middle;whiteSpace=wrap;rounded=0;" vertex="1" parent="1">
          <mxGeometry x="618.2099999999999" y="830" width="473.58" height="50" as="geometry" />
        </mxCell>
        <mxCell id="BSYq-ft0iuZ4jn7_VfeT-98" value="Essentially a big unitary operation that performs a linear transformation of the state |&lt;i&gt;z&lt;/i&gt;&amp;gt;" style="text;html=1;strokeColor=none;fillColor=none;align=center;verticalAlign=middle;whiteSpace=wrap;rounded=0;" vertex="1" parent="1">
          <mxGeometry x="715" y="250" width="280" height="30" as="geometry" />
        </mxCell>
        <mxCell id="BSYq-ft0iuZ4jn7_VfeT-99" value="" style="shape=image;verticalLabelPosition=bottom;labelBackgroundColor=default;verticalAlign=top;aspect=fixed;imageAspect=0;image=data:image/png,iVBORw0KGgoAAAANSUhEUgAAALsAAAC5CAYAAABwWE5hAAABWWlDQ1BJQ0MgUHJvZmlsZQAAKJFtkD1Lw1AUht9opKBVrDg4OGTzg9aPND/AtoMUHEKt+LGlSU3VNF6SiLo6ODk5dHZR6CpCFwdHNwdBxV/gXuii5Xpuo6ZVDxzOw8t7zz3nAH2ywZgjA6i6gVdYziobm1tK7A0S4hiGBsUwfZbR9RWy4Lv2RuuJ3BSPKdFr6VypP0i1CWf+9KR2nUv89ffEoFX2TaoflLMm8wJAmibWDwMm+Ih43KOhiM8E2yFfCC6FfNPxFAs54nviUbNiWMQvxMlSl253cdU5ML9mENPHy+7aKtURykkUoSINCyksYoFu879X63hz2AfDMTzswEYFARRkSGFwUCbOw4WJOSSJVeqmQhM3/n27SLNo5/QYfZWJtN094DYPJLKRNtWkNS6BuzozPOPnolJL9rfTashDDWCgxnlzHYjNAO1nzt8bnLevgP5Xetv6BCvHYEcZkVR2AAAAYmVYSWZNTQAqAAAACAACARIAAwAAAAEAAQAAh2kABAAAAAEAAAAmAAAAAAADkoYABwAAABIAAABQoAIABAAAAAEAAAC7oAMABAAAAAEAAAC5AAAAAEFTQ0lJAAAAU2NyZWVuc2hvdB8it9AAAAI9aVRYdFhNTDpjb20uYWRvYmUueG1wAAAAAAA8eDp4bXBtZXRhIHhtbG5zOng9ImFkb2JlOm5zOm1ldGEvIiB4OnhtcHRrPSJYTVAgQ29yZSA2LjAuMCI+CiAgIDxyZGY6UkRGIHhtbG5zOnJkZj0iaHR0cDovL3d3dy53My5vcmcvMTk5OS8wMi8yMi1yZGYtc3ludGF4LW5zIyI+CiAgICAgIDxyZGY6RGVzY3JpcHRpb24gcmRmOmFib3V0PSIiCiAgICAgICAgICAgIHhtbG5zOmV4aWY9Imh0dHA6Ly9ucy5hZG9iZS5jb20vZXhpZi8xLjAvIgogICAgICAgICAgICB4bWxuczp0aWZmPSJodHRwOi8vbnMuYWRvYmUuY29tL3RpZmYvMS4wLyI+CiAgICAgICAgIDxleGlmOlBpeGVsWURpbWVuc2lvbj4xODU8L2V4aWY6UGl4ZWxZRGltZW5zaW9uPgogICAgICAgICA8ZXhpZjpVc2VyQ29tbWVudD5TY3JlZW5zaG90PC9leGlmOlVzZXJDb21tZW50PgogICAgICAgICA8ZXhpZjpQaXhlbFhEaW1lbnNpb24+MTg3PC9leGlmOlBpeGVsWERpbWVuc2lvbj4KICAgICAgICAgPHRpZmY6T3JpZW50YXRpb24+MTwvdGlmZjpPcmllbnRhdGlvbj4KICAgICAgPC9yZGY6RGVzY3JpcHRpb24+CiAgIDwvcmRmOlJERj4KPC94OnhtcG1ldGE+Cr9FYMAAACprSURBVHgB7Z0L2BRVGcePhJpKQoCKogiCcUmhUDEzjRQrrexBtBQr0S7mBRQqU8vULMkMTR+1FEss0NTsApRlqChSkHlBU0gwMCFFw6IsTdPt/F74D+cbd7/d7/t2dnf2O+/z7M7MmTPn8j//8857rrPZI488Uvj1r3/t3vjGN7rXXnvNdenSxb300ksOkZtdxL+IQIMj8OKLL7qtttrKUgmPX375ZbfD9ju4o4852njtLrroooK/G38Rg6bkQL9+/Qr//e9/C0jXLbfc0mrC1ltv7V599VXn3dxmm21mbuG5OcS/iEBOEECzo+m7bdMtSXFXTBcEovsasOlG167uf//7X3IdTyICeUJgiy22sOS+VtjAby58BehijmjxUCLRQzTieZ4RkKXSVdpcpA8z1dVr9ygRgbwgECpoERyLBffNN9/ctWCzyM3N6dOnu1GjRrkXXnhhQ0s2LzmO6ex0CGCK9+jRw02ePNndfvvtTu3QNBBJA5UHwpqx9957u+HDh6f9x+uIQMMi0KdPnyRtMsvf8IY3OCnxpIEqtS/faHQEM0eedS8eIwKNhABKGm1Ov3oxEfFbmDGhR9nwEJ3aESUi0KgIqEcxrbDT6d3QFZN2jdcRgSZEIJK9CQs1Zqk4ApHsxXGJrk2IQCR7ExZqzFJxBCLZi+MSXZsQgUj2JizUmKXiCESyF8clujYhApHsTVioMUvFEYhkL45LdG1CBCLZm7BQY5aKIxDJXhyX6NqECESyN2GhxiwVRyCSvTgu0bUJEYhkb8JCjVkqjkAke3FcomsTIlByPnsT5jVmKUMEtO2KFkroyBxzfrqfYRLKBh01e1mIoodSCIjQHPmxuJmFFJCbxT/85EeELxVWLdwj2WuBcpPEIeIqO1y/8sordgmxWdHG77nnnnN33HGHe+yxxxpqsX40Y1Ry8VgUAQgdamW0NwKppb25Xrp0qbvrrrvc3Llz3cMPP+z++te/4uyuuuoq99nPfjbZR9Qc6/QXyV4n4Bs1WmlvEZzr0DTRemS2llu8eLG77bbb3J133un+9Kc/2bYrep5Ncdkgd9q0ae4zn/lMYtIQbr0kkr1eyDdgvCIqhITgaO6QnH/5y1/cvQvudXPmznG///3v3cqVK5OGJ89qvxZW+bMrBc9yXLdundtuu+0Sv/XKeiR7vZBvwHhFbBGdJP7hD39w8+bNc7/61a/co48+asRVpdDOE1xju0NyzhUO5/oRltw5r4dEstcD9QaNE2IiaPSbbrrJnX/++e7Pf/5zQmLusWEopKVCsF8LP671LH44pyKod0abb+FeT8LH3hhKJ0qCACRGIDqNTogPwdkrEaKiwTFNILAIrmMSiD+B6LhzVKO2nkQnbZHsYQl18nPIKEJ+4xvfsP0TaYjiJnKL2DqWg4zKI7KX85v1/Uj2rBHOUfgQGE0OOQ8//HD329/+1r397W83TU4vjLQ7WVKlKJe9SPZyCMX7dUEAAkN4iA3hhw4d6h544AF34okn2jUmDD0u8lcJ4Qkvava6FGeMtBIERHjZ79/5znfcj370I+s+xF7nvghfLjyILrLzXD0lmjH1RL8B44bE0tiYNNLMH/nIR6xv/cADD0yIHvrVM+ks6fm0ez2uI9nrgXpO4pQGx6xBo/fv39/NmDHDbbvttgnh5UfHdNZCzZ6+V+vrSPZaI56j+EJtrQ9yfepTn3L//Oc/7Ru5st+pDPiF8GmJZE8jEq8bGgEappD53HPPtXkw9MrQJcmIabdu3cwmh+gif5iZSPYQjXje0AhAVsjNlN0LLrjAtDfkl1x33XXu0ksvtcqAqZMmPP3zGkHVM/U6xukC9UK+geOV/c0RE+Uf//iH++QnP2lEh/g0XNHqfLBr3LhxlhO+wXXcccfZ9AL88KwqBeeNINFmb2cpUIAqRI4aPKGAO/rTq58wwzjamdR2P6auR0jMjEe0toj+jne8w6bvkj6Iv//++9s89iPHHZnkn6+mI9xvBIlkr6AUKNCQdJBRr2eIjT0LCdCCaLWO/giHH2FCOOIgPuKtRQUgP8RJGr71rW+5OXPm2PwY4sZU6dmzp5s1a5YhBy40Xkkb5L75lpvd5Zddbj02//nPf8zPm9/85gpQzt5LNGNKYEwhqoeBcwoTgcgiox7lPprv2WeftRU6a9ascatXr7ZrTIB//etf7t///ncL25WwWeDwpje9yX69e/d2O+64o9t5553tt/3227uddtrJ5qcQXygiPZWBn9KJH87bK8oz4ZPP++67z51zzjlW0dHOpIPwIfOAAQOsQuAP4R7PUyFOnXiqO+DAA9xJJ53k6JcfMWKE3etI2tqbp/C5SPYADRW2Co2CoxBFKrxyj3ndy5YtMzI8+OCDRuznn3/e5npXqzHWvXt3h0Zk0cPgwYPdPvvs4972tre5IUOGOCpCWAHQwiJ9e4kf5p2w0eCf+MQnbLUR5gsC4el6HH/seKv8Irrd9H/EzbNUFgjO3JpQItlDNOpwHhYy55BVixJEKJacLViwwHokWF/51FNPmbYultytttrKnNtbsKSBSrZ+/Xr7rVq1yirVzJkzLdy+ffu6gQMHmo188MEHu3333de6/5QWER/yI8qf7rd2VNzkG1KTbxEd8kPgq6++2oIoFj7PIzxPHhQ3WPDTtXmqw1+n1ewh8DIL0FQqRF7h2Kp8HhwtDvlCwQSRX8KicCEE/c/VEiqOKg1xkE5MJH733HOPmzp1qpkTaP2xY8c6yM+bQCK7W0TDXeHJj4644x8Mrr32WrPJOUebEzfmFhUOf6QDQocYhmHjDjYc5Z72q3hreex0ZA9Bp3BDLc6aSiY8/eQnP7GehbAXQeTmeZ5jMXFaevToYaYHxMAEwQ7nh0mCG1pS8VM5+Io4o5GYQH/729/MDOKaH9tRFKs46XSQZn4333yz2fjvfve73cc+9jF36KGHGnFJY0h6rpWG8Jz0QG4WbHz+8583P/jDjeeZ377HHnskFYJnW6s46ful/OKvVtJpyB4WMIVHIfJDWCE/ffp02wqCBqVEJglESJObxuMuu+zi9txzT7OnBw0aZGTr06ePNSoVRluPVDAauk8//bSZS0uWLHH333+/W7FihTV+aeyGEqaR7StuvPFG+w0bNswdffTR7vjjj7cGL8+QbzSuzDNhwlFvKSoKbzGZL6TnqKOOcieffLK9vVAOei5MRy7OL7nkEt41BZ85O3LOb+HChT5PhYK3Ye2Y1z9PVEs6R19wSTbIl39dF0aOHNki315zFjyBXofHDjvsUPBmQuFrX/ta4e677y54MiZhpU8UF/G15dca1oTzxz/+sTBr5qzChAkTCp7MBd/l1yLtpJufJ2Ti3qtXr8IJJ5xgzyqdhOVNEV0mZex7TwpeA1vevSKwMHwlLvieJPMbYpk83AAn5Ac55phjLM1wWdj4Bn3Bm5d23zUr2VUw5BIS6RpgLr/88gIgqGJDDkgC0eXG0XcDGoDeRCh4rWmAhX+ES3j8OIdA/BQXR52Hz6XP5Uf+CSMMW4UZPocfv51Fwa8VLYwaNapF5SyWn2222abw0Y9+tOB7j5JgCFdE8Ausjeg8C+HJP4RPKz2lNQmkAU6ET6cjuwhDGUAIAcH1jBkzCn71TUJoaj8klxaggL3dXfBL0go33HBDwdvSPJaICChiq+B1TDxW6STMC+fEqzSko/BbXhTOPPPMFvkjP+lKzDVvhpUrVyZBPPnkkwXfsE0IjmaE8BdeeKH5CTFMHmqgE6WvU5FdpOMoACiT+fPnF/bbb7+E5BRmmuS8rv2svoLfOqJFMRJOrcjdIuISF2EeRXwqtQS3n/3sZ4UPfOADBT+imeSZt1b45qJS+wGjgm8MF3yjNjFfRHTfwLUgFbbiVTyNdFRZdxqyqzAoHAoc8TtRmRZDw/FDg1PgoSb3C4oL1113XcH3fCTlB3j8woJW+ImnBjhRmjiK+GGyfOO24PvLC7436HWkl6lCW0TnstMx38AOCTEIw26k805DdhU44CvTnGOGUGgiOiRHa+naj0aaH/xKRHCFqaPuN/JRaeUI8VXhSfOK5SsKn/70pwu++9PyD7mp8JBbRNcRnH75y19aVsMwGjnvKvdymj3XE8F8AVhfL0d1J9J1SFfZ+PHjbRjfF57NQaHrkEGf3XbbzV1zzTWOYX4PjnWj8Sxh+MJv0XfsCeDrRj4kTCtdi3Qleq1suAwcNNDyzEakRx15VJJnT2brhuRZ5f3973+/9dGHuQYbfnmX3JId8Ckkr8kSojLayfyRH//4xzZY5DW53YfoDOqcddZZNq/Fa7mkwClAClpCmCFx5J6XY5h2CE/ewIgKzdYYzEpk70YGwCRgyX2EMQfNXafSeK1peBBu3gmfO7IDuIhOAVGg/L761a+6973vfc73LJgmp6DQ5BTWQQcd5BYtWuR874LdU8GmSa7Cb4ajKi1YifTggSx9bKktyAAjtL/vbkyyjB/fhrHNkR5//HGbvguGwpxjXiVXZBfQFCSEhawUzhFHHGHrIykEtDn+cEd7ffvb37YJXIwoqtCameSliAipwYaZiJNOm2QY4QZWHBHO8cOPCW++B8v99Kc/Teay84bIs4bPDdlDokNaCOv7it1ee+1lBaJCguT8WEmDjXraaafZa5wC9Y2ypFAptGYXMBM50eLMtZkwYYKRGvzAg/t8GeOKK65IlAfPcY85OygSP2pstj1viFwTPg8jqB5gj/8G8US2k9/97ncFv9jBehfSPS1+baS82wihntcxudnkJ+SXn6/ollNGUD25rVfKKwfDjq5XyeJFiwu77767uXNfflD6/usZ8pb09DQKnl75WdrK9cY0/HQBAcpRRJ8ze07SjRYSnf5kPxGqaKEonORmJzkREfy3jYzo6nKEwODlP/JlSGicwU80Kxx22GFGePxAeJ7hnJFlibolGwFX5bEc2RvajPHAJq9hbHRerUxlHXvEWFs84QvCXsmYLV4juXvvvddm+uGXZ3l1K4zOYLZ4QpqQZwTTDXPFTyBzfiqBYQE2YMHv4osvth4a3OiixT/7wPziF79wZ5xxhoUBtvgF69mzZ9ucefypccs9xWcPNPBfw5JdJAU7EZ3FA/5VbKuJAB+hMGhI8Y0f5lvLnlchcOxMItw4qrIzbZc58mCGwgBPxiHogoW49MbIP9deW7uLLrrIsaEpAsYIFYKPhY0ePdrCyBvhG5LsAC+BvBQQnz35+Mc/bs4h0T/4wQ9aDwM9L6oUPM+vsxEdcJRnCIuw3TQ9KyFmb3nLW9z3vvc9u0+jU8+I8FyDJQ1XP8/G+RmTRnjuQ3jeoIccckiLCsIz3G9kaUiyAxjgiegAzkIEhEIDVLQNO8uydA5BI/HK5h7P8uusAlHRujfMusGW2HEOlmAGWX/4wx8ajmAmkgoz4Ye255kPf/jDZr6w2ornuU8Yfk6/87a9QUz4VC6F1ai4NxzZBba0NP3CoUbnPoVw7LHHmrYHWAoNwPVso4KdZbrIOwLp1C2r/nRIyNuRI1vYsWZVFYJncJeIsHoGrBmUw45nqaEIj9LhC3oqG54X/kqLwmyUY0ORXWBREBQYX2qjn5e1mnoNAz52u1bbU7idneiQSYTVETudfnJww1QBtw996EO2vjR8CxYjoghPeVBJeJYdv37+85/btAsIj3CPcqDxSxzMtWlUopPehiG7iC7NBKC8QteuXWuvTRIrNxZFI/gFZD1rjp34T2YJPSl+HMLICEbg1q9fP3f99dcbOmBWTlRpQsIfcMAB7pZbbnF+LYCFKT80ZlnDi4JCUamylIuj1vfL57pGKUoDhPamywz7EMApsHe+853WYCJJFGwk+qbCkSmHucGWdWCGRhb5aJDSiFeF4EmRdVMoLc90PyQ884+YNYpQJnrjTpo0yRquaHvFyXONJA1BdoHCaxACf+UrX7FXJkByD1DpR6cgERUs91QgjQRqrdIi3GTKsSsBvS+4o2Vlp3/pS1+y/nFIiMnXFhG+CpMKhInEFAIEd8qJmaV0Z7IlCHGTJp5VGtsSZ1Z+6052wAAUCgKQmKZLI0oC0dFI7OWi7sVoowudlkcai2ynEdrpfsldsq86+LZHRHiOhIGyoQKxPR7kR3gDs1NausHanviyeqauZBfR0QKAyMILBjoQCgyiIwxuhANGes5uduI/KQnehiiI3/zmNy3sdPaEDHfbBar2alriEu4iP20Av7OBlRP3KDN6aNhQiTQ1mjlTV7ILfBUARGc3XLSE5HOf+1wyBYDXsgDX/c58RMOiJNgKj0/AgE1op6Mk2MwJ0kE+RERtD24iPGERN8L0Dbbck2LCjYrH91MpL/zpOe7VU+pGdpFWS8N+8IMf2AojERrwmKZLYwsJFxjUE7B6xy3FwBFzjh3C2PWLa4gvO33ixIm2/6MqRLXSLeISNxVr1113tenBhE+ZoajYl11vaJmc1Yq/I+HUjeyAJvOF/mCWzCG4Axr2ubrKQu3A/Sgbul3BAaKv9PP6ZaeDHYNGl112mcEE2RBVErvo4J8IT8XircFItshNPKQFzc7qMQSFpmc6GHWHHq8L2QW8XoVspEnDSt2M5Oi8885zzOFAe0g7RKJvUAYQDEz8zmbWcEejozggOqOc4YAbWIJ3VtipMlG56DEjDZJp06bZDsikTwpL9+pxrAvZAV6vV+ZYsOZRArnf8573JCuMACrLwlK8jX4MFQSYPPTQQ+7ss882bCC/MPKLcYx01bLTS+EiTa2GKANNeptAeBQXMy01VZhwSKPyUSrcLN1rTnZlWA2mL37xi5Y/wNEuAFdeeaW5qQCzBCAPYQsHjmhSFAV93Xy6BpNBDUG6Aif4ZXfc17TdLPMnwlP5qFxsk32c/9iYhDQwUY9pBqRb5ozu1/pYc7IDkDI9Y8YMWyeqRimZP+WUU2xBQTRfWlIBomOqIHwVw68wMqJzjSZlmwyG7BEUCTjXQhSPzBmmDvhdxkxxqVOBniJEb2nyUmshzpqSnQj5kWm0D8AgFA4FNsB/lIoPViHSTALTHDvpnxQEhEJB0HDnHIUAbsw3x04XrvgH51phZ0TyZUh6IPqUKVOspHDnzcMe85piIEVX66IEi5qSXYVGRv2aSGu8AIY0Fj0yfF4wtDdrDUojxQdZEPVaLV++3IgkIkNuMGXo3i+cNtykYWtFdNJHXKSJ9CB0OAwbOswqotJBW4LKgB/8Km/2QIZ/xAMmTKWoGdmVQTILmdm6AUGrAwKFRfcV/qJWb9mDovYNdvrf//5305a4gSPfUjr99NOTBn+tSFSMnxBbiurMs840L1RUFBofI1NHRC21O/FDdky/mpEdIMgkwkoZdpsCBMwZ5Atf+IIdBYQ0gjl2wj/lX/hAaD5qpjehzL4Z3qxBVCHsog5/pDdUVMyRQYGhyJQ2rWmVMqtlxWQspyZkJ1MCgnJQpgFBWl2bjAqIOpRXw0WJlkQrsSyRPnUwBC/cIReakj0sqRCqHDrWIzPEzU9Kze/fY8kgfXRCYLvfeuutiZ9aphVedZGNlyU4ZIrXCUc2zvRfiTBTBTeEj1MhUatvGukEG0w+/+0mW/gM0bmGNODIoBtfj1aFMAAb4C9Uaiyd1LaD4pm6lVF0+OVXCwGzLiyQQPS6zCLiMEPqHqPgeBXzlTlsUSRq9Q2NPbCgcBAIQ+MK80VvwjFjxticf1WIEF97qI5/pJufbHdNI5BiY00xyg7yy60WyWVMoos+hahXT7UjVu0lc8zhuOuuuywKFRBEZ0BJr2YVcrXTkafwhAWLWObPn2/aHGKgHPyWf9bmaeT8ULbS5AwyMfOStGs5n9oZ5Cnr8lb4zCHqgjbNUohMbw32TadyabSUeRyM+iGAowqQZXoaPWyw4q13xx13WJcimIR2Op9Tpy9bmpP8qEAbJW+kh7cQaaSMWUsciv+yhy2iJ5/kL8ty19vQf/bSdclKoytzZES1nMW6iAoHm3OAH0iSJtMzne2owhZWKAR9ECC002nwsSmUKkQj40ReIBqi1UvsIkybgzc8izyQWpgy8I14urACCCER1RYybJH4TDPlk52pEGWQNYsIoJAgVQJz7IR/woVXP4tYQjuduf3MIkSkPBodIsoVDrA9IVuLh2lnhzeEPGdd7qp4XZg3jmQRIWGqAJkMFNptfAqd7/cobhLUWQWceLtBYgjN5CmUD9iBWc+ePZPldcKz0fEiT/xkOTD4FQpbfdD3zZtLeQrvZ3HeRfZ0FoFTINJCem0pHvYg2XbbbRPbE2A6m4iwMkvopWBuEO7Y6RzB5fLLLk/MPZkGecCL9Cu9bNDEHB5MGd5Ya9ascQsWLLAixx+/rASsiDezQSVlgMwyWsoPUS0eN26cXetVZxed6A98KASOKAQ0OLatyIBmpxJgu48/dnwu7PR08ZE/ypcyHz58uPW54yetALmfVeWVIrHemHQCq3mttwa7vqoXhkKlNwE7Dskqk9XMR1ZhQXRVfuZuMH8ErYeA05577unofUGkIXkmT0L5igcsykGUB3iB1GJ8hTZQZpo9JDFbPCAqMAqR/mJAwF/o1zx2gj/yjD2Llrv22mvNJsd+xXyB6EwDYA4RmAknSJI3rEizyv29732vlazIT68MnRbkSZU+q6K3xn5WgZNJNT4eXrKhF0Y1mo17kCxfX1nlq6PhCgPyDj7Lli2zKbG4CzMKn71XePWr4Uq8eSO60qx0MzGMjgkqNANMjGoyuQ0BD2FjDhn8ZabZVVMpzNVrVlvSKTiExilCjc86gxZRnf/Agryj0dDmnEvb0f26fv36pJuRe3yhm/lCPFeLV3zW8EB28k6v0uDBgy06VQCZMjjKLYv02HSBLAKGwCI7y8dYeMuoKQW988472xIyZS7LDGaRt3JhkndVYGEAsdHimCwc+SEnnHCCLZzmFcszmC8DBw5M5n2DTTPgQx6EhdpqwvGRRx6xU7ARbrpXjaPwozco27kCPrV8ixSRJoPsbMtGTZebeWiCPxUWAJM/9TowRZeu1yeeeMIKnTYL3XAz/Fx0TddAo0N6ltyxWkvPE6YKLK8QkQeV9ah9Rlk2RH66INkjEvMGt2rnlXgxm+jSzYTsYYI1aqqCoqARMiYy6F7ej8q3iLpw4UJbQA4GIi1HTYYjvyI55xQI23LjJu2vMLmfVyEPyseg3QfZBlj0ztG9+swzz7hVq1YZ2cEmCyFu+JaJzU6iKSyOq5/aYK8rIzRSJHLTdZ6PyouIzq7DtE1YsEChorXDo8iMG5qHbSjYGZdwhF2e8UinXWQf4OdC8WZHpOxWrFhh19L2dlHFPzBFw2dGdtJK3+a659dZsiEBwpYPCJELAHPI+R95AVQKEHOFwSCuaauoO1FHbHO0dyj+C9J2qeH18F6znMMBKn3fvn0tSyp/ranAEcyykkzJvvaZtfaZGBJPQTPdk/51RBm1iyb4o5CkmfjGED0smr+tAtSR7HIe/qZOnWooyIZvNnzIj/BhwU4oKAdJlvnOhOzK1DNrn7E8UOgIk84YPW1WQauvXr3aPpsIkdnhLCR4Ot8UrDQ5Hy2e7xdqhKRI+8/zdYhD//79W2SFfT4R3vahvxaeqnCRCdmVLlrZoTDxC8JTGbKswWGctTpXITHkz6dWsMWR1vLJM/zU9QjZEZl8dtEkfyEO2O2IMOMtiGknGz6rLGdKdtVYZRQzBqEw5ZZVxmodrgjKtFUKkfyJzK2lRThwlHJAwzWjKF96u8sCYMCH/XAQVYAs8p8pqs8991yLNKsVnnWmWkRaowsVJP3nIrqI3FoSKFwKnaN6aESC1p7L8z3e7owloM0RPl6Ads9aMiW7aqsy0atXL5023VFkp7eJNxgN8nJCZeDHsxyHDBlijyiscs/n7b4qPwoB001C2wbtjuRWszNNIBRm8kmUcV03wxGNjD3Kly+QsEDT+SP/Klg0XLdu3ayvHX/NSnZhQIeF2jT0PjGHn1/WUnXNrgIk4ekMUKObVcLKe95555mmRmPJNAnzLaJzpOA5HnnkkTZJSrZ/6L/ZzlECwkWN0vS4QxZ5rjrZw0JXwSlD6oLMIiP1DpNKjkZGu7M4mu24wYJCZGAJTca18KHA+aEQmELB9naITJp65yfL+CG6yK5xBXEly3irTvZQs7/wwguWdr7ohjRzw0sk5ggGbNTKnuR0t6LhIT3u+mG68GMuzLx588yMAR89b4A16R8VmkYpIltdjdUsOZLJRDDV1unXTLet2zbfwm9T/fIrbviI4ZZB3beLJvqDyCIrhcZSOxaqfPOb37RvldL/ziASb7j+fmCFLTPYvAfBv2x1VZwmgsayonxhzvL9VJQhb324wdsQyZIbVSe7MkTBj9p3w3ROy8XGPxEidGuWcxFdGPBq5gty7G+JZmcZGr00dL0x1VkCJiK63JrxKHwwYdggKy1Zc6PqZCfBCBmjsMPXErWYQs06U2kQa3mtAiVO8kte0eYUMJ+6lOAONvhR5dC9Zj2q3JX3kBtodGGXFR5VJ3uYUAqSX1pCP+l7zXCt/FGoCETXuQocd1UG+cetmUX55FgPblSd7M1cWG3NmwqX53Suo8JKX8s9HquPQNV7Y6qfxBhiRKA6CESyVwfHGEoOEIhkz0EhxSRWB4FI9urgGEPJAQKR7DkopJjE6iAQyV4dHGMoOUAgkj0HhRSTWB0EItmrg2MMJQcIRLLnoJBiEquDQCR7dXCMoeQAgUj2HBRSTGJ1EIhkrw6OMZQcIBDJnoNCikmsDgKR7NXBMYaSAwQi2XNQSDGJ1UEgkr06OMZQcoBAXLxRYSFphRFLybTqqNSjLD1kUYaeKeWvlLue4xguXSvmv6NxFQuzWd0i2SssWZG30oXRImyFwSfe9JyOxZY1Jp43nshv2j1et0Qgkr0lHiWv0LAQne8j3X///bbxkXbzCsnG4mo+L8MmrqF7yYCL3NBzxMkHk9ljhbjlTsXDjb1WDjvsMLfddtsl94oEF502IhDJ3kYqsDPxggUL7BM6fNYQcmvhNEf2Qrnm6mvc+GPHJ7sHVBqFyMy2GyzS/v73v2+bLWnBtt4uVAK26Bg2bJgLP5HO/SilEYhkL41NizvSrAcffLDjh8ydM9dNnjLZ9oThvsimL460CKDMhYjO9iOQe/ny5ba5EhuehmSncn35y192+gYTwfIs8UdpHYGIUOv4JHdFRrSqtqMec8gYxzbcXOPOD7LqIww8zHOVSkhavsvE5xMhOgRHMF3YF1JE15Z60viVxtNZ/UWyV1jy0toc1Wjk6918x5MNfkJS4ybRc7oudlRFgtT4Z5PTu+++27bJo/IguHN++OGH27VMHbvYeF/n8VgcgUj24riUdA3JCyG1X6Ee4P66dRs+h8l5WAnkJzyK6DJfqECXXnqp69mzp+vdu7cRHBOFisAeidoTUWZVmJ4w3Hj+egQi2V+PSasuIiee+OAXZgYNRdz5ofX5CAOVoFI7Ws8R5hlnnOH4LtPYsWNtB2BITjiYSv39ZqjEheAWiW5QVPwXyV4xVBvsb4gJ0figMR+r3XXXXd2YMWOskQr5uMcW3frEDv5LCfd4Rjb5xRdfbBXooIMOsi7Fxx9/PPl6B5qfr4NTuTiPRC+Famn3SPbS2BS9I/I+8MADZq/vscceZlrI3lb3Yzmyi+gyX+i7v+KKK2yHX7a4fvDBB+1DBYQnv6NHj07SpHQkDvGkLAKR7GUh2uQh1KZ33nmn9b7wMQE+dcjXNSAu5GSDfXpSWhPCgrD457mzzjrL3gYnn3yy9aHffvvtpsUJg8YoA0dodiRMhznEv4oQiGSvCKYNnkROvqSBZueDaKNGjbIj5zIv6IIMux/TUUgry3z5+te/7hYtWuT2228/d/bZZ5uJtGrVqoTs2OsMIvXr188qGGSPhE+jWv46kr08RuYDgkJiBFudQR8IyJ7raHU+J6P7+FmzZg2H1wnhQFR1HS5cuNA+R0PvC6RH7rvvPvtKtgaTeGb//fe3e3reLuJfmxCIZK8QrlCTMl0AU2XEiBH2YTC0OmSXZifIp59+OgkZgkoIh0oBkXlDoMnpvTnllFPc3nvvbd4IX6TmyMfH3vWudykIu5dcxJOKEYhkrxAqkQ/vaGN6XfhekoQP/YaavdjAkkhPpUDOP/98M4f45AofHEPQ+A899FAycMVkr1122cVGTrkfuxxBoX0SyV4BbpCUn7ocH330URvwGTlyZPJ0nz59knO0d3pgSZVF5guzGa+//npreMp8IQAGlZ588snko7jY9fT4MEcmfHMkkcWTihGIZK8QKmllugRpfA4ePNhsdsiL7LjjjnbEHz0s6YGl0Hzh3rnnnmtzXU499VQzhzBpkMWLFyejsoozdjkaNB3+i2SvAMLQXqfLEQ2rT7bLdOnbt28SUrGBJYgr8kJ0pgdjvkyZMsWeo4Ig99xzjzVgiZN4MI/o8UHCdJhD/GsTApHsFcAlba0uRxqM6U8b7rTTTgkZIS7TBTSwRBSYI7jPnj3b3XjjjdY3P3XqVItdpg3+ly1blnwLFHt9wIAB1uNDGiB7JHwFBVbCSyR7CWDkDMmkvelyfOKJJ6y/m6m2CFocoeuQlUsidTiwhBu9Lyz8uOCCC6wXZuLEie6tb32rNUgVBqugMJGoTAjxSqtzHolusLT7L5K9DHQhweiFwd4eMmSIaWbMDJkfmBt0QYqUHMPuR6I555xzTHOzuui0004zsyb8ojNdjmh5yM/zhB32+MgMKpPkeLsEApHsJYCRs8wHriEj5NcAD26qDGh2kR13RANLaOqbbrrJ3XrrrdaQvfDCC+0+hEYUBqOo0vKQHtOIvnz5kT9ziH9tRiCSvRXIIDo/CPjUU0+5pUuX2uARw/qh4IdBpXDKAPdXr15t3pghiX3OmwCNPnToUNPgaG6Fz/QATCSZMJCdNwhzYnguEj1EvH3nkexlcIOMCHNh0NS77bab2dq4UQkgoTR0emBp7dq1eLNRUojM1F1GSglTq5vC8Ombl1mDe9gIjmQ3KDv0F8neCnwhweb7hRpoWBqmNESlbUVWgsHsCIXelJkzZ7rbbrvN7mnwiMpB2OnwCQs3GrThqiTCDOMJ44jnlSMQdxdoBSsIhqkBadHsaPLWGowaReW5Lbfc0sweTB+uTz/9dBuIUjejyEv4uC1ZsiRp7DLLkUEremsQvUFaSWq8VQECkewlQIKM6hFhAAgzhHnr6TnloXaWZudZSExfOzsCYL6cdNJJLcwXolX4TD8Ipwjw1ghXJRFWlI4jEM2YEhhCYtnijJquX7/eDRo0qNUBnnBgSc/TS6PBI5kvRBlWEqYI0C8vO5572vwIv3oLcB6l/QhEshfBDnLxU2MRsmNKMCELCUkbPs4eMrLn8c+IK9MBmPeOqYKGLkZcTREgLPzFVUkhqtU7j2RPYQkZ0aw0EjnSt46ZgQ2ulf08ogrBubS0BpZww4QZPXq0O/HEE61ySGvLP6YK5GcqMFN6wy5H3hCsSlJaeCZKxxGIZN+IocgLcdGu0urf/e537Rr33r16m2/ui4g6cgOyd+/e3Rq07PnCwmlEfgiDc2l57rGf47PPPmvTCbjHW4OVTwgVjh/uiI52Ef/ajEAk+0bIIKLIyDwWzi+55BLbmYtuQMg/64ZZprEhI2YK5MMfwjkDS/xefPFFW4wxwE/iComNH57TKqWrrrrKTZ8+3eaqK37MIAawmIeDP37puDYmOR7aiEDsjdkImLQmpGMF0dy5c92KFSuM5HQFIvSXs3SOdafsFTNp0iTTxJBRZgmame7J448/voX5IqJfeeWVFjaEZmQV84g4w/hxZytq4qEdMGHCBHfooYcmcW1Mcjy0EYFI9iKA0ROy18i9XPce3Y2EIiKkps+dTZC0WENE5R4ybdo066JUsLrPEWEWIzY5K494QxC2wg+f4Y1AA5eKNnDgQLulMOQvHtuGQCT7RrxEJIgXDtO3Bid+QzJzHfbYpM0P7rPoQws/Wgs7fU9xpd3jdeUIRLJvxAoyIZAXk6Sc4C8ks8iIGYOE97gO7ysu3CuRdFyVPBP9vB6BSPaNmEAoSVtGLPWcjjJnCEtu4Xl4X/FVegzDq/SZ6G8TArE3ZhMW8azJEYhkb/ICjtnbhEBJM0a2J4MaOt/0WDyLCDQOArSxGI8o1xYqSfYePXpYbugHjhIRaGQEIDpSjqtdGe0rJpMnT7ZvedLf24wNI/WOkD+G69uST0ZTWYJHX3lHGpzFcC/lRv8+i72ZMlypkEeUlhRXpc/lzR+WB0RnQTyCple5YJkwVsHco64MTxeTefPmFXOObhGBhkcAgmtiHYopOS+V8nKvhFLPRfeIQL0QQKND9FLSVSYKal81AM/ljP1SAUb3DfPdwaE14NM4aZalXr/p+/G6PAIhh4Vjl802dTh2xVZFStnu5aOIPsohAJEFfugXW1MVQsfwfjzvOAIvvrSpTdqVRcJMRWUa62uv+qFuP5CorkYrIEbRNw0udjz2Zg1hI068SmlEojyYyMWvHJFpN/FW3Xrrre1nJmTEvc1MAWe9IbFYwJ6F67Je/g+YZA59p39FrQAAAABJRU5ErkJggg==;" vertex="1" parent="1">
          <mxGeometry x="1040" y="330" width="20.22" height="20" as="geometry" />
        </mxCell>
        <mxCell id="BSYq-ft0iuZ4jn7_VfeT-100" value="" style="shape=image;verticalLabelPosition=bottom;labelBackgroundColor=default;verticalAlign=top;aspect=fixed;imageAspect=0;image=data:image/png,iVBORw0KGgoAAAANSUhEUgAAALsAAAC5CAYAAABwWE5hAAABWWlDQ1BJQ0MgUHJvZmlsZQAAKJFtkD1Lw1AUht9opKBVrDg4OGTzg9aPND/AtoMUHEKt+LGlSU3VNF6SiLo6ODk5dHZR6CpCFwdHNwdBxV/gXuii5Xpuo6ZVDxzOw8t7zz3nAH2ywZgjA6i6gVdYziobm1tK7A0S4hiGBsUwfZbR9RWy4Lv2RuuJ3BSPKdFr6VypP0i1CWf+9KR2nUv89ffEoFX2TaoflLMm8wJAmibWDwMm+Ih43KOhiM8E2yFfCC6FfNPxFAs54nviUbNiWMQvxMlSl253cdU5ML9mENPHy+7aKtURykkUoSINCyksYoFu879X63hz2AfDMTzswEYFARRkSGFwUCbOw4WJOSSJVeqmQhM3/n27SLNo5/QYfZWJtN094DYPJLKRNtWkNS6BuzozPOPnolJL9rfTashDDWCgxnlzHYjNAO1nzt8bnLevgP5Xetv6BCvHYEcZkVR2AAAAYmVYSWZNTQAqAAAACAACARIAAwAAAAEAAQAAh2kABAAAAAEAAAAmAAAAAAADkoYABwAAABIAAABQoAIABAAAAAEAAAC7oAMABAAAAAEAAAC5AAAAAEFTQ0lJAAAAU2NyZWVuc2hvdB8it9AAAAI9aVRYdFhNTDpjb20uYWRvYmUueG1wAAAAAAA8eDp4bXBtZXRhIHhtbG5zOng9ImFkb2JlOm5zOm1ldGEvIiB4OnhtcHRrPSJYTVAgQ29yZSA2LjAuMCI+CiAgIDxyZGY6UkRGIHhtbG5zOnJkZj0iaHR0cDovL3d3dy53My5vcmcvMTk5OS8wMi8yMi1yZGYtc3ludGF4LW5zIyI+CiAgICAgIDxyZGY6RGVzY3JpcHRpb24gcmRmOmFib3V0PSIiCiAgICAgICAgICAgIHhtbG5zOmV4aWY9Imh0dHA6Ly9ucy5hZG9iZS5jb20vZXhpZi8xLjAvIgogICAgICAgICAgICB4bWxuczp0aWZmPSJodHRwOi8vbnMuYWRvYmUuY29tL3RpZmYvMS4wLyI+CiAgICAgICAgIDxleGlmOlBpeGVsWURpbWVuc2lvbj4xODU8L2V4aWY6UGl4ZWxZRGltZW5zaW9uPgogICAgICAgICA8ZXhpZjpVc2VyQ29tbWVudD5TY3JlZW5zaG90PC9leGlmOlVzZXJDb21tZW50PgogICAgICAgICA8ZXhpZjpQaXhlbFhEaW1lbnNpb24+MTg3PC9leGlmOlBpeGVsWERpbWVuc2lvbj4KICAgICAgICAgPHRpZmY6T3JpZW50YXRpb24+MTwvdGlmZjpPcmllbnRhdGlvbj4KICAgICAgPC9yZGY6RGVzY3JpcHRpb24+CiAgIDwvcmRmOlJERj4KPC94OnhtcG1ldGE+Cr9FYMAAACprSURBVHgB7Z0L2BRVGcePhJpKQoCKogiCcUmhUDEzjRQrrexBtBQr0S7mBRQqU8vULMkMTR+1FEss0NTsApRlqChSkHlBU0gwMCFFw6IsTdPt/F74D+cbd7/d7/t2dnf2O+/z7M7MmTPn8j//8857rrPZI488Uvj1r3/t3vjGN7rXXnvNdenSxb300ksOkZtdxL+IQIMj8OKLL7qtttrKUgmPX375ZbfD9ju4o4852njtLrroooK/G38Rg6bkQL9+/Qr//e9/C0jXLbfc0mrC1ltv7V599VXn3dxmm21mbuG5OcS/iEBOEECzo+m7bdMtSXFXTBcEovsasOlG167uf//7X3IdTyICeUJgiy22sOS+VtjAby58BehijmjxUCLRQzTieZ4RkKXSVdpcpA8z1dVr9ygRgbwgECpoERyLBffNN9/ctWCzyM3N6dOnu1GjRrkXXnhhQ0s2LzmO6ex0CGCK9+jRw02ePNndfvvtTu3QNBBJA5UHwpqx9957u+HDh6f9x+uIQMMi0KdPnyRtMsvf8IY3OCnxpIEqtS/faHQEM0eedS8eIwKNhABKGm1Ov3oxEfFbmDGhR9nwEJ3aESUi0KgIqEcxrbDT6d3QFZN2jdcRgSZEIJK9CQs1Zqk4ApHsxXGJrk2IQCR7ExZqzFJxBCLZi+MSXZsQgUj2JizUmKXiCESyF8clujYhApHsTVioMUvFEYhkL45LdG1CBCLZm7BQY5aKIxDJXhyX6NqECESyN2GhxiwVRyCSvTgu0bUJEYhkb8JCjVkqjkAke3FcomsTIlByPnsT5jVmKUMEtO2KFkroyBxzfrqfYRLKBh01e1mIoodSCIjQHPmxuJmFFJCbxT/85EeELxVWLdwj2WuBcpPEIeIqO1y/8sordgmxWdHG77nnnnN33HGHe+yxxxpqsX40Y1Ry8VgUAQgdamW0NwKppb25Xrp0qbvrrrvc3Llz3cMPP+z++te/4uyuuuoq99nPfjbZR9Qc6/QXyV4n4Bs1WmlvEZzr0DTRemS2llu8eLG77bbb3J133un+9Kc/2bYrep5Ncdkgd9q0ae4zn/lMYtIQbr0kkr1eyDdgvCIqhITgaO6QnH/5y1/cvQvudXPmznG///3v3cqVK5OGJ89qvxZW+bMrBc9yXLdundtuu+0Sv/XKeiR7vZBvwHhFbBGdJP7hD39w8+bNc7/61a/co48+asRVpdDOE1xju0NyzhUO5/oRltw5r4dEstcD9QaNE2IiaPSbbrrJnX/++e7Pf/5zQmLusWEopKVCsF8LP671LH44pyKod0abb+FeT8LH3hhKJ0qCACRGIDqNTogPwdkrEaKiwTFNILAIrmMSiD+B6LhzVKO2nkQnbZHsYQl18nPIKEJ+4xvfsP0TaYjiJnKL2DqWg4zKI7KX85v1/Uj2rBHOUfgQGE0OOQ8//HD329/+1r397W83TU4vjLQ7WVKlKJe9SPZyCMX7dUEAAkN4iA3hhw4d6h544AF34okn2jUmDD0u8lcJ4Qkvava6FGeMtBIERHjZ79/5znfcj370I+s+xF7nvghfLjyILrLzXD0lmjH1RL8B44bE0tiYNNLMH/nIR6xv/cADD0yIHvrVM+ks6fm0ez2uI9nrgXpO4pQGx6xBo/fv39/NmDHDbbvttgnh5UfHdNZCzZ6+V+vrSPZaI56j+EJtrQ9yfepTn3L//Oc/7Ru5st+pDPiF8GmJZE8jEq8bGgEappD53HPPtXkw9MrQJcmIabdu3cwmh+gif5iZSPYQjXje0AhAVsjNlN0LLrjAtDfkl1x33XXu0ksvtcqAqZMmPP3zGkHVM/U6xukC9UK+geOV/c0RE+Uf//iH++QnP2lEh/g0XNHqfLBr3LhxlhO+wXXcccfZ9AL88KwqBeeNINFmb2cpUIAqRI4aPKGAO/rTq58wwzjamdR2P6auR0jMjEe0toj+jne8w6bvkj6Iv//++9s89iPHHZnkn6+mI9xvBIlkr6AUKNCQdJBRr2eIjT0LCdCCaLWO/giHH2FCOOIgPuKtRQUgP8RJGr71rW+5OXPm2PwY4sZU6dmzp5s1a5YhBy40Xkkb5L75lpvd5Zddbj02//nPf8zPm9/85gpQzt5LNGNKYEwhqoeBcwoTgcgiox7lPprv2WeftRU6a9ascatXr7ZrTIB//etf7t///ncL25WwWeDwpje9yX69e/d2O+64o9t5553tt/3227uddtrJ5qcQXygiPZWBn9KJH87bK8oz4ZPP++67z51zzjlW0dHOpIPwIfOAAQOsQuAP4R7PUyFOnXiqO+DAA9xJJ53k6JcfMWKE3etI2tqbp/C5SPYADRW2Co2CoxBFKrxyj3ndy5YtMzI8+OCDRuznn3/e5npXqzHWvXt3h0Zk0cPgwYPdPvvs4972tre5IUOGOCpCWAHQwiJ9e4kf5p2w0eCf+MQnbLUR5gsC4el6HH/seKv8Irrd9H/EzbNUFgjO3JpQItlDNOpwHhYy55BVixJEKJacLViwwHokWF/51FNPmbYultytttrKnNtbsKSBSrZ+/Xr7rVq1yirVzJkzLdy+ffu6gQMHmo188MEHu3333de6/5QWER/yI8qf7rd2VNzkG1KTbxEd8kPgq6++2oIoFj7PIzxPHhQ3WPDTtXmqw1+n1ewh8DIL0FQqRF7h2Kp8HhwtDvlCwQSRX8KicCEE/c/VEiqOKg1xkE5MJH733HOPmzp1qpkTaP2xY8c6yM+bQCK7W0TDXeHJj4644x8Mrr32WrPJOUebEzfmFhUOf6QDQocYhmHjDjYc5Z72q3hreex0ZA9Bp3BDLc6aSiY8/eQnP7GehbAXQeTmeZ5jMXFaevToYaYHxMAEwQ7nh0mCG1pS8VM5+Io4o5GYQH/729/MDOKaH9tRFKs46XSQZn4333yz2fjvfve73cc+9jF36KGHGnFJY0h6rpWG8Jz0QG4WbHz+8583P/jDjeeZ377HHnskFYJnW6s46ful/OKvVtJpyB4WMIVHIfJDWCE/ffp02wqCBqVEJglESJObxuMuu+zi9txzT7OnBw0aZGTr06ePNSoVRluPVDAauk8//bSZS0uWLHH333+/W7FihTV+aeyGEqaR7StuvPFG+w0bNswdffTR7vjjj7cGL8+QbzSuzDNhwlFvKSoKbzGZL6TnqKOOcieffLK9vVAOei5MRy7OL7nkEt41BZ85O3LOb+HChT5PhYK3Ye2Y1z9PVEs6R19wSTbIl39dF0aOHNki315zFjyBXofHDjvsUPBmQuFrX/ta4e677y54MiZhpU8UF/G15dca1oTzxz/+sTBr5qzChAkTCp7MBd/l1yLtpJufJ2Ti3qtXr8IJJ5xgzyqdhOVNEV0mZex7TwpeA1vevSKwMHwlLvieJPMbYpk83AAn5Ac55phjLM1wWdj4Bn3Bm5d23zUr2VUw5BIS6RpgLr/88gIgqGJDDkgC0eXG0XcDGoDeRCh4rWmAhX+ES3j8OIdA/BQXR52Hz6XP5Uf+CSMMW4UZPocfv51Fwa8VLYwaNapF5SyWn2222abw0Y9+tOB7j5JgCFdE8Ausjeg8C+HJP4RPKz2lNQmkAU6ET6cjuwhDGUAIAcH1jBkzCn71TUJoaj8klxaggL3dXfBL0go33HBDwdvSPJaICChiq+B1TDxW6STMC+fEqzSko/BbXhTOPPPMFvkjP+lKzDVvhpUrVyZBPPnkkwXfsE0IjmaE8BdeeKH5CTFMHmqgE6WvU5FdpOMoACiT+fPnF/bbb7+E5BRmmuS8rv2svoLfOqJFMRJOrcjdIuISF2EeRXwqtQS3n/3sZ4UPfOADBT+imeSZt1b45qJS+wGjgm8MF3yjNjFfRHTfwLUgFbbiVTyNdFRZdxqyqzAoHAoc8TtRmRZDw/FDg1PgoSb3C4oL1113XcH3fCTlB3j8woJW+ImnBjhRmjiK+GGyfOO24PvLC7436HWkl6lCW0TnstMx38AOCTEIw26k805DdhU44CvTnGOGUGgiOiRHa+naj0aaH/xKRHCFqaPuN/JRaeUI8VXhSfOK5SsKn/70pwu++9PyD7mp8JBbRNcRnH75y19aVsMwGjnvKvdymj3XE8F8AVhfL0d1J9J1SFfZ+PHjbRjfF57NQaHrkEGf3XbbzV1zzTWOYX4PjnWj8Sxh+MJv0XfsCeDrRj4kTCtdi3Qleq1suAwcNNDyzEakRx15VJJnT2brhuRZ5f3973+/9dGHuQYbfnmX3JId8Ckkr8kSojLayfyRH//4xzZY5DW53YfoDOqcddZZNq/Fa7mkwClAClpCmCFx5J6XY5h2CE/ewIgKzdYYzEpk70YGwCRgyX2EMQfNXafSeK1peBBu3gmfO7IDuIhOAVGg/L761a+6973vfc73LJgmp6DQ5BTWQQcd5BYtWuR874LdU8GmSa7Cb4ajKi1YifTggSx9bKktyAAjtL/vbkyyjB/fhrHNkR5//HGbvguGwpxjXiVXZBfQFCSEhawUzhFHHGHrIykEtDn+cEd7ffvb37YJXIwoqtCameSliAipwYaZiJNOm2QY4QZWHBHO8cOPCW++B8v99Kc/Teay84bIs4bPDdlDokNaCOv7it1ee+1lBaJCguT8WEmDjXraaafZa5wC9Y2ypFAptGYXMBM50eLMtZkwYYKRGvzAg/t8GeOKK65IlAfPcY85OygSP2pstj1viFwTPg8jqB5gj/8G8US2k9/97ncFv9jBehfSPS1+baS82wihntcxudnkJ+SXn6/ollNGUD25rVfKKwfDjq5XyeJFiwu77767uXNfflD6/usZ8pb09DQKnl75WdrK9cY0/HQBAcpRRJ8ze07SjRYSnf5kPxGqaKEonORmJzkREfy3jYzo6nKEwODlP/JlSGicwU80Kxx22GFGePxAeJ7hnJFlibolGwFX5bEc2RvajPHAJq9hbHRerUxlHXvEWFs84QvCXsmYLV4juXvvvddm+uGXZ3l1K4zOYLZ4QpqQZwTTDXPFTyBzfiqBYQE2YMHv4osvth4a3OiixT/7wPziF79wZ5xxhoUBtvgF69mzZ9ucefypccs9xWcPNPBfw5JdJAU7EZ3FA/5VbKuJAB+hMGhI8Y0f5lvLnlchcOxMItw4qrIzbZc58mCGwgBPxiHogoW49MbIP9deW7uLLrrIsaEpAsYIFYKPhY0ePdrCyBvhG5LsAC+BvBQQnz35+Mc/bs4h0T/4wQ9aDwM9L6oUPM+vsxEdcJRnCIuw3TQ9KyFmb3nLW9z3vvc9u0+jU8+I8FyDJQ1XP8/G+RmTRnjuQ3jeoIccckiLCsIz3G9kaUiyAxjgiegAzkIEhEIDVLQNO8uydA5BI/HK5h7P8uusAlHRujfMusGW2HEOlmAGWX/4wx8ajmAmkgoz4Ye255kPf/jDZr6w2ornuU8Yfk6/87a9QUz4VC6F1ai4NxzZBba0NP3CoUbnPoVw7LHHmrYHWAoNwPVso4KdZbrIOwLp1C2r/nRIyNuRI1vYsWZVFYJncJeIsHoGrBmUw45nqaEIj9LhC3oqG54X/kqLwmyUY0ORXWBREBQYX2qjn5e1mnoNAz52u1bbU7idneiQSYTVETudfnJww1QBtw996EO2vjR8CxYjoghPeVBJeJYdv37+85/btAsIj3CPcqDxSxzMtWlUopPehiG7iC7NBKC8QteuXWuvTRIrNxZFI/gFZD1rjp34T2YJPSl+HMLICEbg1q9fP3f99dcbOmBWTlRpQsIfcMAB7pZbbnF+LYCFKT80ZlnDi4JCUamylIuj1vfL57pGKUoDhPamywz7EMApsHe+853WYCJJFGwk+qbCkSmHucGWdWCGRhb5aJDSiFeF4EmRdVMoLc90PyQ884+YNYpQJnrjTpo0yRquaHvFyXONJA1BdoHCaxACf+UrX7FXJkByD1DpR6cgERUs91QgjQRqrdIi3GTKsSsBvS+4o2Vlp3/pS1+y/nFIiMnXFhG+CpMKhInEFAIEd8qJmaV0Z7IlCHGTJp5VGtsSZ1Z+6052wAAUCgKQmKZLI0oC0dFI7OWi7sVoowudlkcai2ynEdrpfsldsq86+LZHRHiOhIGyoQKxPR7kR3gDs1NausHanviyeqauZBfR0QKAyMILBjoQCgyiIwxuhANGes5uduI/KQnehiiI3/zmNy3sdPaEDHfbBar2alriEu4iP20Av7OBlRP3KDN6aNhQiTQ1mjlTV7ILfBUARGc3XLSE5HOf+1wyBYDXsgDX/c58RMOiJNgKj0/AgE1op6Mk2MwJ0kE+RERtD24iPGERN8L0Dbbck2LCjYrH91MpL/zpOe7VU+pGdpFWS8N+8IMf2AojERrwmKZLYwsJFxjUE7B6xy3FwBFzjh3C2PWLa4gvO33ixIm2/6MqRLXSLeISNxVr1113tenBhE+ZoajYl11vaJmc1Yq/I+HUjeyAJvOF/mCWzCG4Axr2ubrKQu3A/Sgbul3BAaKv9PP6ZaeDHYNGl112mcEE2RBVErvo4J8IT8XircFItshNPKQFzc7qMQSFpmc6GHWHHq8L2QW8XoVspEnDSt2M5Oi8885zzOFAe0g7RKJvUAYQDEz8zmbWcEejozggOqOc4YAbWIJ3VtipMlG56DEjDZJp06bZDsikTwpL9+pxrAvZAV6vV+ZYsOZRArnf8573JCuMACrLwlK8jX4MFQSYPPTQQ+7ss882bCC/MPKLcYx01bLTS+EiTa2GKANNeptAeBQXMy01VZhwSKPyUSrcLN1rTnZlWA2mL37xi5Y/wNEuAFdeeaW5qQCzBCAPYQsHjmhSFAV93Xy6BpNBDUG6Aif4ZXfc17TdLPMnwlP5qFxsk32c/9iYhDQwUY9pBqRb5ozu1/pYc7IDkDI9Y8YMWyeqRimZP+WUU2xBQTRfWlIBomOqIHwVw68wMqJzjSZlmwyG7BEUCTjXQhSPzBmmDvhdxkxxqVOBniJEb2nyUmshzpqSnQj5kWm0D8AgFA4FNsB/lIoPViHSTALTHDvpnxQEhEJB0HDnHIUAbsw3x04XrvgH51phZ0TyZUh6IPqUKVOspHDnzcMe85piIEVX66IEi5qSXYVGRv2aSGu8AIY0Fj0yfF4wtDdrDUojxQdZEPVaLV++3IgkIkNuMGXo3i+cNtykYWtFdNJHXKSJ9CB0OAwbOswqotJBW4LKgB/8Km/2QIZ/xAMmTKWoGdmVQTILmdm6AUGrAwKFRfcV/qJWb9mDovYNdvrf//5305a4gSPfUjr99NOTBn+tSFSMnxBbiurMs840L1RUFBofI1NHRC21O/FDdky/mpEdIMgkwkoZdpsCBMwZ5Atf+IIdBYQ0gjl2wj/lX/hAaD5qpjehzL4Z3qxBVCHsog5/pDdUVMyRQYGhyJQ2rWmVMqtlxWQspyZkJ1MCgnJQpgFBWl2bjAqIOpRXw0WJlkQrsSyRPnUwBC/cIReakj0sqRCqHDrWIzPEzU9Kze/fY8kgfXRCYLvfeuutiZ9aphVedZGNlyU4ZIrXCUc2zvRfiTBTBTeEj1MhUatvGukEG0w+/+0mW/gM0bmGNODIoBtfj1aFMAAb4C9Uaiyd1LaD4pm6lVF0+OVXCwGzLiyQQPS6zCLiMEPqHqPgeBXzlTlsUSRq9Q2NPbCgcBAIQ+MK80VvwjFjxticf1WIEF97qI5/pJufbHdNI5BiY00xyg7yy60WyWVMoos+hahXT7UjVu0lc8zhuOuuuywKFRBEZ0BJr2YVcrXTkafwhAWLWObPn2/aHGKgHPyWf9bmaeT8ULbS5AwyMfOStGs5n9oZ5Cnr8lb4zCHqgjbNUohMbw32TadyabSUeRyM+iGAowqQZXoaPWyw4q13xx13WJcimIR2Op9Tpy9bmpP8qEAbJW+kh7cQaaSMWUsciv+yhy2iJ5/kL8ty19vQf/bSdclKoytzZES1nMW6iAoHm3OAH0iSJtMzne2owhZWKAR9ECC002nwsSmUKkQj40ReIBqi1UvsIkybgzc8izyQWpgy8I14urACCCER1RYybJH4TDPlk52pEGWQNYsIoJAgVQJz7IR/woVXP4tYQjuduf3MIkSkPBodIsoVDrA9IVuLh2lnhzeEPGdd7qp4XZg3jmQRIWGqAJkMFNptfAqd7/cobhLUWQWceLtBYgjN5CmUD9iBWc+ePZPldcKz0fEiT/xkOTD4FQpbfdD3zZtLeQrvZ3HeRfZ0FoFTINJCem0pHvYg2XbbbRPbE2A6m4iwMkvopWBuEO7Y6RzB5fLLLk/MPZkGecCL9Cu9bNDEHB5MGd5Ya9ascQsWLLAixx+/rASsiDezQSVlgMwyWsoPUS0eN26cXetVZxed6A98KASOKAQ0OLatyIBmpxJgu48/dnwu7PR08ZE/ypcyHz58uPW54yetALmfVeWVIrHemHQCq3mttwa7vqoXhkKlNwE7Dskqk9XMR1ZhQXRVfuZuMH8ErYeA05577unofUGkIXkmT0L5igcsykGUB3iB1GJ8hTZQZpo9JDFbPCAqMAqR/mJAwF/o1zx2gj/yjD2Llrv22mvNJsd+xXyB6EwDYA4RmAknSJI3rEizyv29732vlazIT68MnRbkSZU+q6K3xn5WgZNJNT4eXrKhF0Y1mo17kCxfX1nlq6PhCgPyDj7Lli2zKbG4CzMKn71XePWr4Uq8eSO60qx0MzGMjgkqNANMjGoyuQ0BD2FjDhn8ZabZVVMpzNVrVlvSKTiExilCjc86gxZRnf/Agryj0dDmnEvb0f26fv36pJuRe3yhm/lCPFeLV3zW8EB28k6v0uDBgy06VQCZMjjKLYv02HSBLAKGwCI7y8dYeMuoKQW988472xIyZS7LDGaRt3JhkndVYGEAsdHimCwc+SEnnHCCLZzmFcszmC8DBw5M5n2DTTPgQx6EhdpqwvGRRx6xU7ARbrpXjaPwozco27kCPrV8ixSRJoPsbMtGTZebeWiCPxUWAJM/9TowRZeu1yeeeMIKnTYL3XAz/Fx0TddAo0N6ltyxWkvPE6YKLK8QkQeV9ah9Rlk2RH66INkjEvMGt2rnlXgxm+jSzYTsYYI1aqqCoqARMiYy6F7ej8q3iLpw4UJbQA4GIi1HTYYjvyI55xQI23LjJu2vMLmfVyEPyseg3QfZBlj0ztG9+swzz7hVq1YZ2cEmCyFu+JaJzU6iKSyOq5/aYK8rIzRSJHLTdZ6PyouIzq7DtE1YsEChorXDo8iMG5qHbSjYGZdwhF2e8UinXWQf4OdC8WZHpOxWrFhh19L2dlHFPzBFw2dGdtJK3+a659dZsiEBwpYPCJELAHPI+R95AVQKEHOFwSCuaauoO1FHbHO0dyj+C9J2qeH18F6znMMBKn3fvn0tSyp/ranAEcyykkzJvvaZtfaZGBJPQTPdk/51RBm1iyb4o5CkmfjGED0smr+tAtSR7HIe/qZOnWooyIZvNnzIj/BhwU4oKAdJlvnOhOzK1DNrn7E8UOgIk84YPW1WQauvXr3aPpsIkdnhLCR4Ot8UrDQ5Hy2e7xdqhKRI+8/zdYhD//79W2SFfT4R3vahvxaeqnCRCdmVLlrZoTDxC8JTGbKswWGctTpXITHkz6dWsMWR1vLJM/zU9QjZEZl8dtEkfyEO2O2IMOMtiGknGz6rLGdKdtVYZRQzBqEw5ZZVxmodrgjKtFUKkfyJzK2lRThwlHJAwzWjKF96u8sCYMCH/XAQVYAs8p8pqs8991yLNKsVnnWmWkRaowsVJP3nIrqI3FoSKFwKnaN6aESC1p7L8z3e7owloM0RPl6Ads9aMiW7aqsy0atXL5023VFkp7eJNxgN8nJCZeDHsxyHDBlijyiscs/n7b4qPwoB001C2wbtjuRWszNNIBRm8kmUcV03wxGNjD3Kly+QsEDT+SP/Klg0XLdu3ayvHX/NSnZhQIeF2jT0PjGHn1/WUnXNrgIk4ekMUKObVcLKe95555mmRmPJNAnzLaJzpOA5HnnkkTZJSrZ/6L/ZzlECwkWN0vS4QxZ5rjrZw0JXwSlD6oLMIiP1DpNKjkZGu7M4mu24wYJCZGAJTca18KHA+aEQmELB9naITJp65yfL+CG6yK5xBXEly3irTvZQs7/wwguWdr7ohjRzw0sk5ggGbNTKnuR0t6LhIT3u+mG68GMuzLx588yMAR89b4A16R8VmkYpIltdjdUsOZLJRDDV1unXTLet2zbfwm9T/fIrbviI4ZZB3beLJvqDyCIrhcZSOxaqfPOb37RvldL/ziASb7j+fmCFLTPYvAfBv2x1VZwmgsayonxhzvL9VJQhb324wdsQyZIbVSe7MkTBj9p3w3ROy8XGPxEidGuWcxFdGPBq5gty7G+JZmcZGr00dL0x1VkCJiK63JrxKHwwYdggKy1Zc6PqZCfBCBmjsMPXErWYQs06U2kQa3mtAiVO8kte0eYUMJ+6lOAONvhR5dC9Zj2q3JX3kBtodGGXFR5VJ3uYUAqSX1pCP+l7zXCt/FGoCETXuQocd1UG+cetmUX55FgPblSd7M1cWG3NmwqX53Suo8JKX8s9HquPQNV7Y6qfxBhiRKA6CESyVwfHGEoOEIhkz0EhxSRWB4FI9urgGEPJAQKR7DkopJjE6iAQyV4dHGMoOUAgkj0HhRSTWB0EItmrg2MMJQcIRLLnoJBiEquDQCR7dXCMoeQAgUj2HBRSTGJ1EIhkrw6OMZQcIBDJnoNCikmsDgKR7NXBMYaSAwQi2XNQSDGJ1UEgkr06OMZQcoBAXLxRYSFphRFLybTqqNSjLD1kUYaeKeWvlLue4xguXSvmv6NxFQuzWd0i2SssWZG30oXRImyFwSfe9JyOxZY1Jp43nshv2j1et0Qgkr0lHiWv0LAQne8j3X///bbxkXbzCsnG4mo+L8MmrqF7yYCL3NBzxMkHk9ljhbjlTsXDjb1WDjvsMLfddtsl94oEF502IhDJ3kYqsDPxggUL7BM6fNYQcmvhNEf2Qrnm6mvc+GPHJ7sHVBqFyMy2GyzS/v73v2+bLWnBtt4uVAK26Bg2bJgLP5HO/SilEYhkL41NizvSrAcffLDjh8ydM9dNnjLZ9oThvsimL460CKDMhYjO9iOQe/ny5ba5EhuehmSncn35y192+gYTwfIs8UdpHYGIUOv4JHdFRrSqtqMec8gYxzbcXOPOD7LqIww8zHOVSkhavsvE5xMhOgRHMF3YF1JE15Z60viVxtNZ/UWyV1jy0toc1Wjk6918x5MNfkJS4ybRc7oudlRFgtT4Z5PTu+++27bJo/IguHN++OGH27VMHbvYeF/n8VgcgUj24riUdA3JCyG1X6Ee4P66dRs+h8l5WAnkJzyK6DJfqECXXnqp69mzp+vdu7cRHBOFisAeidoTUWZVmJ4w3Hj+egQi2V+PSasuIiee+OAXZgYNRdz5ofX5CAOVoFI7Ws8R5hlnnOH4LtPYsWNtB2BITjiYSv39ZqjEheAWiW5QVPwXyV4xVBvsb4gJ0figMR+r3XXXXd2YMWOskQr5uMcW3frEDv5LCfd4Rjb5xRdfbBXooIMOsi7Fxx9/PPl6B5qfr4NTuTiPRC+Famn3SPbS2BS9I/I+8MADZq/vscceZlrI3lb3Yzmyi+gyX+i7v+KKK2yHX7a4fvDBB+1DBYQnv6NHj07SpHQkDvGkLAKR7GUh2uQh1KZ33nmn9b7wMQE+dcjXNSAu5GSDfXpSWhPCgrD457mzzjrL3gYnn3yy9aHffvvtpsUJg8YoA0dodiRMhznEv4oQiGSvCKYNnkROvqSBZueDaKNGjbIj5zIv6IIMux/TUUgry3z5+te/7hYtWuT2228/d/bZZ5uJtGrVqoTs2OsMIvXr188qGGSPhE+jWv46kr08RuYDgkJiBFudQR8IyJ7raHU+J6P7+FmzZg2H1wnhQFR1HS5cuNA+R0PvC6RH7rvvPvtKtgaTeGb//fe3e3reLuJfmxCIZK8QrlCTMl0AU2XEiBH2YTC0OmSXZifIp59+OgkZgkoIh0oBkXlDoMnpvTnllFPc3nvvbd4IX6TmyMfH3vWudykIu5dcxJOKEYhkrxAqkQ/vaGN6XfhekoQP/YaavdjAkkhPpUDOP/98M4f45AofHEPQ+A899FAycMVkr1122cVGTrkfuxxBoX0SyV4BbpCUn7ocH330URvwGTlyZPJ0nz59knO0d3pgSZVF5guzGa+//npreMp8IQAGlZ588snko7jY9fT4MEcmfHMkkcWTihGIZK8QKmllugRpfA4ePNhsdsiL7LjjjnbEHz0s6YGl0Hzh3rnnnmtzXU499VQzhzBpkMWLFyejsoozdjkaNB3+i2SvAMLQXqfLEQ2rT7bLdOnbt28SUrGBJYgr8kJ0pgdjvkyZMsWeo4Ig99xzjzVgiZN4MI/o8UHCdJhD/GsTApHsFcAlba0uRxqM6U8b7rTTTgkZIS7TBTSwRBSYI7jPnj3b3XjjjdY3P3XqVItdpg3+ly1blnwLFHt9wIAB1uNDGiB7JHwFBVbCSyR7CWDkDMmkvelyfOKJJ6y/m6m2CFocoeuQlUsidTiwhBu9Lyz8uOCCC6wXZuLEie6tb32rNUgVBqugMJGoTAjxSqtzHolusLT7L5K9DHQhweiFwd4eMmSIaWbMDJkfmBt0QYqUHMPuR6I555xzTHOzuui0004zsyb8ojNdjmh5yM/zhB32+MgMKpPkeLsEApHsJYCRs8wHriEj5NcAD26qDGh2kR13RANLaOqbbrrJ3XrrrdaQvfDCC+0+hEYUBqOo0vKQHtOIvnz5kT9ziH9tRiCSvRXIIDo/CPjUU0+5pUuX2uARw/qh4IdBpXDKAPdXr15t3pghiX3OmwCNPnToUNPgaG6Fz/QATCSZMJCdNwhzYnguEj1EvH3nkexlcIOMCHNh0NS77bab2dq4UQkgoTR0emBp7dq1eLNRUojM1F1GSglTq5vC8Ombl1mDe9gIjmQ3KDv0F8neCnwhweb7hRpoWBqmNESlbUVWgsHsCIXelJkzZ7rbbrvN7mnwiMpB2OnwCQs3GrThqiTCDOMJ44jnlSMQdxdoBSsIhqkBadHsaPLWGowaReW5Lbfc0sweTB+uTz/9dBuIUjejyEv4uC1ZsiRp7DLLkUEremsQvUFaSWq8VQECkewlQIKM6hFhAAgzhHnr6TnloXaWZudZSExfOzsCYL6cdNJJLcwXolX4TD8Ipwjw1ghXJRFWlI4jEM2YEhhCYtnijJquX7/eDRo0qNUBnnBgSc/TS6PBI5kvRBlWEqYI0C8vO5572vwIv3oLcB6l/QhEshfBDnLxU2MRsmNKMCELCUkbPs4eMrLn8c+IK9MBmPeOqYKGLkZcTREgLPzFVUkhqtU7j2RPYQkZ0aw0EjnSt46ZgQ2ulf08ogrBubS0BpZww4QZPXq0O/HEE61ySGvLP6YK5GcqMFN6wy5H3hCsSlJaeCZKxxGIZN+IocgLcdGu0urf/e537Rr33r16m2/ui4g6cgOyd+/e3Rq07PnCwmlEfgiDc2l57rGf47PPPmvTCbjHW4OVTwgVjh/uiI52Ef/ajEAk+0bIIKLIyDwWzi+55BLbmYtuQMg/64ZZprEhI2YK5MMfwjkDS/xefPFFW4wxwE/iComNH57TKqWrrrrKTZ8+3eaqK37MIAawmIeDP37puDYmOR7aiEDsjdkImLQmpGMF0dy5c92KFSuM5HQFIvSXs3SOdafsFTNp0iTTxJBRZgmame7J448/voX5IqJfeeWVFjaEZmQV84g4w/hxZytq4qEdMGHCBHfooYcmcW1Mcjy0EYFI9iKA0ROy18i9XPce3Y2EIiKkps+dTZC0WENE5R4ybdo066JUsLrPEWEWIzY5K494QxC2wg+f4Y1AA5eKNnDgQLulMOQvHtuGQCT7RrxEJIgXDtO3Bid+QzJzHfbYpM0P7rPoQws/Wgs7fU9xpd3jdeUIRLJvxAoyIZAXk6Sc4C8ks8iIGYOE97gO7ysu3CuRdFyVPBP9vB6BSPaNmEAoSVtGLPWcjjJnCEtu4Xl4X/FVegzDq/SZ6G8TArE3ZhMW8azJEYhkb/ICjtnbhEBJM0a2J4MaOt/0WDyLCDQOArSxGI8o1xYqSfYePXpYbugHjhIRaGQEIDpSjqtdGe0rJpMnT7ZvedLf24wNI/WOkD+G69uST0ZTWYJHX3lHGpzFcC/lRv8+i72ZMlypkEeUlhRXpc/lzR+WB0RnQTyCple5YJkwVsHco64MTxeTefPmFXOObhGBhkcAgmtiHYopOS+V8nKvhFLPRfeIQL0QQKND9FLSVSYKal81AM/ljP1SAUb3DfPdwaE14NM4aZalXr/p+/G6PAIhh4Vjl802dTh2xVZFStnu5aOIPsohAJEFfugXW1MVQsfwfjzvOAIvvrSpTdqVRcJMRWUa62uv+qFuP5CorkYrIEbRNw0udjz2Zg1hI068SmlEojyYyMWvHJFpN/FW3Xrrre1nJmTEvc1MAWe9IbFYwJ6F67Je/g+YZA59p39FrQAAAABJRU5ErkJggg==;" vertex="1" parent="1">
          <mxGeometry x="1040" y="360" width="20.22" height="20" as="geometry" />
        </mxCell>
        <mxCell id="BSYq-ft0iuZ4jn7_VfeT-101" value="" style="shape=image;verticalLabelPosition=bottom;labelBackgroundColor=default;verticalAlign=top;aspect=fixed;imageAspect=0;image=data:image/png,iVBORw0KGgoAAAANSUhEUgAAALsAAAC5CAYAAABwWE5hAAABWWlDQ1BJQ0MgUHJvZmlsZQAAKJFtkD1Lw1AUht9opKBVrDg4OGTzg9aPND/AtoMUHEKt+LGlSU3VNF6SiLo6ODk5dHZR6CpCFwdHNwdBxV/gXuii5Xpuo6ZVDxzOw8t7zz3nAH2ywZgjA6i6gVdYziobm1tK7A0S4hiGBsUwfZbR9RWy4Lv2RuuJ3BSPKdFr6VypP0i1CWf+9KR2nUv89ffEoFX2TaoflLMm8wJAmibWDwMm+Ih43KOhiM8E2yFfCC6FfNPxFAs54nviUbNiWMQvxMlSl253cdU5ML9mENPHy+7aKtURykkUoSINCyksYoFu879X63hz2AfDMTzswEYFARRkSGFwUCbOw4WJOSSJVeqmQhM3/n27SLNo5/QYfZWJtN094DYPJLKRNtWkNS6BuzozPOPnolJL9rfTashDDWCgxnlzHYjNAO1nzt8bnLevgP5Xetv6BCvHYEcZkVR2AAAAYmVYSWZNTQAqAAAACAACARIAAwAAAAEAAQAAh2kABAAAAAEAAAAmAAAAAAADkoYABwAAABIAAABQoAIABAAAAAEAAAC7oAMABAAAAAEAAAC5AAAAAEFTQ0lJAAAAU2NyZWVuc2hvdB8it9AAAAI9aVRYdFhNTDpjb20uYWRvYmUueG1wAAAAAAA8eDp4bXBtZXRhIHhtbG5zOng9ImFkb2JlOm5zOm1ldGEvIiB4OnhtcHRrPSJYTVAgQ29yZSA2LjAuMCI+CiAgIDxyZGY6UkRGIHhtbG5zOnJkZj0iaHR0cDovL3d3dy53My5vcmcvMTk5OS8wMi8yMi1yZGYtc3ludGF4LW5zIyI+CiAgICAgIDxyZGY6RGVzY3JpcHRpb24gcmRmOmFib3V0PSIiCiAgICAgICAgICAgIHhtbG5zOmV4aWY9Imh0dHA6Ly9ucy5hZG9iZS5jb20vZXhpZi8xLjAvIgogICAgICAgICAgICB4bWxuczp0aWZmPSJodHRwOi8vbnMuYWRvYmUuY29tL3RpZmYvMS4wLyI+CiAgICAgICAgIDxleGlmOlBpeGVsWURpbWVuc2lvbj4xODU8L2V4aWY6UGl4ZWxZRGltZW5zaW9uPgogICAgICAgICA8ZXhpZjpVc2VyQ29tbWVudD5TY3JlZW5zaG90PC9leGlmOlVzZXJDb21tZW50PgogICAgICAgICA8ZXhpZjpQaXhlbFhEaW1lbnNpb24+MTg3PC9leGlmOlBpeGVsWERpbWVuc2lvbj4KICAgICAgICAgPHRpZmY6T3JpZW50YXRpb24+MTwvdGlmZjpPcmllbnRhdGlvbj4KICAgICAgPC9yZGY6RGVzY3JpcHRpb24+CiAgIDwvcmRmOlJERj4KPC94OnhtcG1ldGE+Cr9FYMAAACprSURBVHgB7Z0L2BRVGcePhJpKQoCKogiCcUmhUDEzjRQrrexBtBQr0S7mBRQqU8vULMkMTR+1FEss0NTsApRlqChSkHlBU0gwMCFFw6IsTdPt/F74D+cbd7/d7/t2dnf2O+/z7M7MmTPn8j//8857rrPZI488Uvj1r3/t3vjGN7rXXnvNdenSxb300ksOkZtdxL+IQIMj8OKLL7qtttrKUgmPX375ZbfD9ju4o4852njtLrroooK/G38Rg6bkQL9+/Qr//e9/C0jXLbfc0mrC1ltv7V599VXn3dxmm21mbuG5OcS/iEBOEECzo+m7bdMtSXFXTBcEovsasOlG167uf//7X3IdTyICeUJgiy22sOS+VtjAby58BehijmjxUCLRQzTieZ4RkKXSVdpcpA8z1dVr9ygRgbwgECpoERyLBffNN9/ctWCzyM3N6dOnu1GjRrkXXnhhQ0s2LzmO6ex0CGCK9+jRw02ePNndfvvtTu3QNBBJA5UHwpqx9957u+HDh6f9x+uIQMMi0KdPnyRtMsvf8IY3OCnxpIEqtS/faHQEM0eedS8eIwKNhABKGm1Ov3oxEfFbmDGhR9nwEJ3aESUi0KgIqEcxrbDT6d3QFZN2jdcRgSZEIJK9CQs1Zqk4ApHsxXGJrk2IQCR7ExZqzFJxBCLZi+MSXZsQgUj2JizUmKXiCESyF8clujYhApHsTVioMUvFEYhkL45LdG1CBCLZm7BQY5aKIxDJXhyX6NqECESyN2GhxiwVRyCSvTgu0bUJEYhkb8JCjVkqjkAke3FcomsTIlByPnsT5jVmKUMEtO2KFkroyBxzfrqfYRLKBh01e1mIoodSCIjQHPmxuJmFFJCbxT/85EeELxVWLdwj2WuBcpPEIeIqO1y/8sordgmxWdHG77nnnnN33HGHe+yxxxpqsX40Y1Ry8VgUAQgdamW0NwKppb25Xrp0qbvrrrvc3Llz3cMPP+z++te/4uyuuuoq99nPfjbZR9Qc6/QXyV4n4Bs1WmlvEZzr0DTRemS2llu8eLG77bbb3J133un+9Kc/2bYrep5Ncdkgd9q0ae4zn/lMYtIQbr0kkr1eyDdgvCIqhITgaO6QnH/5y1/cvQvudXPmznG///3v3cqVK5OGJ89qvxZW+bMrBc9yXLdundtuu+0Sv/XKeiR7vZBvwHhFbBGdJP7hD39w8+bNc7/61a/co48+asRVpdDOE1xju0NyzhUO5/oRltw5r4dEstcD9QaNE2IiaPSbbrrJnX/++e7Pf/5zQmLusWEopKVCsF8LP671LH44pyKod0abb+FeT8LH3hhKJ0qCACRGIDqNTogPwdkrEaKiwTFNILAIrmMSiD+B6LhzVKO2nkQnbZHsYQl18nPIKEJ+4xvfsP0TaYjiJnKL2DqWg4zKI7KX85v1/Uj2rBHOUfgQGE0OOQ8//HD329/+1r397W83TU4vjLQ7WVKlKJe9SPZyCMX7dUEAAkN4iA3hhw4d6h544AF34okn2jUmDD0u8lcJ4Qkvava6FGeMtBIERHjZ79/5znfcj370I+s+xF7nvghfLjyILrLzXD0lmjH1RL8B44bE0tiYNNLMH/nIR6xv/cADD0yIHvrVM+ks6fm0ez2uI9nrgXpO4pQGx6xBo/fv39/NmDHDbbvttgnh5UfHdNZCzZ6+V+vrSPZaI56j+EJtrQ9yfepTn3L//Oc/7Ru5st+pDPiF8GmJZE8jEq8bGgEappD53HPPtXkw9MrQJcmIabdu3cwmh+gif5iZSPYQjXje0AhAVsjNlN0LLrjAtDfkl1x33XXu0ksvtcqAqZMmPP3zGkHVM/U6xukC9UK+geOV/c0RE+Uf//iH++QnP2lEh/g0XNHqfLBr3LhxlhO+wXXcccfZ9AL88KwqBeeNINFmb2cpUIAqRI4aPKGAO/rTq58wwzjamdR2P6auR0jMjEe0toj+jne8w6bvkj6Iv//++9s89iPHHZnkn6+mI9xvBIlkr6AUKNCQdJBRr2eIjT0LCdCCaLWO/giHH2FCOOIgPuKtRQUgP8RJGr71rW+5OXPm2PwY4sZU6dmzp5s1a5YhBy40Xkkb5L75lpvd5Zddbj02//nPf8zPm9/85gpQzt5LNGNKYEwhqoeBcwoTgcgiox7lPprv2WeftRU6a9ascatXr7ZrTIB//etf7t///ncL25WwWeDwpje9yX69e/d2O+64o9t5553tt/3227uddtrJ5qcQXygiPZWBn9KJH87bK8oz4ZPP++67z51zzjlW0dHOpIPwIfOAAQOsQuAP4R7PUyFOnXiqO+DAA9xJJ53k6JcfMWKE3etI2tqbp/C5SPYADRW2Co2CoxBFKrxyj3ndy5YtMzI8+OCDRuznn3/e5npXqzHWvXt3h0Zk0cPgwYPdPvvs4972tre5IUOGOCpCWAHQwiJ9e4kf5p2w0eCf+MQnbLUR5gsC4el6HH/seKv8Irrd9H/EzbNUFgjO3JpQItlDNOpwHhYy55BVixJEKJacLViwwHokWF/51FNPmbYultytttrKnNtbsKSBSrZ+/Xr7rVq1yirVzJkzLdy+ffu6gQMHmo188MEHu3333de6/5QWER/yI8qf7rd2VNzkG1KTbxEd8kPgq6++2oIoFj7PIzxPHhQ3WPDTtXmqw1+n1ewh8DIL0FQqRF7h2Kp8HhwtDvlCwQSRX8KicCEE/c/VEiqOKg1xkE5MJH733HOPmzp1qpkTaP2xY8c6yM+bQCK7W0TDXeHJj4644x8Mrr32WrPJOUebEzfmFhUOf6QDQocYhmHjDjYc5Z72q3hreex0ZA9Bp3BDLc6aSiY8/eQnP7GehbAXQeTmeZ5jMXFaevToYaYHxMAEwQ7nh0mCG1pS8VM5+Io4o5GYQH/729/MDOKaH9tRFKs46XSQZn4333yz2fjvfve73cc+9jF36KGHGnFJY0h6rpWG8Jz0QG4WbHz+8583P/jDjeeZ377HHnskFYJnW6s46ful/OKvVtJpyB4WMIVHIfJDWCE/ffp02wqCBqVEJglESJObxuMuu+zi9txzT7OnBw0aZGTr06ePNSoVRluPVDAauk8//bSZS0uWLHH333+/W7FihTV+aeyGEqaR7StuvPFG+w0bNswdffTR7vjjj7cGL8+QbzSuzDNhwlFvKSoKbzGZL6TnqKOOcieffLK9vVAOei5MRy7OL7nkEt41BZ85O3LOb+HChT5PhYK3Ye2Y1z9PVEs6R19wSTbIl39dF0aOHNki315zFjyBXofHDjvsUPBmQuFrX/ta4e677y54MiZhpU8UF/G15dca1oTzxz/+sTBr5qzChAkTCp7MBd/l1yLtpJufJ2Ti3qtXr8IJJ5xgzyqdhOVNEV0mZex7TwpeA1vevSKwMHwlLvieJPMbYpk83AAn5Ac55phjLM1wWdj4Bn3Bm5d23zUr2VUw5BIS6RpgLr/88gIgqGJDDkgC0eXG0XcDGoDeRCh4rWmAhX+ES3j8OIdA/BQXR52Hz6XP5Uf+CSMMW4UZPocfv51Fwa8VLYwaNapF5SyWn2222abw0Y9+tOB7j5JgCFdE8Ausjeg8C+HJP4RPKz2lNQmkAU6ET6cjuwhDGUAIAcH1jBkzCn71TUJoaj8klxaggL3dXfBL0go33HBDwdvSPJaICChiq+B1TDxW6STMC+fEqzSko/BbXhTOPPPMFvkjP+lKzDVvhpUrVyZBPPnkkwXfsE0IjmaE8BdeeKH5CTFMHmqgE6WvU5FdpOMoACiT+fPnF/bbb7+E5BRmmuS8rv2svoLfOqJFMRJOrcjdIuISF2EeRXwqtQS3n/3sZ4UPfOADBT+imeSZt1b45qJS+wGjgm8MF3yjNjFfRHTfwLUgFbbiVTyNdFRZdxqyqzAoHAoc8TtRmRZDw/FDg1PgoSb3C4oL1113XcH3fCTlB3j8woJW+ImnBjhRmjiK+GGyfOO24PvLC7436HWkl6lCW0TnstMx38AOCTEIw26k805DdhU44CvTnGOGUGgiOiRHa+naj0aaH/xKRHCFqaPuN/JRaeUI8VXhSfOK5SsKn/70pwu++9PyD7mp8JBbRNcRnH75y19aVsMwGjnvKvdymj3XE8F8AVhfL0d1J9J1SFfZ+PHjbRjfF57NQaHrkEGf3XbbzV1zzTWOYX4PjnWj8Sxh+MJv0XfsCeDrRj4kTCtdi3Qleq1suAwcNNDyzEakRx15VJJnT2brhuRZ5f3973+/9dGHuQYbfnmX3JId8Ckkr8kSojLayfyRH//4xzZY5DW53YfoDOqcddZZNq/Fa7mkwClAClpCmCFx5J6XY5h2CE/ewIgKzdYYzEpk70YGwCRgyX2EMQfNXafSeK1peBBu3gmfO7IDuIhOAVGg/L761a+6973vfc73LJgmp6DQ5BTWQQcd5BYtWuR874LdU8GmSa7Cb4ajKi1YifTggSx9bKktyAAjtL/vbkyyjB/fhrHNkR5//HGbvguGwpxjXiVXZBfQFCSEhawUzhFHHGHrIykEtDn+cEd7ffvb37YJXIwoqtCameSliAipwYaZiJNOm2QY4QZWHBHO8cOPCW++B8v99Kc/Teay84bIs4bPDdlDokNaCOv7it1ee+1lBaJCguT8WEmDjXraaafZa5wC9Y2ypFAptGYXMBM50eLMtZkwYYKRGvzAg/t8GeOKK65IlAfPcY85OygSP2pstj1viFwTPg8jqB5gj/8G8US2k9/97ncFv9jBehfSPS1+baS82wihntcxudnkJ+SXn6/ollNGUD25rVfKKwfDjq5XyeJFiwu77767uXNfflD6/usZ8pb09DQKnl75WdrK9cY0/HQBAcpRRJ8ze07SjRYSnf5kPxGqaKEonORmJzkREfy3jYzo6nKEwODlP/JlSGicwU80Kxx22GFGePxAeJ7hnJFlibolGwFX5bEc2RvajPHAJq9hbHRerUxlHXvEWFs84QvCXsmYLV4juXvvvddm+uGXZ3l1K4zOYLZ4QpqQZwTTDXPFTyBzfiqBYQE2YMHv4osvth4a3OiixT/7wPziF79wZ5xxhoUBtvgF69mzZ9ucefypccs9xWcPNPBfw5JdJAU7EZ3FA/5VbKuJAB+hMGhI8Y0f5lvLnlchcOxMItw4qrIzbZc58mCGwgBPxiHogoW49MbIP9deW7uLLrrIsaEpAsYIFYKPhY0ePdrCyBvhG5LsAC+BvBQQnz35+Mc/bs4h0T/4wQ9aDwM9L6oUPM+vsxEdcJRnCIuw3TQ9KyFmb3nLW9z3vvc9u0+jU8+I8FyDJQ1XP8/G+RmTRnjuQ3jeoIccckiLCsIz3G9kaUiyAxjgiegAzkIEhEIDVLQNO8uydA5BI/HK5h7P8uusAlHRujfMusGW2HEOlmAGWX/4wx8ajmAmkgoz4Ye255kPf/jDZr6w2ornuU8Yfk6/87a9QUz4VC6F1ai4NxzZBba0NP3CoUbnPoVw7LHHmrYHWAoNwPVso4KdZbrIOwLp1C2r/nRIyNuRI1vYsWZVFYJncJeIsHoGrBmUw45nqaEIj9LhC3oqG54X/kqLwmyUY0ORXWBREBQYX2qjn5e1mnoNAz52u1bbU7idneiQSYTVETudfnJww1QBtw996EO2vjR8CxYjoghPeVBJeJYdv37+85/btAsIj3CPcqDxSxzMtWlUopPehiG7iC7NBKC8QteuXWuvTRIrNxZFI/gFZD1rjp34T2YJPSl+HMLICEbg1q9fP3f99dcbOmBWTlRpQsIfcMAB7pZbbnF+LYCFKT80ZlnDi4JCUamylIuj1vfL57pGKUoDhPamywz7EMApsHe+853WYCJJFGwk+qbCkSmHucGWdWCGRhb5aJDSiFeF4EmRdVMoLc90PyQ884+YNYpQJnrjTpo0yRquaHvFyXONJA1BdoHCaxACf+UrX7FXJkByD1DpR6cgERUs91QgjQRqrdIi3GTKsSsBvS+4o2Vlp3/pS1+y/nFIiMnXFhG+CpMKhInEFAIEd8qJmaV0Z7IlCHGTJp5VGtsSZ1Z+6052wAAUCgKQmKZLI0oC0dFI7OWi7sVoowudlkcai2ynEdrpfsldsq86+LZHRHiOhIGyoQKxPR7kR3gDs1NausHanviyeqauZBfR0QKAyMILBjoQCgyiIwxuhANGes5uduI/KQnehiiI3/zmNy3sdPaEDHfbBar2alriEu4iP20Av7OBlRP3KDN6aNhQiTQ1mjlTV7ILfBUARGc3XLSE5HOf+1wyBYDXsgDX/c58RMOiJNgKj0/AgE1op6Mk2MwJ0kE+RERtD24iPGERN8L0Dbbck2LCjYrH91MpL/zpOe7VU+pGdpFWS8N+8IMf2AojERrwmKZLYwsJFxjUE7B6xy3FwBFzjh3C2PWLa4gvO33ixIm2/6MqRLXSLeISNxVr1113tenBhE+ZoajYl11vaJmc1Yq/I+HUjeyAJvOF/mCWzCG4Axr2ubrKQu3A/Sgbul3BAaKv9PP6ZaeDHYNGl112mcEE2RBVErvo4J8IT8XircFItshNPKQFzc7qMQSFpmc6GHWHHq8L2QW8XoVspEnDSt2M5Oi8885zzOFAe0g7RKJvUAYQDEz8zmbWcEejozggOqOc4YAbWIJ3VtipMlG56DEjDZJp06bZDsikTwpL9+pxrAvZAV6vV+ZYsOZRArnf8573JCuMACrLwlK8jX4MFQSYPPTQQ+7ss882bCC/MPKLcYx01bLTS+EiTa2GKANNeptAeBQXMy01VZhwSKPyUSrcLN1rTnZlWA2mL37xi5Y/wNEuAFdeeaW5qQCzBCAPYQsHjmhSFAV93Xy6BpNBDUG6Aif4ZXfc17TdLPMnwlP5qFxsk32c/9iYhDQwUY9pBqRb5ozu1/pYc7IDkDI9Y8YMWyeqRimZP+WUU2xBQTRfWlIBomOqIHwVw68wMqJzjSZlmwyG7BEUCTjXQhSPzBmmDvhdxkxxqVOBniJEb2nyUmshzpqSnQj5kWm0D8AgFA4FNsB/lIoPViHSTALTHDvpnxQEhEJB0HDnHIUAbsw3x04XrvgH51phZ0TyZUh6IPqUKVOspHDnzcMe85piIEVX66IEi5qSXYVGRv2aSGu8AIY0Fj0yfF4wtDdrDUojxQdZEPVaLV++3IgkIkNuMGXo3i+cNtykYWtFdNJHXKSJ9CB0OAwbOswqotJBW4LKgB/8Km/2QIZ/xAMmTKWoGdmVQTILmdm6AUGrAwKFRfcV/qJWb9mDovYNdvrf//5305a4gSPfUjr99NOTBn+tSFSMnxBbiurMs840L1RUFBofI1NHRC21O/FDdky/mpEdIMgkwkoZdpsCBMwZ5Atf+IIdBYQ0gjl2wj/lX/hAaD5qpjehzL4Z3qxBVCHsog5/pDdUVMyRQYGhyJQ2rWmVMqtlxWQspyZkJ1MCgnJQpgFBWl2bjAqIOpRXw0WJlkQrsSyRPnUwBC/cIReakj0sqRCqHDrWIzPEzU9Kze/fY8kgfXRCYLvfeuutiZ9aphVedZGNlyU4ZIrXCUc2zvRfiTBTBTeEj1MhUatvGukEG0w+/+0mW/gM0bmGNODIoBtfj1aFMAAb4C9Uaiyd1LaD4pm6lVF0+OVXCwGzLiyQQPS6zCLiMEPqHqPgeBXzlTlsUSRq9Q2NPbCgcBAIQ+MK80VvwjFjxticf1WIEF97qI5/pJufbHdNI5BiY00xyg7yy60WyWVMoos+hahXT7UjVu0lc8zhuOuuuywKFRBEZ0BJr2YVcrXTkafwhAWLWObPn2/aHGKgHPyWf9bmaeT8ULbS5AwyMfOStGs5n9oZ5Cnr8lb4zCHqgjbNUohMbw32TadyabSUeRyM+iGAowqQZXoaPWyw4q13xx13WJcimIR2Op9Tpy9bmpP8qEAbJW+kh7cQaaSMWUsciv+yhy2iJ5/kL8ty19vQf/bSdclKoytzZES1nMW6iAoHm3OAH0iSJtMzne2owhZWKAR9ECC002nwsSmUKkQj40ReIBqi1UvsIkybgzc8izyQWpgy8I14urACCCER1RYybJH4TDPlk52pEGWQNYsIoJAgVQJz7IR/woVXP4tYQjuduf3MIkSkPBodIsoVDrA9IVuLh2lnhzeEPGdd7qp4XZg3jmQRIWGqAJkMFNptfAqd7/cobhLUWQWceLtBYgjN5CmUD9iBWc+ePZPldcKz0fEiT/xkOTD4FQpbfdD3zZtLeQrvZ3HeRfZ0FoFTINJCem0pHvYg2XbbbRPbE2A6m4iwMkvopWBuEO7Y6RzB5fLLLk/MPZkGecCL9Cu9bNDEHB5MGd5Ya9ascQsWLLAixx+/rASsiDezQSVlgMwyWsoPUS0eN26cXetVZxed6A98KASOKAQ0OLatyIBmpxJgu48/dnwu7PR08ZE/ypcyHz58uPW54yetALmfVeWVIrHemHQCq3mttwa7vqoXhkKlNwE7Dskqk9XMR1ZhQXRVfuZuMH8ErYeA05577unofUGkIXkmT0L5igcsykGUB3iB1GJ8hTZQZpo9JDFbPCAqMAqR/mJAwF/o1zx2gj/yjD2Llrv22mvNJsd+xXyB6EwDYA4RmAknSJI3rEizyv29732vlazIT68MnRbkSZU+q6K3xn5WgZNJNT4eXrKhF0Y1mo17kCxfX1nlq6PhCgPyDj7Lli2zKbG4CzMKn71XePWr4Uq8eSO60qx0MzGMjgkqNANMjGoyuQ0BD2FjDhn8ZabZVVMpzNVrVlvSKTiExilCjc86gxZRnf/Agryj0dDmnEvb0f26fv36pJuRe3yhm/lCPFeLV3zW8EB28k6v0uDBgy06VQCZMjjKLYv02HSBLAKGwCI7y8dYeMuoKQW988472xIyZS7LDGaRt3JhkndVYGEAsdHimCwc+SEnnHCCLZzmFcszmC8DBw5M5n2DTTPgQx6EhdpqwvGRRx6xU7ARbrpXjaPwozco27kCPrV8ixSRJoPsbMtGTZebeWiCPxUWAJM/9TowRZeu1yeeeMIKnTYL3XAz/Fx0TddAo0N6ltyxWkvPE6YKLK8QkQeV9ah9Rlk2RH66INkjEvMGt2rnlXgxm+jSzYTsYYI1aqqCoqARMiYy6F7ej8q3iLpw4UJbQA4GIi1HTYYjvyI55xQI23LjJu2vMLmfVyEPyseg3QfZBlj0ztG9+swzz7hVq1YZ2cEmCyFu+JaJzU6iKSyOq5/aYK8rIzRSJHLTdZ6PyouIzq7DtE1YsEChorXDo8iMG5qHbSjYGZdwhF2e8UinXWQf4OdC8WZHpOxWrFhh19L2dlHFPzBFw2dGdtJK3+a659dZsiEBwpYPCJELAHPI+R95AVQKEHOFwSCuaauoO1FHbHO0dyj+C9J2qeH18F6znMMBKn3fvn0tSyp/ranAEcyykkzJvvaZtfaZGBJPQTPdk/51RBm1iyb4o5CkmfjGED0smr+tAtSR7HIe/qZOnWooyIZvNnzIj/BhwU4oKAdJlvnOhOzK1DNrn7E8UOgIk84YPW1WQauvXr3aPpsIkdnhLCR4Ot8UrDQ5Hy2e7xdqhKRI+8/zdYhD//79W2SFfT4R3vahvxaeqnCRCdmVLlrZoTDxC8JTGbKswWGctTpXITHkz6dWsMWR1vLJM/zU9QjZEZl8dtEkfyEO2O2IMOMtiGknGz6rLGdKdtVYZRQzBqEw5ZZVxmodrgjKtFUKkfyJzK2lRThwlHJAwzWjKF96u8sCYMCH/XAQVYAs8p8pqs8991yLNKsVnnWmWkRaowsVJP3nIrqI3FoSKFwKnaN6aESC1p7L8z3e7owloM0RPl6Ads9aMiW7aqsy0atXL5023VFkp7eJNxgN8nJCZeDHsxyHDBlijyiscs/n7b4qPwoB001C2wbtjuRWszNNIBRm8kmUcV03wxGNjD3Kly+QsEDT+SP/Klg0XLdu3ayvHX/NSnZhQIeF2jT0PjGHn1/WUnXNrgIk4ekMUKObVcLKe95555mmRmPJNAnzLaJzpOA5HnnkkTZJSrZ/6L/ZzlECwkWN0vS4QxZ5rjrZw0JXwSlD6oLMIiP1DpNKjkZGu7M4mu24wYJCZGAJTca18KHA+aEQmELB9naITJp65yfL+CG6yK5xBXEly3irTvZQs7/wwguWdr7ohjRzw0sk5ggGbNTKnuR0t6LhIT3u+mG68GMuzLx588yMAR89b4A16R8VmkYpIltdjdUsOZLJRDDV1unXTLet2zbfwm9T/fIrbviI4ZZB3beLJvqDyCIrhcZSOxaqfPOb37RvldL/ziASb7j+fmCFLTPYvAfBv2x1VZwmgsayonxhzvL9VJQhb324wdsQyZIbVSe7MkTBj9p3w3ROy8XGPxEidGuWcxFdGPBq5gty7G+JZmcZGr00dL0x1VkCJiK63JrxKHwwYdggKy1Zc6PqZCfBCBmjsMPXErWYQs06U2kQa3mtAiVO8kte0eYUMJ+6lOAONvhR5dC9Zj2q3JX3kBtodGGXFR5VJ3uYUAqSX1pCP+l7zXCt/FGoCETXuQocd1UG+cetmUX55FgPblSd7M1cWG3NmwqX53Suo8JKX8s9HquPQNV7Y6qfxBhiRKA6CESyVwfHGEoOEIhkz0EhxSRWB4FI9urgGEPJAQKR7DkopJjE6iAQyV4dHGMoOUAgkj0HhRSTWB0EItmrg2MMJQcIRLLnoJBiEquDQCR7dXCMoeQAgUj2HBRSTGJ1EIhkrw6OMZQcIBDJnoNCikmsDgKR7NXBMYaSAwQi2XNQSDGJ1UEgkr06OMZQcoBAXLxRYSFphRFLybTqqNSjLD1kUYaeKeWvlLue4xguXSvmv6NxFQuzWd0i2SssWZG30oXRImyFwSfe9JyOxZY1Jp43nshv2j1et0Qgkr0lHiWv0LAQne8j3X///bbxkXbzCsnG4mo+L8MmrqF7yYCL3NBzxMkHk9ljhbjlTsXDjb1WDjvsMLfddtsl94oEF502IhDJ3kYqsDPxggUL7BM6fNYQcmvhNEf2Qrnm6mvc+GPHJ7sHVBqFyMy2GyzS/v73v2+bLWnBtt4uVAK26Bg2bJgLP5HO/SilEYhkL41NizvSrAcffLDjh8ydM9dNnjLZ9oThvsimL460CKDMhYjO9iOQe/ny5ba5EhuehmSncn35y192+gYTwfIs8UdpHYGIUOv4JHdFRrSqtqMec8gYxzbcXOPOD7LqIww8zHOVSkhavsvE5xMhOgRHMF3YF1JE15Z60viVxtNZ/UWyV1jy0toc1Wjk6918x5MNfkJS4ybRc7oudlRFgtT4Z5PTu+++27bJo/IguHN++OGH27VMHbvYeF/n8VgcgUj24riUdA3JCyG1X6Ee4P66dRs+h8l5WAnkJzyK6DJfqECXXnqp69mzp+vdu7cRHBOFisAeidoTUWZVmJ4w3Hj+egQi2V+PSasuIiee+OAXZgYNRdz5ofX5CAOVoFI7Ws8R5hlnnOH4LtPYsWNtB2BITjiYSv39ZqjEheAWiW5QVPwXyV4xVBvsb4gJ0figMR+r3XXXXd2YMWOskQr5uMcW3frEDv5LCfd4Rjb5xRdfbBXooIMOsi7Fxx9/PPl6B5qfr4NTuTiPRC+Famn3SPbS2BS9I/I+8MADZq/vscceZlrI3lb3Yzmyi+gyX+i7v+KKK2yHX7a4fvDBB+1DBYQnv6NHj07SpHQkDvGkLAKR7GUh2uQh1KZ33nmn9b7wMQE+dcjXNSAu5GSDfXpSWhPCgrD457mzzjrL3gYnn3yy9aHffvvtpsUJg8YoA0dodiRMhznEv4oQiGSvCKYNnkROvqSBZueDaKNGjbIj5zIv6IIMux/TUUgry3z5+te/7hYtWuT2228/d/bZZ5uJtGrVqoTs2OsMIvXr188qGGSPhE+jWv46kr08RuYDgkJiBFudQR8IyJ7raHU+J6P7+FmzZg2H1wnhQFR1HS5cuNA+R0PvC6RH7rvvPvtKtgaTeGb//fe3e3reLuJfmxCIZK8QrlCTMl0AU2XEiBH2YTC0OmSXZifIp59+OgkZgkoIh0oBkXlDoMnpvTnllFPc3nvvbd4IX6TmyMfH3vWudykIu5dcxJOKEYhkrxAqkQ/vaGN6XfhekoQP/YaavdjAkkhPpUDOP/98M4f45AofHEPQ+A899FAycMVkr1122cVGTrkfuxxBoX0SyV4BbpCUn7ocH330URvwGTlyZPJ0nz59knO0d3pgSZVF5guzGa+//npreMp8IQAGlZ588snko7jY9fT4MEcmfHMkkcWTihGIZK8QKmllugRpfA4ePNhsdsiL7LjjjnbEHz0s6YGl0Hzh3rnnnmtzXU499VQzhzBpkMWLFyejsoozdjkaNB3+i2SvAMLQXqfLEQ2rT7bLdOnbt28SUrGBJYgr8kJ0pgdjvkyZMsWeo4Ig99xzjzVgiZN4MI/o8UHCdJhD/GsTApHsFcAlba0uRxqM6U8b7rTTTgkZIS7TBTSwRBSYI7jPnj3b3XjjjdY3P3XqVItdpg3+ly1blnwLFHt9wIAB1uNDGiB7JHwFBVbCSyR7CWDkDMmkvelyfOKJJ6y/m6m2CFocoeuQlUsidTiwhBu9Lyz8uOCCC6wXZuLEie6tb32rNUgVBqugMJGoTAjxSqtzHolusLT7L5K9DHQhweiFwd4eMmSIaWbMDJkfmBt0QYqUHMPuR6I555xzTHOzuui0004zsyb8ojNdjmh5yM/zhB32+MgMKpPkeLsEApHsJYCRs8wHriEj5NcAD26qDGh2kR13RANLaOqbbrrJ3XrrrdaQvfDCC+0+hEYUBqOo0vKQHtOIvnz5kT9ziH9tRiCSvRXIIDo/CPjUU0+5pUuX2uARw/qh4IdBpXDKAPdXr15t3pghiX3OmwCNPnToUNPgaG6Fz/QATCSZMJCdNwhzYnguEj1EvH3nkexlcIOMCHNh0NS77bab2dq4UQkgoTR0emBp7dq1eLNRUojM1F1GSglTq5vC8Ombl1mDe9gIjmQ3KDv0F8neCnwhweb7hRpoWBqmNESlbUVWgsHsCIXelJkzZ7rbbrvN7mnwiMpB2OnwCQs3GrThqiTCDOMJ44jnlSMQdxdoBSsIhqkBadHsaPLWGowaReW5Lbfc0sweTB+uTz/9dBuIUjejyEv4uC1ZsiRp7DLLkUEremsQvUFaSWq8VQECkewlQIKM6hFhAAgzhHnr6TnloXaWZudZSExfOzsCYL6cdNJJLcwXolX4TD8Ipwjw1ghXJRFWlI4jEM2YEhhCYtnijJquX7/eDRo0qNUBnnBgSc/TS6PBI5kvRBlWEqYI0C8vO5572vwIv3oLcB6l/QhEshfBDnLxU2MRsmNKMCELCUkbPs4eMrLn8c+IK9MBmPeOqYKGLkZcTREgLPzFVUkhqtU7j2RPYQkZ0aw0EjnSt46ZgQ2ulf08ogrBubS0BpZww4QZPXq0O/HEE61ySGvLP6YK5GcqMFN6wy5H3hCsSlJaeCZKxxGIZN+IocgLcdGu0urf/e537Rr33r16m2/ui4g6cgOyd+/e3Rq07PnCwmlEfgiDc2l57rGf47PPPmvTCbjHW4OVTwgVjh/uiI52Ef/ajEAk+0bIIKLIyDwWzi+55BLbmYtuQMg/64ZZprEhI2YK5MMfwjkDS/xefPFFW4wxwE/iComNH57TKqWrrrrKTZ8+3eaqK37MIAawmIeDP37puDYmOR7aiEDsjdkImLQmpGMF0dy5c92KFSuM5HQFIvSXs3SOdafsFTNp0iTTxJBRZgmame7J448/voX5IqJfeeWVFjaEZmQV84g4w/hxZytq4qEdMGHCBHfooYcmcW1Mcjy0EYFI9iKA0ROy18i9XPce3Y2EIiKkps+dTZC0WENE5R4ybdo066JUsLrPEWEWIzY5K494QxC2wg+f4Y1AA5eKNnDgQLulMOQvHtuGQCT7RrxEJIgXDtO3Bid+QzJzHfbYpM0P7rPoQws/Wgs7fU9xpd3jdeUIRLJvxAoyIZAXk6Sc4C8ks8iIGYOE97gO7ysu3CuRdFyVPBP9vB6BSPaNmEAoSVtGLPWcjjJnCEtu4Xl4X/FVegzDq/SZ6G8TArE3ZhMW8azJEYhkb/ICjtnbhEBJM0a2J4MaOt/0WDyLCDQOArSxGI8o1xYqSfYePXpYbugHjhIRaGQEIDpSjqtdGe0rJpMnT7ZvedLf24wNI/WOkD+G69uST0ZTWYJHX3lHGpzFcC/lRv8+i72ZMlypkEeUlhRXpc/lzR+WB0RnQTyCple5YJkwVsHco64MTxeTefPmFXOObhGBhkcAgmtiHYopOS+V8nKvhFLPRfeIQL0QQKND9FLSVSYKal81AM/ljP1SAUb3DfPdwaE14NM4aZalXr/p+/G6PAIhh4Vjl802dTh2xVZFStnu5aOIPsohAJEFfugXW1MVQsfwfjzvOAIvvrSpTdqVRcJMRWUa62uv+qFuP5CorkYrIEbRNw0udjz2Zg1hI068SmlEojyYyMWvHJFpN/FW3Xrrre1nJmTEvc1MAWe9IbFYwJ6F67Je/g+YZA59p39FrQAAAABJRU5ErkJggg==;" vertex="1" parent="1">
          <mxGeometry x="1040" y="389" width="20.22" height="20" as="geometry" />
        </mxCell>
        <mxCell id="BSYq-ft0iuZ4jn7_VfeT-102" value="" style="shape=image;verticalLabelPosition=bottom;labelBackgroundColor=default;verticalAlign=top;aspect=fixed;imageAspect=0;image=data:image/png,iVBORw0KGgoAAAANSUhEUgAAALsAAAC5CAYAAABwWE5hAAABWWlDQ1BJQ0MgUHJvZmlsZQAAKJFtkD1Lw1AUht9opKBVrDg4OGTzg9aPND/AtoMUHEKt+LGlSU3VNF6SiLo6ODk5dHZR6CpCFwdHNwdBxV/gXuii5Xpuo6ZVDxzOw8t7zz3nAH2ywZgjA6i6gVdYziobm1tK7A0S4hiGBsUwfZbR9RWy4Lv2RuuJ3BSPKdFr6VypP0i1CWf+9KR2nUv89ffEoFX2TaoflLMm8wJAmibWDwMm+Ih43KOhiM8E2yFfCC6FfNPxFAs54nviUbNiWMQvxMlSl253cdU5ML9mENPHy+7aKtURykkUoSINCyksYoFu879X63hz2AfDMTzswEYFARRkSGFwUCbOw4WJOSSJVeqmQhM3/n27SLNo5/QYfZWJtN094DYPJLKRNtWkNS6BuzozPOPnolJL9rfTashDDWCgxnlzHYjNAO1nzt8bnLevgP5Xetv6BCvHYEcZkVR2AAAAYmVYSWZNTQAqAAAACAACARIAAwAAAAEAAQAAh2kABAAAAAEAAAAmAAAAAAADkoYABwAAABIAAABQoAIABAAAAAEAAAC7oAMABAAAAAEAAAC5AAAAAEFTQ0lJAAAAU2NyZWVuc2hvdB8it9AAAAI9aVRYdFhNTDpjb20uYWRvYmUueG1wAAAAAAA8eDp4bXBtZXRhIHhtbG5zOng9ImFkb2JlOm5zOm1ldGEvIiB4OnhtcHRrPSJYTVAgQ29yZSA2LjAuMCI+CiAgIDxyZGY6UkRGIHhtbG5zOnJkZj0iaHR0cDovL3d3dy53My5vcmcvMTk5OS8wMi8yMi1yZGYtc3ludGF4LW5zIyI+CiAgICAgIDxyZGY6RGVzY3JpcHRpb24gcmRmOmFib3V0PSIiCiAgICAgICAgICAgIHhtbG5zOmV4aWY9Imh0dHA6Ly9ucy5hZG9iZS5jb20vZXhpZi8xLjAvIgogICAgICAgICAgICB4bWxuczp0aWZmPSJodHRwOi8vbnMuYWRvYmUuY29tL3RpZmYvMS4wLyI+CiAgICAgICAgIDxleGlmOlBpeGVsWURpbWVuc2lvbj4xODU8L2V4aWY6UGl4ZWxZRGltZW5zaW9uPgogICAgICAgICA8ZXhpZjpVc2VyQ29tbWVudD5TY3JlZW5zaG90PC9leGlmOlVzZXJDb21tZW50PgogICAgICAgICA8ZXhpZjpQaXhlbFhEaW1lbnNpb24+MTg3PC9leGlmOlBpeGVsWERpbWVuc2lvbj4KICAgICAgICAgPHRpZmY6T3JpZW50YXRpb24+MTwvdGlmZjpPcmllbnRhdGlvbj4KICAgICAgPC9yZGY6RGVzY3JpcHRpb24+CiAgIDwvcmRmOlJERj4KPC94OnhtcG1ldGE+Cr9FYMAAACprSURBVHgB7Z0L2BRVGcePhJpKQoCKogiCcUmhUDEzjRQrrexBtBQr0S7mBRQqU8vULMkMTR+1FEss0NTsApRlqChSkHlBU0gwMCFFw6IsTdPt/F74D+cbd7/d7/t2dnf2O+/z7M7MmTPn8j//8857rrPZI488Uvj1r3/t3vjGN7rXXnvNdenSxb300ksOkZtdxL+IQIMj8OKLL7qtttrKUgmPX375ZbfD9ju4o4852njtLrroooK/G38Rg6bkQL9+/Qr//e9/C0jXLbfc0mrC1ltv7V599VXn3dxmm21mbuG5OcS/iEBOEECzo+m7bdMtSXFXTBcEovsasOlG167uf//7X3IdTyICeUJgiy22sOS+VtjAby58BehijmjxUCLRQzTieZ4RkKXSVdpcpA8z1dVr9ygRgbwgECpoERyLBffNN9/ctWCzyM3N6dOnu1GjRrkXXnhhQ0s2LzmO6ex0CGCK9+jRw02ePNndfvvtTu3QNBBJA5UHwpqx9957u+HDh6f9x+uIQMMi0KdPnyRtMsvf8IY3OCnxpIEqtS/faHQEM0eedS8eIwKNhABKGm1Ov3oxEfFbmDGhR9nwEJ3aESUi0KgIqEcxrbDT6d3QFZN2jdcRgSZEIJK9CQs1Zqk4ApHsxXGJrk2IQCR7ExZqzFJxBCLZi+MSXZsQgUj2JizUmKXiCESyF8clujYhApHsTVioMUvFEYhkL45LdG1CBCLZm7BQY5aKIxDJXhyX6NqECESyN2GhxiwVRyCSvTgu0bUJEYhkb8JCjVkqjkAke3FcomsTIlByPnsT5jVmKUMEtO2KFkroyBxzfrqfYRLKBh01e1mIoodSCIjQHPmxuJmFFJCbxT/85EeELxVWLdwj2WuBcpPEIeIqO1y/8sordgmxWdHG77nnnnN33HGHe+yxxxpqsX40Y1Ry8VgUAQgdamW0NwKppb25Xrp0qbvrrrvc3Llz3cMPP+z++te/4uyuuuoq99nPfjbZR9Qc6/QXyV4n4Bs1WmlvEZzr0DTRemS2llu8eLG77bbb3J133un+9Kc/2bYrep5Ncdkgd9q0ae4zn/lMYtIQbr0kkr1eyDdgvCIqhITgaO6QnH/5y1/cvQvudXPmznG///3v3cqVK5OGJ89qvxZW+bMrBc9yXLdundtuu+0Sv/XKeiR7vZBvwHhFbBGdJP7hD39w8+bNc7/61a/co48+asRVpdDOE1xju0NyzhUO5/oRltw5r4dEstcD9QaNE2IiaPSbbrrJnX/++e7Pf/5zQmLusWEopKVCsF8LP671LH44pyKod0abb+FeT8LH3hhKJ0qCACRGIDqNTogPwdkrEaKiwTFNILAIrmMSiD+B6LhzVKO2nkQnbZHsYQl18nPIKEJ+4xvfsP0TaYjiJnKL2DqWg4zKI7KX85v1/Uj2rBHOUfgQGE0OOQ8//HD329/+1r397W83TU4vjLQ7WVKlKJe9SPZyCMX7dUEAAkN4iA3hhw4d6h544AF34okn2jUmDD0u8lcJ4Qkvava6FGeMtBIERHjZ79/5znfcj370I+s+xF7nvghfLjyILrLzXD0lmjH1RL8B44bE0tiYNNLMH/nIR6xv/cADD0yIHvrVM+ks6fm0ez2uI9nrgXpO4pQGx6xBo/fv39/NmDHDbbvttgnh5UfHdNZCzZ6+V+vrSPZaI56j+EJtrQ9yfepTn3L//Oc/7Ru5st+pDPiF8GmJZE8jEq8bGgEappD53HPPtXkw9MrQJcmIabdu3cwmh+gif5iZSPYQjXje0AhAVsjNlN0LLrjAtDfkl1x33XXu0ksvtcqAqZMmPP3zGkHVM/U6xukC9UK+geOV/c0RE+Uf//iH++QnP2lEh/g0XNHqfLBr3LhxlhO+wXXcccfZ9AL88KwqBeeNINFmb2cpUIAqRI4aPKGAO/rTq58wwzjamdR2P6auR0jMjEe0toj+jne8w6bvkj6Iv//++9s89iPHHZnkn6+mI9xvBIlkr6AUKNCQdJBRr2eIjT0LCdCCaLWO/giHH2FCOOIgPuKtRQUgP8RJGr71rW+5OXPm2PwY4sZU6dmzp5s1a5YhBy40Xkkb5L75lpvd5Zddbj02//nPf8zPm9/85gpQzt5LNGNKYEwhqoeBcwoTgcgiox7lPprv2WeftRU6a9ascatXr7ZrTIB//etf7t///ncL25WwWeDwpje9yX69e/d2O+64o9t5553tt/3227uddtrJ5qcQXygiPZWBn9KJH87bK8oz4ZPP++67z51zzjlW0dHOpIPwIfOAAQOsQuAP4R7PUyFOnXiqO+DAA9xJJ53k6JcfMWKE3etI2tqbp/C5SPYADRW2Co2CoxBFKrxyj3ndy5YtMzI8+OCDRuznn3/e5npXqzHWvXt3h0Zk0cPgwYPdPvvs4972tre5IUOGOCpCWAHQwiJ9e4kf5p2w0eCf+MQnbLUR5gsC4el6HH/seKv8Irrd9H/EzbNUFgjO3JpQItlDNOpwHhYy55BVixJEKJacLViwwHokWF/51FNPmbYultytttrKnNtbsKSBSrZ+/Xr7rVq1yirVzJkzLdy+ffu6gQMHmo188MEHu3333de6/5QWER/yI8qf7rd2VNzkG1KTbxEd8kPgq6++2oIoFj7PIzxPHhQ3WPDTtXmqw1+n1ewh8DIL0FQqRF7h2Kp8HhwtDvlCwQSRX8KicCEE/c/VEiqOKg1xkE5MJH733HOPmzp1qpkTaP2xY8c6yM+bQCK7W0TDXeHJj4644x8Mrr32WrPJOUebEzfmFhUOf6QDQocYhmHjDjYc5Z72q3hreex0ZA9Bp3BDLc6aSiY8/eQnP7GehbAXQeTmeZ5jMXFaevToYaYHxMAEwQ7nh0mCG1pS8VM5+Io4o5GYQH/729/MDOKaH9tRFKs46XSQZn4333yz2fjvfve73cc+9jF36KGHGnFJY0h6rpWG8Jz0QG4WbHz+8583P/jDjeeZ377HHnskFYJnW6s46ful/OKvVtJpyB4WMIVHIfJDWCE/ffp02wqCBqVEJglESJObxuMuu+zi9txzT7OnBw0aZGTr06ePNSoVRluPVDAauk8//bSZS0uWLHH333+/W7FihTV+aeyGEqaR7StuvPFG+w0bNswdffTR7vjjj7cGL8+QbzSuzDNhwlFvKSoKbzGZL6TnqKOOcieffLK9vVAOei5MRy7OL7nkEt41BZ85O3LOb+HChT5PhYK3Ye2Y1z9PVEs6R19wSTbIl39dF0aOHNki315zFjyBXofHDjvsUPBmQuFrX/ta4e677y54MiZhpU8UF/G15dca1oTzxz/+sTBr5qzChAkTCp7MBd/l1yLtpJufJ2Ti3qtXr8IJJ5xgzyqdhOVNEV0mZex7TwpeA1vevSKwMHwlLvieJPMbYpk83AAn5Ac55phjLM1wWdj4Bn3Bm5d23zUr2VUw5BIS6RpgLr/88gIgqGJDDkgC0eXG0XcDGoDeRCh4rWmAhX+ES3j8OIdA/BQXR52Hz6XP5Uf+CSMMW4UZPocfv51Fwa8VLYwaNapF5SyWn2222abw0Y9+tOB7j5JgCFdE8Ausjeg8C+HJP4RPKz2lNQmkAU6ET6cjuwhDGUAIAcH1jBkzCn71TUJoaj8klxaggL3dXfBL0go33HBDwdvSPJaICChiq+B1TDxW6STMC+fEqzSko/BbXhTOPPPMFvkjP+lKzDVvhpUrVyZBPPnkkwXfsE0IjmaE8BdeeKH5CTFMHmqgE6WvU5FdpOMoACiT+fPnF/bbb7+E5BRmmuS8rv2svoLfOqJFMRJOrcjdIuISF2EeRXwqtQS3n/3sZ4UPfOADBT+imeSZt1b45qJS+wGjgm8MF3yjNjFfRHTfwLUgFbbiVTyNdFRZdxqyqzAoHAoc8TtRmRZDw/FDg1PgoSb3C4oL1113XcH3fCTlB3j8woJW+ImnBjhRmjiK+GGyfOO24PvLC7436HWkl6lCW0TnstMx38AOCTEIw26k805DdhU44CvTnGOGUGgiOiRHa+naj0aaH/xKRHCFqaPuN/JRaeUI8VXhSfOK5SsKn/70pwu++9PyD7mp8JBbRNcRnH75y19aVsMwGjnvKvdymj3XE8F8AVhfL0d1J9J1SFfZ+PHjbRjfF57NQaHrkEGf3XbbzV1zzTWOYX4PjnWj8Sxh+MJv0XfsCeDrRj4kTCtdi3Qleq1suAwcNNDyzEakRx15VJJnT2brhuRZ5f3973+/9dGHuQYbfnmX3JId8Ckkr8kSojLayfyRH//4xzZY5DW53YfoDOqcddZZNq/Fa7mkwClAClpCmCFx5J6XY5h2CE/ewIgKzdYYzEpk70YGwCRgyX2EMQfNXafSeK1peBBu3gmfO7IDuIhOAVGg/L761a+6973vfc73LJgmp6DQ5BTWQQcd5BYtWuR874LdU8GmSa7Cb4ajKi1YifTggSx9bKktyAAjtL/vbkyyjB/fhrHNkR5//HGbvguGwpxjXiVXZBfQFCSEhawUzhFHHGHrIykEtDn+cEd7ffvb37YJXIwoqtCameSliAipwYaZiJNOm2QY4QZWHBHO8cOPCW++B8v99Kc/Teay84bIs4bPDdlDokNaCOv7it1ee+1lBaJCguT8WEmDjXraaafZa5wC9Y2ypFAptGYXMBM50eLMtZkwYYKRGvzAg/t8GeOKK65IlAfPcY85OygSP2pstj1viFwTPg8jqB5gj/8G8US2k9/97ncFv9jBehfSPS1+baS82wihntcxudnkJ+SXn6/ollNGUD25rVfKKwfDjq5XyeJFiwu77767uXNfflD6/usZ8pb09DQKnl75WdrK9cY0/HQBAcpRRJ8ze07SjRYSnf5kPxGqaKEonORmJzkREfy3jYzo6nKEwODlP/JlSGicwU80Kxx22GFGePxAeJ7hnJFlibolGwFX5bEc2RvajPHAJq9hbHRerUxlHXvEWFs84QvCXsmYLV4juXvvvddm+uGXZ3l1K4zOYLZ4QpqQZwTTDXPFTyBzfiqBYQE2YMHv4osvth4a3OiixT/7wPziF79wZ5xxhoUBtvgF69mzZ9ucefypccs9xWcPNPBfw5JdJAU7EZ3FA/5VbKuJAB+hMGhI8Y0f5lvLnlchcOxMItw4qrIzbZc58mCGwgBPxiHogoW49MbIP9deW7uLLrrIsaEpAsYIFYKPhY0ePdrCyBvhG5LsAC+BvBQQnz35+Mc/bs4h0T/4wQ9aDwM9L6oUPM+vsxEdcJRnCIuw3TQ9KyFmb3nLW9z3vvc9u0+jU8+I8FyDJQ1XP8/G+RmTRnjuQ3jeoIccckiLCsIz3G9kaUiyAxjgiegAzkIEhEIDVLQNO8uydA5BI/HK5h7P8uusAlHRujfMusGW2HEOlmAGWX/4wx8ajmAmkgoz4Ye255kPf/jDZr6w2ornuU8Yfk6/87a9QUz4VC6F1ai4NxzZBba0NP3CoUbnPoVw7LHHmrYHWAoNwPVso4KdZbrIOwLp1C2r/nRIyNuRI1vYsWZVFYJncJeIsHoGrBmUw45nqaEIj9LhC3oqG54X/kqLwmyUY0ORXWBREBQYX2qjn5e1mnoNAz52u1bbU7idneiQSYTVETudfnJww1QBtw996EO2vjR8CxYjoghPeVBJeJYdv37+85/btAsIj3CPcqDxSxzMtWlUopPehiG7iC7NBKC8QteuXWuvTRIrNxZFI/gFZD1rjp34T2YJPSl+HMLICEbg1q9fP3f99dcbOmBWTlRpQsIfcMAB7pZbbnF+LYCFKT80ZlnDi4JCUamylIuj1vfL57pGKUoDhPamywz7EMApsHe+853WYCJJFGwk+qbCkSmHucGWdWCGRhb5aJDSiFeF4EmRdVMoLc90PyQ884+YNYpQJnrjTpo0yRquaHvFyXONJA1BdoHCaxACf+UrX7FXJkByD1DpR6cgERUs91QgjQRqrdIi3GTKsSsBvS+4o2Vlp3/pS1+y/nFIiMnXFhG+CpMKhInEFAIEd8qJmaV0Z7IlCHGTJp5VGtsSZ1Z+6052wAAUCgKQmKZLI0oC0dFI7OWi7sVoowudlkcai2ynEdrpfsldsq86+LZHRHiOhIGyoQKxPR7kR3gDs1NausHanviyeqauZBfR0QKAyMILBjoQCgyiIwxuhANGes5uduI/KQnehiiI3/zmNy3sdPaEDHfbBar2alriEu4iP20Av7OBlRP3KDN6aNhQiTQ1mjlTV7ILfBUARGc3XLSE5HOf+1wyBYDXsgDX/c58RMOiJNgKj0/AgE1op6Mk2MwJ0kE+RERtD24iPGERN8L0Dbbck2LCjYrH91MpL/zpOe7VU+pGdpFWS8N+8IMf2AojERrwmKZLYwsJFxjUE7B6xy3FwBFzjh3C2PWLa4gvO33ixIm2/6MqRLXSLeISNxVr1113tenBhE+ZoajYl11vaJmc1Yq/I+HUjeyAJvOF/mCWzCG4Axr2ubrKQu3A/Sgbul3BAaKv9PP6ZaeDHYNGl112mcEE2RBVErvo4J8IT8XircFItshNPKQFzc7qMQSFpmc6GHWHHq8L2QW8XoVspEnDSt2M5Oi8885zzOFAe0g7RKJvUAYQDEz8zmbWcEejozggOqOc4YAbWIJ3VtipMlG56DEjDZJp06bZDsikTwpL9+pxrAvZAV6vV+ZYsOZRArnf8573JCuMACrLwlK8jX4MFQSYPPTQQ+7ss882bCC/MPKLcYx01bLTS+EiTa2GKANNeptAeBQXMy01VZhwSKPyUSrcLN1rTnZlWA2mL37xi5Y/wNEuAFdeeaW5qQCzBCAPYQsHjmhSFAV93Xy6BpNBDUG6Aif4ZXfc17TdLPMnwlP5qFxsk32c/9iYhDQwUY9pBqRb5ozu1/pYc7IDkDI9Y8YMWyeqRimZP+WUU2xBQTRfWlIBomOqIHwVw68wMqJzjSZlmwyG7BEUCTjXQhSPzBmmDvhdxkxxqVOBniJEb2nyUmshzpqSnQj5kWm0D8AgFA4FNsB/lIoPViHSTALTHDvpnxQEhEJB0HDnHIUAbsw3x04XrvgH51phZ0TyZUh6IPqUKVOspHDnzcMe85piIEVX66IEi5qSXYVGRv2aSGu8AIY0Fj0yfF4wtDdrDUojxQdZEPVaLV++3IgkIkNuMGXo3i+cNtykYWtFdNJHXKSJ9CB0OAwbOswqotJBW4LKgB/8Km/2QIZ/xAMmTKWoGdmVQTILmdm6AUGrAwKFRfcV/qJWb9mDovYNdvrf//5305a4gSPfUjr99NOTBn+tSFSMnxBbiurMs840L1RUFBofI1NHRC21O/FDdky/mpEdIMgkwkoZdpsCBMwZ5Atf+IIdBYQ0gjl2wj/lX/hAaD5qpjehzL4Z3qxBVCHsog5/pDdUVMyRQYGhyJQ2rWmVMqtlxWQspyZkJ1MCgnJQpgFBWl2bjAqIOpRXw0WJlkQrsSyRPnUwBC/cIReakj0sqRCqHDrWIzPEzU9Kze/fY8kgfXRCYLvfeuutiZ9aphVedZGNlyU4ZIrXCUc2zvRfiTBTBTeEj1MhUatvGukEG0w+/+0mW/gM0bmGNODIoBtfj1aFMAAb4C9Uaiyd1LaD4pm6lVF0+OVXCwGzLiyQQPS6zCLiMEPqHqPgeBXzlTlsUSRq9Q2NPbCgcBAIQ+MK80VvwjFjxticf1WIEF97qI5/pJufbHdNI5BiY00xyg7yy60WyWVMoos+hahXT7UjVu0lc8zhuOuuuywKFRBEZ0BJr2YVcrXTkafwhAWLWObPn2/aHGKgHPyWf9bmaeT8ULbS5AwyMfOStGs5n9oZ5Cnr8lb4zCHqgjbNUohMbw32TadyabSUeRyM+iGAowqQZXoaPWyw4q13xx13WJcimIR2Op9Tpy9bmpP8qEAbJW+kh7cQaaSMWUsciv+yhy2iJ5/kL8ty19vQf/bSdclKoytzZES1nMW6iAoHm3OAH0iSJtMzne2owhZWKAR9ECC002nwsSmUKkQj40ReIBqi1UvsIkybgzc8izyQWpgy8I14urACCCER1RYybJH4TDPlk52pEGWQNYsIoJAgVQJz7IR/woVXP4tYQjuduf3MIkSkPBodIsoVDrA9IVuLh2lnhzeEPGdd7qp4XZg3jmQRIWGqAJkMFNptfAqd7/cobhLUWQWceLtBYgjN5CmUD9iBWc+ePZPldcKz0fEiT/xkOTD4FQpbfdD3zZtLeQrvZ3HeRfZ0FoFTINJCem0pHvYg2XbbbRPbE2A6m4iwMkvopWBuEO7Y6RzB5fLLLk/MPZkGecCL9Cu9bNDEHB5MGd5Ya9ascQsWLLAixx+/rASsiDezQSVlgMwyWsoPUS0eN26cXetVZxed6A98KASOKAQ0OLatyIBmpxJgu48/dnwu7PR08ZE/ypcyHz58uPW54yetALmfVeWVIrHemHQCq3mttwa7vqoXhkKlNwE7Dskqk9XMR1ZhQXRVfuZuMH8ErYeA05577unofUGkIXkmT0L5igcsykGUB3iB1GJ8hTZQZpo9JDFbPCAqMAqR/mJAwF/o1zx2gj/yjD2Llrv22mvNJsd+xXyB6EwDYA4RmAknSJI3rEizyv29732vlazIT68MnRbkSZU+q6K3xn5WgZNJNT4eXrKhF0Y1mo17kCxfX1nlq6PhCgPyDj7Lli2zKbG4CzMKn71XePWr4Uq8eSO60qx0MzGMjgkqNANMjGoyuQ0BD2FjDhn8ZabZVVMpzNVrVlvSKTiExilCjc86gxZRnf/Agryj0dDmnEvb0f26fv36pJuRe3yhm/lCPFeLV3zW8EB28k6v0uDBgy06VQCZMjjKLYv02HSBLAKGwCI7y8dYeMuoKQW988472xIyZS7LDGaRt3JhkndVYGEAsdHimCwc+SEnnHCCLZzmFcszmC8DBw5M5n2DTTPgQx6EhdpqwvGRRx6xU7ARbrpXjaPwozco27kCPrV8ixSRJoPsbMtGTZebeWiCPxUWAJM/9TowRZeu1yeeeMIKnTYL3XAz/Fx0TddAo0N6ltyxWkvPE6YKLK8QkQeV9ah9Rlk2RH66INkjEvMGt2rnlXgxm+jSzYTsYYI1aqqCoqARMiYy6F7ej8q3iLpw4UJbQA4GIi1HTYYjvyI55xQI23LjJu2vMLmfVyEPyseg3QfZBlj0ztG9+swzz7hVq1YZ2cEmCyFu+JaJzU6iKSyOq5/aYK8rIzRSJHLTdZ6PyouIzq7DtE1YsEChorXDo8iMG5qHbSjYGZdwhF2e8UinXWQf4OdC8WZHpOxWrFhh19L2dlHFPzBFw2dGdtJK3+a659dZsiEBwpYPCJELAHPI+R95AVQKEHOFwSCuaauoO1FHbHO0dyj+C9J2qeH18F6znMMBKn3fvn0tSyp/ranAEcyykkzJvvaZtfaZGBJPQTPdk/51RBm1iyb4o5CkmfjGED0smr+tAtSR7HIe/qZOnWooyIZvNnzIj/BhwU4oKAdJlvnOhOzK1DNrn7E8UOgIk84YPW1WQauvXr3aPpsIkdnhLCR4Ot8UrDQ5Hy2e7xdqhKRI+8/zdYhD//79W2SFfT4R3vahvxaeqnCRCdmVLlrZoTDxC8JTGbKswWGctTpXITHkz6dWsMWR1vLJM/zU9QjZEZl8dtEkfyEO2O2IMOMtiGknGz6rLGdKdtVYZRQzBqEw5ZZVxmodrgjKtFUKkfyJzK2lRThwlHJAwzWjKF96u8sCYMCH/XAQVYAs8p8pqs8991yLNKsVnnWmWkRaowsVJP3nIrqI3FoSKFwKnaN6aESC1p7L8z3e7owloM0RPl6Ads9aMiW7aqsy0atXL5023VFkp7eJNxgN8nJCZeDHsxyHDBlijyiscs/n7b4qPwoB001C2wbtjuRWszNNIBRm8kmUcV03wxGNjD3Kly+QsEDT+SP/Klg0XLdu3ayvHX/NSnZhQIeF2jT0PjGHn1/WUnXNrgIk4ekMUKObVcLKe95555mmRmPJNAnzLaJzpOA5HnnkkTZJSrZ/6L/ZzlECwkWN0vS4QxZ5rjrZw0JXwSlD6oLMIiP1DpNKjkZGu7M4mu24wYJCZGAJTca18KHA+aEQmELB9naITJp65yfL+CG6yK5xBXEly3irTvZQs7/wwguWdr7ohjRzw0sk5ggGbNTKnuR0t6LhIT3u+mG68GMuzLx588yMAR89b4A16R8VmkYpIltdjdUsOZLJRDDV1unXTLet2zbfwm9T/fIrbviI4ZZB3beLJvqDyCIrhcZSOxaqfPOb37RvldL/ziASb7j+fmCFLTPYvAfBv2x1VZwmgsayonxhzvL9VJQhb324wdsQyZIbVSe7MkTBj9p3w3ROy8XGPxEidGuWcxFdGPBq5gty7G+JZmcZGr00dL0x1VkCJiK63JrxKHwwYdggKy1Zc6PqZCfBCBmjsMPXErWYQs06U2kQa3mtAiVO8kte0eYUMJ+6lOAONvhR5dC9Zj2q3JX3kBtodGGXFR5VJ3uYUAqSX1pCP+l7zXCt/FGoCETXuQocd1UG+cetmUX55FgPblSd7M1cWG3NmwqX53Suo8JKX8s9HquPQNV7Y6qfxBhiRKA6CESyVwfHGEoOEIhkz0EhxSRWB4FI9urgGEPJAQKR7DkopJjE6iAQyV4dHGMoOUAgkj0HhRSTWB0EItmrg2MMJQcIRLLnoJBiEquDQCR7dXCMoeQAgUj2HBRSTGJ1EIhkrw6OMZQcIBDJnoNCikmsDgKR7NXBMYaSAwQi2XNQSDGJ1UEgkr06OMZQcoBAXLxRYSFphRFLybTqqNSjLD1kUYaeKeWvlLue4xguXSvmv6NxFQuzWd0i2SssWZG30oXRImyFwSfe9JyOxZY1Jp43nshv2j1et0Qgkr0lHiWv0LAQne8j3X///bbxkXbzCsnG4mo+L8MmrqF7yYCL3NBzxMkHk9ljhbjlTsXDjb1WDjvsMLfddtsl94oEF502IhDJ3kYqsDPxggUL7BM6fNYQcmvhNEf2Qrnm6mvc+GPHJ7sHVBqFyMy2GyzS/v73v2+bLWnBtt4uVAK26Bg2bJgLP5HO/SilEYhkL41NizvSrAcffLDjh8ydM9dNnjLZ9oThvsimL460CKDMhYjO9iOQe/ny5ba5EhuehmSncn35y192+gYTwfIs8UdpHYGIUOv4JHdFRrSqtqMec8gYxzbcXOPOD7LqIww8zHOVSkhavsvE5xMhOgRHMF3YF1JE15Z60viVxtNZ/UWyV1jy0toc1Wjk6918x5MNfkJS4ybRc7oudlRFgtT4Z5PTu+++27bJo/IguHN++OGH27VMHbvYeF/n8VgcgUj24riUdA3JCyG1X6Ee4P66dRs+h8l5WAnkJzyK6DJfqECXXnqp69mzp+vdu7cRHBOFisAeidoTUWZVmJ4w3Hj+egQi2V+PSasuIiee+OAXZgYNRdz5ofX5CAOVoFI7Ws8R5hlnnOH4LtPYsWNtB2BITjiYSv39ZqjEheAWiW5QVPwXyV4xVBvsb4gJ0figMR+r3XXXXd2YMWOskQr5uMcW3frEDv5LCfd4Rjb5xRdfbBXooIMOsi7Fxx9/PPl6B5qfr4NTuTiPRC+Famn3SPbS2BS9I/I+8MADZq/vscceZlrI3lb3Yzmyi+gyX+i7v+KKK2yHX7a4fvDBB+1DBYQnv6NHj07SpHQkDvGkLAKR7GUh2uQh1KZ33nmn9b7wMQE+dcjXNSAu5GSDfXpSWhPCgrD457mzzjrL3gYnn3yy9aHffvvtpsUJg8YoA0dodiRMhznEv4oQiGSvCKYNnkROvqSBZueDaKNGjbIj5zIv6IIMux/TUUgry3z5+te/7hYtWuT2228/d/bZZ5uJtGrVqoTs2OsMIvXr188qGGSPhE+jWv46kr08RuYDgkJiBFudQR8IyJ7raHU+J6P7+FmzZg2H1wnhQFR1HS5cuNA+R0PvC6RH7rvvPvtKtgaTeGb//fe3e3reLuJfmxCIZK8QrlCTMl0AU2XEiBH2YTC0OmSXZifIp59+OgkZgkoIh0oBkXlDoMnpvTnllFPc3nvvbd4IX6TmyMfH3vWudykIu5dcxJOKEYhkrxAqkQ/vaGN6XfhekoQP/YaavdjAkkhPpUDOP/98M4f45AofHEPQ+A899FAycMVkr1122cVGTrkfuxxBoX0SyV4BbpCUn7ocH330URvwGTlyZPJ0nz59knO0d3pgSZVF5guzGa+//npreMp8IQAGlZ588snko7jY9fT4MEcmfHMkkcWTihGIZK8QKmllugRpfA4ePNhsdsiL7LjjjnbEHz0s6YGl0Hzh3rnnnmtzXU499VQzhzBpkMWLFyejsoozdjkaNB3+i2SvAMLQXqfLEQ2rT7bLdOnbt28SUrGBJYgr8kJ0pgdjvkyZMsWeo4Ig99xzjzVgiZN4MI/o8UHCdJhD/GsTApHsFcAlba0uRxqM6U8b7rTTTgkZIS7TBTSwRBSYI7jPnj3b3XjjjdY3P3XqVItdpg3+ly1blnwLFHt9wIAB1uNDGiB7JHwFBVbCSyR7CWDkDMmkvelyfOKJJ6y/m6m2CFocoeuQlUsidTiwhBu9Lyz8uOCCC6wXZuLEie6tb32rNUgVBqugMJGoTAjxSqtzHolusLT7L5K9DHQhweiFwd4eMmSIaWbMDJkfmBt0QYqUHMPuR6I555xzTHOzuui0004zsyb8ojNdjmh5yM/zhB32+MgMKpPkeLsEApHsJYCRs8wHriEj5NcAD26qDGh2kR13RANLaOqbbrrJ3XrrrdaQvfDCC+0+hEYUBqOo0vKQHtOIvnz5kT9ziH9tRiCSvRXIIDo/CPjUU0+5pUuX2uARw/qh4IdBpXDKAPdXr15t3pghiX3OmwCNPnToUNPgaG6Fz/QATCSZMJCdNwhzYnguEj1EvH3nkexlcIOMCHNh0NS77bab2dq4UQkgoTR0emBp7dq1eLNRUojM1F1GSglTq5vC8Ombl1mDe9gIjmQ3KDv0F8neCnwhweb7hRpoWBqmNESlbUVWgsHsCIXelJkzZ7rbbrvN7mnwiMpB2OnwCQs3GrThqiTCDOMJ44jnlSMQdxdoBSsIhqkBadHsaPLWGowaReW5Lbfc0sweTB+uTz/9dBuIUjejyEv4uC1ZsiRp7DLLkUEremsQvUFaSWq8VQECkewlQIKM6hFhAAgzhHnr6TnloXaWZudZSExfOzsCYL6cdNJJLcwXolX4TD8Ipwjw1ghXJRFWlI4jEM2YEhhCYtnijJquX7/eDRo0qNUBnnBgSc/TS6PBI5kvRBlWEqYI0C8vO5572vwIv3oLcB6l/QhEshfBDnLxU2MRsmNKMCELCUkbPs4eMrLn8c+IK9MBmPeOqYKGLkZcTREgLPzFVUkhqtU7j2RPYQkZ0aw0EjnSt46ZgQ2ulf08ogrBubS0BpZww4QZPXq0O/HEE61ySGvLP6YK5GcqMFN6wy5H3hCsSlJaeCZKxxGIZN+IocgLcdGu0urf/e537Rr33r16m2/ui4g6cgOyd+/e3Rq07PnCwmlEfgiDc2l57rGf47PPPmvTCbjHW4OVTwgVjh/uiI52Ef/ajEAk+0bIIKLIyDwWzi+55BLbmYtuQMg/64ZZprEhI2YK5MMfwjkDS/xefPFFW4wxwE/iComNH57TKqWrrrrKTZ8+3eaqK37MIAawmIeDP37puDYmOR7aiEDsjdkImLQmpGMF0dy5c92KFSuM5HQFIvSXs3SOdafsFTNp0iTTxJBRZgmame7J448/voX5IqJfeeWVFjaEZmQV84g4w/hxZytq4qEdMGHCBHfooYcmcW1Mcjy0EYFI9iKA0ROy18i9XPce3Y2EIiKkps+dTZC0WENE5R4ybdo066JUsLrPEWEWIzY5K494QxC2wg+f4Y1AA5eKNnDgQLulMOQvHtuGQCT7RrxEJIgXDtO3Bid+QzJzHfbYpM0P7rPoQws/Wgs7fU9xpd3jdeUIRLJvxAoyIZAXk6Sc4C8ks8iIGYOE97gO7ysu3CuRdFyVPBP9vB6BSPaNmEAoSVtGLPWcjjJnCEtu4Xl4X/FVegzDq/SZ6G8TArE3ZhMW8azJEYhkb/ICjtnbhEBJM0a2J4MaOt/0WDyLCDQOArSxGI8o1xYqSfYePXpYbugHjhIRaGQEIDpSjqtdGe0rJpMnT7ZvedLf24wNI/WOkD+G69uST0ZTWYJHX3lHGpzFcC/lRv8+i72ZMlypkEeUlhRXpc/lzR+WB0RnQTyCple5YJkwVsHco64MTxeTefPmFXOObhGBhkcAgmtiHYopOS+V8nKvhFLPRfeIQL0QQKND9FLSVSYKal81AM/ljP1SAUb3DfPdwaE14NM4aZalXr/p+/G6PAIhh4Vjl802dTh2xVZFStnu5aOIPsohAJEFfugXW1MVQsfwfjzvOAIvvrSpTdqVRcJMRWUa62uv+qFuP5CorkYrIEbRNw0udjz2Zg1hI068SmlEojyYyMWvHJFpN/FW3Xrrre1nJmTEvc1MAWe9IbFYwJ6F67Je/g+YZA59p39FrQAAAABJRU5ErkJggg==;" vertex="1" parent="1">
          <mxGeometry x="1040" y="610.5" width="20.22" height="20" as="geometry" />
        </mxCell>
        <mxCell id="BSYq-ft0iuZ4jn7_VfeT-104" value="" style="endArrow=none;dashed=1;html=1;dashPattern=1 3;strokeWidth=2;rounded=0;exitX=0.5;exitY=0;exitDx=0;exitDy=0;" edge="1" parent="1" source="BSYq-ft0iuZ4jn7_VfeT-102">
          <mxGeometry width="50" height="50" relative="1" as="geometry">
            <mxPoint x="1137" y="578" as="sourcePoint" />
            <mxPoint x="1050" y="409" as="targetPoint" />
            <Array as="points">
              <mxPoint x="1050" y="409" />
            </Array>
          </mxGeometry>
        </mxCell>
        <mxCell id="BSYq-ft0iuZ4jn7_VfeT-108" value="&lt;font style=&quot;font-size: 24px;&quot;&gt;Quantum Generator&lt;/font&gt;" style="text;html=1;strokeColor=none;fillColor=none;align=center;verticalAlign=middle;whiteSpace=wrap;rounded=0;" vertex="1" parent="1">
          <mxGeometry x="601" y="90" width="239" height="30" as="geometry" />
        </mxCell>
      </root>
    </mxGraphModel>
  </diagram>
</mxfile>
